<svg width="24" height="24" viewBox="0 0 24 24" fill="none" xmlns="http://www.w3.org/2000/svg">
<path d="M12 2C6.477 2 2 6.477 2 12C2 17.523 6.477 22 12 22C17.523 22 22 17.523 22 12C22 6.477 17.523 2 12 2Z" fill="#2B6DEF"/>
<path d="M11.0999 17.4H12.8999V15.6H11.0999V17.4Z" fill="#D5E2FC"/>
<path d="M12.8999 14.7V13.674C13.6713 13.4759 14.355 13.0273 14.8437 12.3985C15.3324 11.7697 15.5984 10.9964 15.5999 10.2C15.5999 8.21098 13.9889 6.59998 11.9999 6.59998C10.0109 6.59998 8.3999 8.21098 8.3999 10.2H10.1999C10.1999 9.20728 11.0072 8.39998 11.9999 8.39998C12.9926 8.39998 13.7999 9.20728 13.7999 10.2C13.7999 11.1927 12.9926 12 11.9999 12C11.7612 12 11.5323 12.0948 11.3635 12.2636C11.1947 12.4324 11.0999 12.6613 11.0999 12.9V14.7H12.8999Z" fill="#D5E2FC"/>
</svg>
