<svg width="24" height="24" viewBox="0 0 24 24" fill="none" xmlns="http://www.w3.org/2000/svg">
<g clip-path="url(#clip0)">
<path d="M11.8506 22C17.3505 22 21.8091 17.5228 21.8091 12C21.8091 6.47715 17.3505 2 11.8506 2C6.35066 2 1.89209 6.47715 1.89209 12C1.89209 17.5228 6.35066 22 11.8506 22Z" fill="#AAC5F9"/>
<path d="M15.4358 9.5V8.5C15.4358 7.4 14.5395 6.5 13.4441 6.5H12.9462V6C12.9462 5.4 12.4482 5 11.9503 5C11.3528 5 10.9545 5.5 10.9545 6V6.5H10.4565C9.36111 6.5 8.46484 7.4 8.46484 8.5V10.7C8.46484 11.7 9.16194 12.5 10.0582 12.7L13.4441 13.4V15.6H10.4565V14.6H8.46484V15.6C8.46484 16.7 9.36111 17.6 10.4565 17.6H10.9545V17.9C10.9545 18.4 11.3528 18.9 11.9503 18.9C12.4482 18.9 12.9462 18.4 12.9462 17.9V17.6H13.5437C14.6391 17.6 15.5354 16.7 15.5354 15.6V13.4C15.5354 12.4 14.8383 11.6 13.942 11.4L10.5561 10.7V8.5H13.5437V9.5H15.4358Z" fill="#2B6DEF"/>
</g>
<defs>
<clipPath id="clip0">
<rect width="24" height="24" fill="white"/>
</clipPath>
</defs>
</svg>
