<svg width="24" height="24" viewBox="0 0 24 24" fill="none" xmlns="http://www.w3.org/2000/svg">
<path d="M17.1 17C15.7 18.1 13.9 18.9 12 18.9C7.7 18.9 4.5 15.4 3 11.9C3.8 10 5.1 8.1 6.9 6.8" stroke="#061024" stroke-width="2" stroke-linecap="round" stroke-linejoin="round"/>
<path d="M9.8999 5.2C10.5999 5 11.2999 4.9 11.9999 4.9C16.2999 4.9 19.4999 8.4 20.9999 11.9C20.5999 12.9 20.0999 13.8 19.3999 14.7" stroke="#061024" stroke-width="2" stroke-linecap="round" stroke-linejoin="round"/>
<path d="M14.1 14C13.6 14.5 12.8 14.9 12 14.9C10.3 14.9 9 13.6 9 11.9C9 11.1 9.3 10.3 9.9 9.8" stroke="#061024" stroke-width="2" stroke-linecap="round" stroke-linejoin="round"/>
<path d="M4.1001 4L19.9001 19.8" stroke="#061024" stroke-width="2" stroke-linecap="round" stroke-linejoin="round"/>
</svg>
