<svg width="24" height="24" viewBox="0 0 24 24" fill="none" xmlns="http://www.w3.org/2000/svg">
<rect width="4" height="4" rx="2" transform="matrix(-1 0 0 1 6 2)" fill="#061024"/>
<rect width="4" height="4" rx="2" transform="matrix(-1 0 0 1 6 10)" fill="#061024"/>
<rect width="4" height="4" rx="2" transform="matrix(-1 0 0 1 6 18)" fill="#061024"/>
<rect width="4" height="4" rx="2" transform="matrix(-1 0 0 1 14 2)" fill="#061024"/>
<rect width="4" height="4" rx="2" transform="matrix(-1 0 0 1 14 10)" fill="#061024"/>
<rect width="4" height="4" rx="2" transform="matrix(-1 0 0 1 14 18)" fill="#061024"/>
<rect width="4" height="4" rx="2" transform="matrix(-1 0 0 1 22 2)" fill="#061024"/>
<rect width="4" height="4" rx="2" transform="matrix(-1 0 0 1 22 10)" fill="#061024"/>
<rect width="4" height="4" rx="2" transform="matrix(-1 0 0 1 22 18)" fill="#061024"/>
</svg>
