<svg width="24" height="24" viewBox="0 0 24 24" fill="none" xmlns="http://www.w3.org/2000/svg">
<path fill-rule="evenodd" clip-rule="evenodd" d="M16.5858 15.3431L19.7321 18.4894L18.4885 19.7313L15.3422 16.5849C13.9294 17.6816 12.1517 18.1987 10.3711 18.0308C8.5905 17.863 6.94078 17.0229 5.75778 15.6815C4.57478 14.3401 3.94743 12.5983 4.00345 10.8107C4.05947 9.02307 4.79465 7.32398 6.05931 6.05931C7.32398 4.79465 9.02307 4.05947 10.8107 4.00345C12.5983 3.94743 14.3401 4.57478 15.6815 5.75778C17.0229 6.94078 17.863 8.5905 18.0308 10.3711C18.1987 12.1517 17.6816 13.9294 16.5849 15.3422L16.5858 15.3431ZM11 16C12.3261 16 13.5979 15.4732 14.5355 14.5355C15.4732 13.5979 16 12.3261 16 11C16 9.67392 15.4732 8.40215 14.5355 7.46447C13.5979 6.52678 12.3261 6 11 6C9.67392 6 8.40215 6.52678 7.46447 7.46447C6.52678 8.40215 6 9.67392 6 11C6 12.3261 6.52678 13.5979 7.46447 14.5355C8.40215 15.4732 9.67392 16 11 16Z" fill="#061024"/>
</svg>
