<svg width="24" height="24" viewBox="0 0 24 24" fill="none" xmlns="http://www.w3.org/2000/svg">
<path d="M14 3H21C21.2652 3 21.5196 3.10536 21.7071 3.29289C21.8946 3.48043 22 3.73478 22 4V19C22 19.2652 21.8946 19.5196 21.7071 19.7071C21.5196 19.8946 21.2652 20 21 20H15.242C14.7118 20.0012 14.2036 20.2118 13.828 20.586L12.707 21.707C12.698 21.716 12.686 21.719 12.677 21.728C12.591 21.807 12.495 21.878 12.383 21.924H12.381C12.137 22.025 11.863 22.025 11.619 21.924H11.617C11.505 21.878 11.409 21.808 11.323 21.728C11.314 21.719 11.302 21.716 11.293 21.707L10.172 20.586C9.7964 20.2118 9.28817 20.0012 8.758 20H3C2.73478 20 2.48043 19.8946 2.29289 19.7071C2.10536 19.5196 2 19.2652 2 19V4C2 3.73478 2.10536 3.48043 2.29289 3.29289C2.48043 3.10536 2.73478 3 3 3H10C10.7404 3.00251 11.4534 3.28057 12 3.78C12.5466 3.28057 13.2596 3.00251 14 3Z" fill="#8690A5"/>
<path d="M12 21.9998C12.1295 21.9998 12.259 21.9745 12.381 21.924H12.383C12.495 21.878 12.591 21.807 12.677 21.728C12.6815 21.7235 12.6867 21.7205 12.692 21.7175C12.6972 21.7145 12.7025 21.7115 12.707 21.707L13.828 20.586C14.2036 20.2118 14.7118 20.0012 15.242 20H21C21.2652 20 21.5196 19.8946 21.7071 19.7071C21.8946 19.5196 22 19.2652 22 19V4C22 3.73478 21.8946 3.48043 21.7071 3.29289C21.5196 3.10536 21.2652 3 21 3H14C13.2596 3.00251 12.5466 3.28057 12 3.78V21.9998Z" fill="#B7BFCC"/>
</svg>
