<svg width="24" height="24" viewBox="0 0 24 24" fill="none" xmlns="http://www.w3.org/2000/svg">
<path d="M17.7953 4.78868L4.78467 17.7993L6.19887 19.2135L19.2095 6.20288L17.7953 4.78868Z" fill="#2B6DEF"/>
<path d="M6.19887 4.78868L4.78467 6.20288L17.7953 19.2135L19.2095 17.7993L6.19887 4.78868Z" fill="#AAC5F9"/>
<path d="M5.5 9C7.433 9 9 7.433 9 5.5C9 3.567 7.433 2 5.5 2C3.567 2 2 3.567 2 5.5C2 7.433 3.567 9 5.5 9Z" fill="#2B6DEF"/>
<path d="M18.5 9C20.433 9 22 7.433 22 5.5C22 3.567 20.433 2 18.5 2C16.567 2 15 3.567 15 5.5C15 7.433 16.567 9 18.5 9Z" fill="#AAC5F9"/>
<path d="M5.5 22C7.433 22 9 20.433 9 18.5C9 16.567 7.433 15 5.5 15C3.567 15 2 16.567 2 18.5C2 20.433 3.567 22 5.5 22Z" fill="#AAC5F9"/>
<path d="M18.5 22C20.433 22 22 20.433 22 18.5C22 16.567 20.433 15 18.5 15C16.567 15 15 16.567 15 18.5C15 20.433 16.567 22 18.5 22Z" fill="#2B6DEF"/>
</svg>
