<svg width="24" height="24" viewBox="0 0 24 24" fill="none" xmlns="http://www.w3.org/2000/svg">
<g clip-path="url(#clip0)">
<path d="M11.8506 22C17.3505 22 21.8091 17.5228 21.8091 12C21.8091 6.47715 17.3505 2 11.8506 2C6.35066 2 1.89209 6.47715 1.89209 12C1.89209 17.5228 6.35066 22 11.8506 22Z" fill="#AAC5F9"/>
<path d="M11.8506 17C11.2531 17 10.8547 16.6 10.8547 16V8C10.8547 7.4 11.2531 7 11.8506 7C12.4481 7 12.8464 7.4 12.8464 8V16C12.8464 16.6 12.4481 17 11.8506 17Z" fill="#2B6DEF"/>
<path d="M6.87134 12C6.87134 11.4 7.26968 11 7.86719 11H15.834C16.4315 11 16.8298 11.4 16.8298 12C16.8298 12.6 16.4315 13 15.834 13H7.86719C7.36926 13 6.87134 12.6 6.87134 12Z" fill="#2B6DEF"/>
</g>
<defs>
<clipPath id="clip0">
<rect width="24" height="24" fill="white"/>
</clipPath>
</defs>
</svg>
