<svg width="24" height="24" viewBox="0 0 24 24" fill="none" xmlns="http://www.w3.org/2000/svg">
<path d="M2.30252 14.23C2.19854 14.254 2.10652 14.322 2.05452 14.414C1.99854 14.51 1.98653 14.618 2.01453 14.722C2.24254 15.57 2.57852 16.386 3.01053 17.138C3.06253 17.23 3.15452 17.298 3.25853 17.326C3.36253 17.354 3.47054 17.338 3.56253 17.282C4.22254 16.882 5.30252 17.162 6.07054 17.93C6.83853 18.698 7.11453 19.774 6.71854 20.434C6.66253 20.526 6.64654 20.638 6.67454 20.742C6.69854 20.846 6.76653 20.934 6.86253 20.986C7.61453 21.418 8.42652 21.754 9.27454 21.986C9.37852 22.014 9.49053 21.998 9.58253 21.946C9.67454 21.89 9.74254 21.802 9.77054 21.698C9.95452 20.95 10.9145 20.386 11.9985 20.386C13.0825 20.386 14.0425 20.95 14.2265 21.698C14.2545 21.802 14.3225 21.89 14.4145 21.946C14.4745 21.982 14.5465 21.998 14.6145 21.998C14.6505 21.998 14.6865 21.994 14.7225 21.986C15.5705 21.754 16.3825 21.418 17.1345 20.986C17.2305 20.934 17.2985 20.846 17.3225 20.742C17.3505 20.638 17.3345 20.526 17.2785 20.434C16.8825 19.774 17.1625 18.698 17.9305 17.93C18.6945 17.162 19.7745 16.882 20.4345 17.282C20.5265 17.338 20.6345 17.354 20.7425 17.326C20.8465 17.298 20.9345 17.23 20.9865 17.138C21.4185 16.386 21.7545 15.574 21.9865 14.722C22.0145 14.618 21.9985 14.51 21.9425 14.414C21.8905 14.322 21.7985 14.254 21.6945 14.23C20.9465 14.042 20.3865 13.086 20.3865 11.998C20.3865 10.914 20.9465 9.95797 21.6945 9.76995C21.7985 9.74195 21.8905 9.67796 21.9425 9.58597C21.9985 9.48997 22.0145 9.38197 21.9865 9.27796C21.7545 8.42596 21.4185 7.61397 20.9865 6.86197C20.9345 6.76995 20.8465 6.70196 20.7425 6.67396C20.6345 6.64596 20.5265 6.66197 20.4345 6.71795C19.7745 7.11795 18.6945 6.83797 17.9305 6.06995C17.1625 5.30196 16.8825 4.22596 17.2785 3.56595C17.3345 3.47396 17.3505 3.36197 17.3225 3.25797C17.2985 3.15396 17.2305 3.06595 17.1345 3.00997C16.3825 2.58197 15.5705 2.24596 14.7225 2.01397C14.6185 1.98597 14.5065 2.00196 14.4145 2.05396C14.3225 2.10997 14.2545 2.19796 14.2265 2.30196C14.0425 3.04996 13.0825 3.61397 11.9985 3.61397C10.9145 3.61397 9.95452 3.04996 9.77054 2.30196C9.74254 2.19796 9.67454 2.10997 9.58253 2.05396C9.49053 2.00196 9.37852 1.98597 9.27454 2.01397C8.42652 2.24596 7.61453 2.58197 6.86253 3.00997C6.76653 3.06595 6.69854 3.15396 6.67454 3.25797C6.64654 3.36197 6.66253 3.47396 6.71854 3.56595C7.11453 4.22596 6.83853 5.30196 6.07054 6.06995C5.30252 6.83797 4.22254 7.11795 3.56253 6.71795C3.47054 6.66197 3.36253 6.64596 3.25853 6.67396C3.15452 6.70196 3.06253 6.76995 3.01053 6.86197C2.57852 7.61397 2.24254 8.42596 2.01453 9.27796C1.98653 9.38197 1.99854 9.48997 2.05452 9.58597C2.10652 9.67796 2.19854 9.74195 2.30252 9.76995C3.05052 9.95797 3.61453 10.914 3.61453 11.998C3.61453 13.086 3.05052 14.042 2.30252 14.23ZM11.9985 7.75797C14.3385 7.75797 16.2385 9.66197 16.2385 11.998C16.2385 14.338 14.3385 16.242 11.9985 16.242C9.65853 16.242 7.75853 14.338 7.75853 11.998C7.75853 9.66197 9.65853 7.75797 11.9985 7.75797Z" fill="#2B6DEF"/>
<circle cx="12" cy="12" r="6" fill="#AAC5F9"/>
<circle cx="12" cy="12" r="4" fill="white"/>
</svg>
