<svg width="24" height="24" viewBox="0 0 24 24" fill="none" xmlns="http://www.w3.org/2000/svg">
<path d="M4 11H10C10.2652 11 10.5196 10.8946 10.7071 10.7071C10.8946 10.5196 11 10.2652 11 10V4C11 3.73478 10.8946 3.48043 10.7071 3.29289C10.5196 3.10536 10.2652 3 10 3H4C3.73478 3 3.48043 3.10536 3.29289 3.29289C3.10536 3.48043 3 3.73478 3 4V10C3 10.2652 3.10536 10.5196 3.29289 10.7071C3.48043 10.8946 3.73478 11 4 11ZM4 21H10C10.2652 21 10.5196 20.8946 10.7071 20.7071C10.8946 20.5196 11 20.2652 11 20V14C11 13.7348 10.8946 13.4804 10.7071 13.2929C10.5196 13.1054 10.2652 13 10 13H4C3.73478 13 3.48043 13.1054 3.29289 13.2929C3.10536 13.4804 3 13.7348 3 14V20C3 20.2652 3.10536 20.5196 3.29289 20.7071C3.48043 20.8946 3.73478 21 4 21ZM14 21H20C20.2652 21 20.5196 20.8946 20.7071 20.7071C20.8946 20.5196 21 20.2652 21 20V14C21 13.7348 20.8946 13.4804 20.7071 13.2929C20.5196 13.1054 20.2652 13 20 13H14C13.7348 13 13.4804 13.1054 13.2929 13.2929C13.1054 13.4804 13 13.7348 13 14V20C13 20.2652 13.1054 20.5196 13.2929 20.7071C13.4804 20.8946 13.7348 21 14 21Z" fill="#6E798F"/>
<path d="M17.7068 2.70699L21.2928 6.29299C21.3857 6.38578 21.4595 6.49598 21.5098 6.6173C21.5601 6.73861 21.586 6.86866 21.586 6.99999C21.586 7.13132 21.5601 7.26137 21.5098 7.38268C21.4595 7.504 21.3857 7.6142 21.2928 7.70699L17.7068 11.293C17.614 11.3859 17.5038 11.4597 17.3825 11.51C17.2612 11.5603 17.1311 11.5862 16.9998 11.5862C16.8684 11.5862 16.7384 11.5603 16.6171 11.51C16.4958 11.4597 16.3856 11.3859 16.2928 11.293L12.7068 7.70699C12.6138 7.6142 12.5401 7.504 12.4898 7.38268C12.4395 7.26137 12.4136 7.13132 12.4136 6.99999C12.4136 6.86866 12.4395 6.73861 12.4898 6.6173C12.5401 6.49598 12.6138 6.38578 12.7068 6.29299L16.2928 2.70699C16.3856 2.61404 16.4958 2.54031 16.6171 2.48999C16.7384 2.43968 16.8684 2.41379 16.9998 2.41379C17.1311 2.41379 17.2612 2.43968 17.3825 2.48999C17.5038 2.54031 17.614 2.61404 17.7068 2.70699Z" fill="#B7BFCC"/>
</svg>
