<svg width="24" height="24" viewBox="0 0 24 24" fill="none" xmlns="http://www.w3.org/2000/svg">
<path d="M12 24C18.6274 24 24 18.6274 24 12C24 5.37258 18.6274 0 12 0C5.37258 0 0 5.37258 0 12C0 18.6274 5.37258 24 12 24Z" fill="#FFF0F4"/>
<path fill-rule="evenodd" clip-rule="evenodd" d="M7.81606 6.28117L5.14439 8.95283C4.9437 9.15352 4.95625 9.31659 5.15694 9.51728L13.3601 17.7204C13.5608 17.9211 13.7238 17.9337 13.9245 17.733L17.6749 13.9826C19.6316 12.0259 19.4686 9.95629 17.9258 8.41349C16.822 7.3097 15.668 6.90832 14.351 7.27207C14.1377 7.3348 14.0374 7.3097 13.9371 7.20937C13.9003 7.17262 13.8703 7.12917 13.8323 7.07408C13.8183 7.05392 13.8034 7.0322 13.7865 7.00868C13.636 6.78291 13.3852 6.4317 13.1845 6.23101C11.6041 4.65058 9.58463 4.5126 7.81606 6.28117ZM11.2654 9.73052L10.6257 10.3702C10.425 10.5709 10.262 10.5584 10.0613 10.3577L9.45919 9.7556C9.2585 9.55491 9.24597 9.39184 9.44666 9.19118L10.0863 8.55147C10.4125 8.22535 10.8766 8.18772 11.2529 8.564C11.6417 8.95286 11.5915 9.4044 11.2654 9.73052ZM15.367 11.75L13.6862 13.4307C13.4855 13.6314 13.3225 13.6189 13.1218 13.4182L12.5197 12.8161C12.319 12.6154 12.3064 12.4524 12.5071 12.2517L14.1879 10.5709C14.6771 10.0817 15.1412 9.99394 15.5426 10.3953C15.9565 10.8092 15.8561 11.2608 15.367 11.75ZM5.86561 13.2488C5.57699 13.5375 5.57699 14.0055 5.86561 14.2941L11.0919 19.5204C11.3805 19.809 11.8485 19.809 12.1371 19.5204C12.4258 19.2317 12.4258 18.7637 12.1371 18.4751L6.91087 13.2488C6.62223 12.9602 6.15426 12.9602 5.86561 13.2488Z" fill="#FF3567"/>
<path d="M23.5 12C23.5 18.3513 18.3513 23.5 12 23.5C5.64873 23.5 0.5 18.3513 0.5 12C0.5 5.64873 5.64873 0.5 12 0.5C18.3513 0.5 23.5 5.64873 23.5 12Z" stroke="black" stroke-opacity="0.097"/>
</svg>
