<svg width="24" height="24" viewBox="0 0 24 24" fill="none" xmlns="http://www.w3.org/2000/svg">
<path fill-rule="evenodd" clip-rule="evenodd" d="M7.70496 19.2282L10.3175 19.873V19.0298L10.5308 18.8314H12.0237V19.8234V20.5179H10.4241L8.4514 19.7242L7.70496 19.2282Z" fill="#CDBDB2"/>
<path fill-rule="evenodd" clip-rule="evenodd" d="M16.2358 19.2282L13.6766 19.873V19.0298L13.4633 18.8314H11.9704V19.8234V20.5179H13.57L15.5427 19.7242L16.2358 19.2282Z" fill="#CDBDB2"/>
<path fill-rule="evenodd" clip-rule="evenodd" d="M10.5308 17.3929L10.3175 19.0298L10.5841 18.8313H13.3566L13.6765 19.0298L13.4632 17.3929L13.0367 17.1448L10.904 17.1944L10.5308 17.3929Z" fill="#393939"/>
<path fill-rule="evenodd" clip-rule="evenodd" d="M9.09119 6.33136L10.3708 9.10914L10.9573 17.1945H13.0367L13.6765 9.10914L14.8495 6.33136H9.09119Z" fill="#F89C35"/>
<path fill-rule="evenodd" clip-rule="evenodd" d="M3.49289 12.4326L2 16.4504L5.73223 16.252H8.13152V14.5159L8.02488 10.9445L7.49171 11.3413L3.49289 12.4326Z" fill="#F89D35"/>
<path fill-rule="evenodd" clip-rule="evenodd" d="M6.31873 12.879L10.6908 12.9782L10.2109 15.0615L8.13152 14.5655L6.31873 12.879Z" fill="#D87C30"/>
<path fill-rule="evenodd" clip-rule="evenodd" d="M6.31873 12.9286L8.13152 14.5159V16.1032L6.31873 12.9286Z" fill="#EA8D3A"/>
<path fill-rule="evenodd" clip-rule="evenodd" d="M8.13147 14.5655L10.2642 15.0615L10.9573 17.1945L10.4774 17.4425L8.13147 16.1528V14.5655Z" fill="#F89D35"/>
<path fill-rule="evenodd" clip-rule="evenodd" d="M8.1315 16.1528L7.70496 19.2282L10.5308 17.3929L8.1315 16.1528Z" fill="#EB8F35"/>
<path fill-rule="evenodd" clip-rule="evenodd" d="M10.6908 12.9781L10.9574 17.1944L10.1576 15.0367L10.6908 12.9781Z" fill="#EA8E3A"/>
<path fill-rule="evenodd" clip-rule="evenodd" d="M5.67896 16.2024L8.13156 16.1528L7.70502 19.2282L5.67896 16.2024Z" fill="#D87C30"/>
<path fill-rule="evenodd" clip-rule="evenodd" d="M3.17299 20.5675L7.70498 19.2282L5.67891 16.2024L2 16.4504L3.17299 20.5675Z" fill="#EB8F35"/>
<path fill-rule="evenodd" clip-rule="evenodd" d="M10.3709 9.10913L8.0782 10.8948L6.31873 12.879L10.6908 13.0278L10.3709 9.10913Z" fill="#E8821E"/>
<path fill-rule="evenodd" clip-rule="evenodd" d="M7.70496 19.2282L10.5308 17.3929L10.3175 18.9802V19.873L8.39808 19.5258L7.70496 19.2282Z" fill="#DFCEC3"/>
<path fill-rule="evenodd" clip-rule="evenodd" d="M16.2358 19.2282L13.4633 17.3929L13.6766 18.9802V19.873L15.596 19.5258L16.2358 19.2282Z" fill="#DFCEC3"/>
<path fill-rule="evenodd" clip-rule="evenodd" d="M9.51776 13.871L10.1042 15.0119L8.02486 14.5159L9.51776 13.871Z" fill="#393939"/>
<path fill-rule="evenodd" clip-rule="evenodd" d="M3.11963 4L10.3708 9.10913L9.14451 6.33135L3.11963 4Z" fill="#E88F35"/>
<path fill-rule="evenodd" clip-rule="evenodd" d="M3.11963 4L2.15991 6.72817L2.69309 9.70437L2.31986 9.90278L2.85304 10.3492L2.4265 10.6964L3.01299 11.1925L2.63977 11.4901L3.49285 12.4821L7.49166 11.3413C9.44664 9.88624 10.4064 9.1422 10.3708 9.10913C10.3353 9.07606 7.91821 7.37302 3.11963 4Z" fill="#8E5A30"/>
<path fill-rule="evenodd" clip-rule="evenodd" d="M20.4479 12.4326L21.9408 16.4504L18.2086 16.252H15.8093V14.5159L15.9159 10.9445L16.4491 11.3413L20.4479 12.4326Z" fill="#F89D35"/>
<path fill-rule="evenodd" clip-rule="evenodd" d="M17.6221 12.879L13.25 12.9782L13.7299 15.0615L15.8093 14.5655L17.6221 12.879Z" fill="#D87C30"/>
<path fill-rule="evenodd" clip-rule="evenodd" d="M17.6221 12.9286L15.8093 14.5159V16.1032L17.6221 12.9286Z" fill="#EA8D3A"/>
<path fill-rule="evenodd" clip-rule="evenodd" d="M15.8093 14.5655L13.6766 15.0615L12.9835 17.1945L13.4634 17.4425L15.8093 16.1528V14.5655Z" fill="#F89D35"/>
<path fill-rule="evenodd" clip-rule="evenodd" d="M15.8093 16.1528L16.2358 19.2282L13.4633 17.4425L15.8093 16.1528Z" fill="#EB8F35"/>
<path fill-rule="evenodd" clip-rule="evenodd" d="M13.25 12.9781L12.9834 17.1944L13.7832 15.0367L13.25 12.9781Z" fill="#EA8E3A"/>
<path fill-rule="evenodd" clip-rule="evenodd" d="M18.2618 16.2024L15.8092 16.1528L16.2358 19.2282L18.2618 16.2024Z" fill="#D87C30"/>
<path fill-rule="evenodd" clip-rule="evenodd" d="M20.7678 20.5675L16.2358 19.2282L18.2619 16.2024L21.9408 16.4504L20.7678 20.5675Z" fill="#EB8F35"/>
<path fill-rule="evenodd" clip-rule="evenodd" d="M13.5699 9.10913L15.8626 10.8948L17.6221 12.879L13.25 13.0278L13.5699 9.10913Z" fill="#E8821E"/>
<path fill-rule="evenodd" clip-rule="evenodd" d="M14.423 13.871L13.8365 15.0119L15.9159 14.5159L14.423 13.871Z" fill="#393939"/>
<path fill-rule="evenodd" clip-rule="evenodd" d="M20.8212 4L13.57 9.10913L14.7963 6.33135L20.8212 4Z" fill="#E88F35"/>
<path fill-rule="evenodd" clip-rule="evenodd" d="M20.8212 4L21.7809 6.72817L21.2477 9.70437L21.6209 9.90278L21.0878 10.3492L21.5143 10.6964L20.9278 11.1925L21.301 11.4901L20.4479 12.4821L16.4491 11.3413C14.4942 9.88624 13.5344 9.1422 13.57 9.10913C13.6055 9.07606 16.0226 7.37302 20.8212 4Z" fill="#8E5A30"/>
</svg>
