<svg width="24" height="24" viewBox="0 0 24 24" fill="none" xmlns="http://www.w3.org/2000/svg">
<path d="M12 24C18.6274 24 24 18.6274 24 12C24 5.37258 18.6274 0 12 0C5.37258 0 0 5.37258 0 12C0 18.6274 5.37258 24 12 24Z" fill="#6E2EF5"/>
<path fill-rule="evenodd" clip-rule="evenodd" d="M9.42854 13.4286L12 17.2857L14.5714 13.4286L12.8571 13.8571L15 8.28571L18.8571 7L16.7143 11.7143L18.8571 10.8571L13.7143 19H12H10.2857L5.14282 10.8571L7.28568 11.7143L5.14282 7L8.99997 8.28571L11.1428 13.8571L9.42854 13.4286Z" fill="white"/>
<path d="M23.5 12C23.5 18.3513 18.3513 23.5 12 23.5C5.64873 23.5 0.5 18.3513 0.5 12C0.5 5.64873 5.64873 0.5 12 0.5C18.3513 0.5 23.5 5.64873 23.5 12Z" stroke="black" stroke-opacity="0.097"/>
</svg>
