<svg width="24" height="24" viewBox="0 0 24 24" fill="none" xmlns="http://www.w3.org/2000/svg">
<circle cx="12" cy="12" r="8" fill="white"/>
<path d="M12 0C5.36757 0 0 5.34979 0 11.9603C0 18.5707 5.36757 23.9205 12 23.9205C18.6324 23.9205 24 18.5707 24 11.9603C24 5.34979 18.6324 0 12 0ZM12 18.9586C8.12432 18.9586 4.97838 15.8231 4.97838 11.9603C4.97838 8.09742 8.12432 4.96189 12 4.96189C15.8757 4.96189 19.0216 8.09742 19.0216 11.9603C19.0216 15.8231 15.8757 18.9586 12 18.9586Z" fill="url(#paint0_linear)"/>
<path d="M13.7023 14.2069H10.2969C10.005 14.2069 9.76172 13.9644 9.76172 13.6735V10.2632C9.76172 9.9723 10.005 9.72986 10.2969 9.72986H13.7185C14.0104 9.72986 14.2536 9.9723 14.2536 10.2632V13.6735C14.2536 13.9644 14.0104 14.2069 13.7023 14.2069Z" fill="#2059EB"/>
<defs>
<linearGradient id="paint0_linear" x1="12" y1="23.9205" x2="12" y2="0" gradientUnits="userSpaceOnUse">
<stop stop-color="#1447EA"/>
<stop offset="1" stop-color="#2B65FB"/>
</linearGradient>
</defs>
</svg>
