<svg width="24" height="24" viewBox="0 0 24 24" fill="none" xmlns="http://www.w3.org/2000/svg">
<path d="M4.9133 7.51C8.82718 3.67798 15.1728 3.67798 19.0867 7.51L19.5578 7.97119C19.7535 8.16279 19.7535 8.47344 19.5578 8.66504L17.9464 10.2427C17.8486 10.3385 17.6899 10.3385 17.5921 10.2427L16.9439 9.60803C14.2135 6.93471 9.78657 6.93471 7.05614 9.60803L6.36196 10.2877C6.26412 10.3835 6.10547 10.3835 6.00763 10.2877L4.39629 8.71005C4.20059 8.51845 4.20059 8.2078 4.39629 8.0162L4.9133 7.51ZM22.4191 10.7727L23.8532 12.1768C24.0489 12.3684 24.0489 12.6791 23.8532 12.8707L17.3868 19.202C17.1911 19.3936 16.8738 19.3936 16.6781 19.202L12.0886 14.7085C12.0397 14.6606 11.9604 14.6606 11.9115 14.7085L7.32207 19.202C7.12638 19.3936 6.80909 19.3936 6.6134 19.202H6.61339L0.146771 12.8706C-0.0489236 12.679 -0.0489236 12.3683 0.146771 12.1767L1.58087 10.7726C1.77656 10.581 2.09385 10.581 2.28954 10.7726L6.8791 15.2662C6.92802 15.3141 7.00734 15.3141 7.05626 15.2662C7.05626 15.2662 7.05626 15.2662 7.05627 15.2662L11.6456 10.7726C11.8413 10.581 12.1586 10.581 12.3543 10.7726L16.9438 15.2662C16.9927 15.3141 17.0721 15.3141 17.121 15.2662L21.7105 10.7727C21.9062 10.5811 22.2234 10.5811 22.4191 10.7727Z" fill="#3B99FC"/>
</svg>
