<svg width="25" height="24" viewBox="0 0 25 24" fill="none" xmlns="http://www.w3.org/2000/svg">
<path d="M21.0558 3.46387L13.6426 8.96979L15.0134 5.72137L21.0558 3.46387Z" fill="#E2761B" stroke="#E2761B" stroke-width="0.234554" stroke-linecap="round" stroke-linejoin="round"/>
<path d="M3.93701 3.46387L11.2906 9.02195L9.98683 5.72137L3.93701 3.46387Z" fill="#E4761B" stroke="#E4761B" stroke-width="0.234554" stroke-linecap="round" stroke-linejoin="round"/>
<path d="M18.3831 16.2266L16.4087 19.2515L20.6331 20.4138L21.8475 16.2936L18.3831 16.2266Z" fill="#E4761B" stroke="#E4761B" stroke-width="0.234554" stroke-linecap="round" stroke-linejoin="round"/>
<path d="M3.15466 16.2936L4.36165 20.4138L8.58609 19.2515L6.6117 16.2266L3.15466 16.2936Z" fill="#E4761B" stroke="#E4761B" stroke-width="0.234554" stroke-linecap="round" stroke-linejoin="round"/>
<path d="M8.34882 11.1156L7.17163 12.8962L11.3663 13.0825L11.2173 8.57495L8.34882 11.1156Z" fill="#E4761B" stroke="#E4761B" stroke-width="0.234554" stroke-linecap="round" stroke-linejoin="round"/>
<path d="M16.6373 11.1157L13.7316 8.52295L13.6348 13.0827L17.8219 12.8964L16.6373 11.1157Z" fill="#E4761B" stroke="#E4761B" stroke-width="0.234554" stroke-linecap="round" stroke-linejoin="round"/>
<path d="M8.58484 19.2516L11.1031 18.0222L8.92756 16.3235L8.58484 19.2516Z" fill="#E4761B" stroke="#E4761B" stroke-width="0.234554" stroke-linecap="round" stroke-linejoin="round"/>
<path d="M13.8838 18.0222L16.4096 19.2516L16.0593 16.3235L13.8838 18.0222Z" fill="#E4761B" stroke="#E4761B" stroke-width="0.234554" stroke-linecap="round" stroke-linejoin="round"/>
<path d="M16.411 19.2518L13.8853 18.0225L14.0864 19.669L14.0641 20.3619L16.411 19.2518Z" fill="#D7C1B3" stroke="#D7C1B3" stroke-width="0.234554" stroke-linecap="round" stroke-linejoin="round"/>
<path d="M8.58948 19.2518L10.9364 20.362L10.9215 19.669L11.1078 18.0225L8.58948 19.2518Z" fill="#D7C1B3" stroke="#D7C1B3" stroke-width="0.234554" stroke-linecap="round" stroke-linejoin="round"/>
<path d="M10.9704 15.236L8.86938 14.6177L10.352 13.9397L10.9704 15.236Z" fill="#233447" stroke="#233447" stroke-width="0.234554" stroke-linecap="round" stroke-linejoin="round"/>
<path d="M14.0198 15.236L14.6382 13.9397L16.1283 14.6177L14.0198 15.236Z" fill="#233447" stroke="#233447" stroke-width="0.234554" stroke-linecap="round" stroke-linejoin="round"/>
<path d="M8.58792 19.2515L8.94554 16.2266L6.61353 16.2936L8.58792 19.2515Z" fill="#CD6116" stroke="#CD6116" stroke-width="0.234554" stroke-linecap="round" stroke-linejoin="round"/>
<path d="M16.0531 16.2266L16.4107 19.2515L18.3851 16.2936L16.0531 16.2266Z" fill="#CD6116" stroke="#CD6116" stroke-width="0.234554" stroke-linecap="round" stroke-linejoin="round"/>
<path d="M17.8266 12.8962L13.6394 13.0825L14.0268 15.2357L14.6452 13.9393L16.1353 14.6173L17.8266 12.8962Z" fill="#CD6116" stroke="#CD6116" stroke-width="0.234554" stroke-linecap="round" stroke-linejoin="round"/>
<path d="M8.87035 14.6173L10.3605 13.9393L10.9714 15.2357L11.3663 13.0825L7.17163 12.8962L8.87035 14.6173Z" fill="#CD6116" stroke="#CD6116" stroke-width="0.234554" stroke-linecap="round" stroke-linejoin="round"/>
<path d="M7.17163 12.8962L8.92996 16.3235L8.87035 14.6173L7.17163 12.8962Z" fill="#E4751F" stroke="#E4751F" stroke-width="0.234554" stroke-linecap="round" stroke-linejoin="round"/>
<path d="M16.1354 14.6173L16.0608 16.3235L17.8266 12.8962L16.1354 14.6173Z" fill="#E4751F" stroke="#E4751F" stroke-width="0.234554" stroke-linecap="round" stroke-linejoin="round"/>
<path d="M11.3672 13.0825L10.9723 15.2357L11.4641 17.7763L11.5758 14.431L11.3672 13.0825Z" fill="#E4751F" stroke="#E4751F" stroke-width="0.234554" stroke-linecap="round" stroke-linejoin="round"/>
<path d="M13.638 13.0825L13.4369 14.4236L13.5263 17.7763L14.0255 15.2357L13.638 13.0825Z" fill="#E4751F" stroke="#E4751F" stroke-width="0.234554" stroke-linecap="round" stroke-linejoin="round"/>
<path d="M14.0305 15.2358L13.5312 17.7765L13.8889 18.0223L16.0645 16.3236L16.139 14.6174L14.0305 15.2358Z" fill="#F6851B" stroke="#F6851B" stroke-width="0.234554" stroke-linecap="round" stroke-linejoin="round"/>
<path d="M8.86938 14.6174L8.92899 16.3236L11.1046 18.0223L11.4622 17.7765L10.9704 15.2358L8.86938 14.6174Z" fill="#F6851B" stroke="#F6851B" stroke-width="0.234554" stroke-linecap="round" stroke-linejoin="round"/>
<path d="M14.0656 20.3618L14.088 19.669L13.9017 19.505H11.0928L10.9215 19.669L10.9364 20.3618L8.58948 19.2517L9.40903 19.9223L11.0705 21.0771H13.924L15.593 19.9223L16.4125 19.2517L14.0656 20.3618Z" fill="#C0AD9E" stroke="#C0AD9E" stroke-width="0.234554" stroke-linecap="round" stroke-linejoin="round"/>
<path d="M13.885 18.0223L13.5274 17.7764H11.4635L11.106 18.0223L10.9197 19.6688L11.0911 19.505H13.8999L14.0861 19.6688L13.885 18.0223Z" fill="#161616" stroke="#161616" stroke-width="0.234554" stroke-linecap="round" stroke-linejoin="round"/>
<path d="M21.3655 9.32743L21.9989 6.28761L21.0527 3.46387L13.8853 8.78353L16.642 11.1155L20.5386 12.2555L21.4028 11.2496L21.0303 10.9814L21.6263 10.4376L21.1644 10.0799L21.7604 9.62545L21.3655 9.32743Z" fill="#763D16" stroke="#763D16" stroke-width="0.234554" stroke-linecap="round" stroke-linejoin="round"/>
<path d="M3 6.28786L3.63329 9.32767L3.23097 9.62569L3.827 10.0802L3.37253 10.4378L3.96857 10.9817L3.59604 11.2499L4.45285 12.2557L8.34947 11.1158L11.1062 8.78379L3.93876 3.46411L3 6.28786Z" fill="#763D16" stroke="#763D16" stroke-width="0.234554" stroke-linecap="round" stroke-linejoin="round"/>
<path d="M20.5386 12.2557L16.6419 11.1157L17.8266 12.8964L16.0608 16.3236L18.3854 16.2939H21.8499L20.5386 12.2557Z" fill="#F6851B" stroke="#F6851B" stroke-width="0.234554" stroke-linecap="round" stroke-linejoin="round"/>
<path d="M8.34767 11.1157L4.45106 12.2557L3.15466 16.2939H6.6117L8.92881 16.3236L7.17049 12.8964L8.34767 11.1157Z" fill="#F6851B" stroke="#F6851B" stroke-width="0.234554" stroke-linecap="round" stroke-linejoin="round"/>
<path d="M13.6381 13.0828L13.8839 8.78384L15.0164 5.72168H9.9873L11.1049 8.78384L11.3657 13.0828L11.4551 14.4388L11.4625 17.7766H13.5263L13.5412 14.4388L13.6381 13.0828Z" fill="#F6851B" stroke="#F6851B" stroke-width="0.234554" stroke-linecap="round" stroke-linejoin="round"/>
</svg>
