<svg width="24" height="24" viewBox="0 0 24 24" fill="none" xmlns="http://www.w3.org/2000/svg">
<path d="M12 2.66666C6.84574 2.66666 2.66663 6.84577 2.66663 12C2.66663 17.1542 6.84574 21.3333 12 21.3333C17.1542 21.3333 21.3333 17.1542 21.3333 12C21.3333 6.84577 17.1542 2.66666 12 2.66666Z" fill="#F0AE2B" stroke="white" stroke-width="2"/>
<path d="M15.2673 14.9779L12.4383 12.6842V7.17798C12.4383 7.08009 12.3669 7 12.2796 7H11.3253C11.238 7 11.1666 7.08009 11.1666 7.17798V13.3049C11.1666 13.3628 11.1904 13.4162 11.2321 13.4495L14.5134 16.1326C14.5848 16.1904 14.684 16.1726 14.7356 16.0947L15.303 15.2271C15.3546 15.1448 15.3387 15.0335 15.2673 14.9779Z" fill="white"/>
</svg>
