<svg width="24" height="24" viewBox="0 0 24 24" fill="none" xmlns="http://www.w3.org/2000/svg">
<path d="M18.54 8.99978L8.87997 3.45978C8.35725 3.15794 7.76397 2.99982 7.16036 3.00148C6.55676 3.00314 5.96435 3.16451 5.4433 3.46922C4.92225 3.77393 4.49112 4.21111 4.19372 4.73636C3.89631 5.26161 3.74321 5.85621 3.74997 6.45978V17.5798C3.74997 18.4868 4.11029 19.3567 4.75167 19.9981C5.39304 20.6395 6.26293 20.9998 7.16997 20.9998C7.77041 20.9988 8.36006 20.8401 8.87997 20.5398L18.54 14.9998C19.059 14.6994 19.49 14.2678 19.7896 13.7482C20.0891 13.2287 20.2468 12.6395 20.2468 12.0398C20.2468 11.4401 20.0891 10.8509 19.7896 10.3313C19.49 9.81181 19.059 9.38019 18.54 9.07978V8.99978ZM17.54 13.1898L7.87997 18.8098C7.66346 18.9325 7.41884 18.997 7.16997 18.997C6.9211 18.997 6.67648 18.9325 6.45997 18.8098C6.24407 18.6851 6.06479 18.5058 5.94015 18.2899C5.81552 18.074 5.74993 17.8291 5.74997 17.5798V6.41978C5.74993 6.17048 5.81552 5.92556 5.94015 5.70964C6.06479 5.49373 6.24407 5.31443 6.45997 5.18978C6.67738 5.06894 6.92127 5.00367 7.16997 4.99978C7.4185 5.00488 7.66211 5.07007 7.87997 5.18978L17.54 10.7698C17.756 10.8944 17.9353 11.0737 18.06 11.2896C18.1847 11.5055 18.2504 11.7504 18.2504 11.9998C18.2504 12.2491 18.1847 12.4941 18.06 12.71C17.9353 12.9259 17.756 13.1052 17.54 13.2298V13.1898Z" fill="white"/>
</svg>
