<svg width="24" height="24" viewBox="0 0 24 24" fill="none" xmlns="http://www.w3.org/2000/svg">
<path d="M12 24C18.6274 24 24 18.6274 24 12C24 5.37258 18.6274 0 12 0C5.37258 0 0 5.37258 0 12C0 18.6274 5.37258 24 12 24Z" fill="url(#paint0_linear)"/>
<path d="M17.0768 8.17405C15.0169 6.36328 11.868 6.44588 9.90794 8.36246C9.86802 8.40149 9.83664 8.44838 9.81578 8.50016C9.79493 8.55194 9.78506 8.60749 9.78679 8.66329C9.78847 8.7207 9.80195 8.77714 9.8264 8.82911C9.85085 8.88107 9.88575 8.92745 9.92891 8.96533C10.0073 9.0346 10.1091 9.07134 10.2137 9.06803C10.3182 9.06472 10.4176 9.02161 10.4914 8.94752C12.1441 7.33705 14.7966 7.27019 16.531 8.79444C17.6576 9.78704 18.3445 11.186 18.441 12.6844C18.5374 14.1828 18.0356 15.6583 17.0456 16.7872C16.9432 16.9036 16.8358 17.0182 16.7263 17.1274C14.0578 19.7962 9.74549 19.9333 6.90833 17.4398C5.80054 16.4642 4.94697 15.2335 4.42141 13.854C3.89584 12.4746 3.71408 10.9879 3.89183 9.52252C3.90412 9.41373 3.87269 9.30451 3.80445 9.2189C3.73621 9.13328 3.63675 9.07828 3.52796 9.066C3.41917 9.05371 3.30995 9.08514 3.22434 9.15338C3.13872 9.22162 3.08372 9.32108 3.07143 9.42987C2.87863 11.0276 3.07754 12.6482 3.65098 14.1518C4.22443 15.6555 5.15518 16.997 6.36291 18.0605C7.89225 19.4002 9.87314 20.1094 11.9052 20.0447C13.9374 19.9801 15.8691 19.1464 17.3102 17.7122C17.4308 17.5915 17.5503 17.4639 17.6658 17.333C18.8003 16.0395 19.3754 14.3488 19.2649 12.6318C19.1544 10.9148 18.3674 9.31169 17.0764 8.17428L17.0768 8.17405Z" fill="white"/>
<path d="M10.5561 18.3697C10.9653 18.4591 11.3828 18.5042 11.8016 18.5043C12.5619 18.5041 13.3147 18.3539 14.0168 18.0621C14.7189 17.7704 15.3564 17.343 15.893 16.8043C16.6673 16.031 17.2025 15.051 17.4346 13.9816C17.9463 11.6308 16.5381 9.22661 14.2284 8.50886C14.1727 8.49137 14.114 8.48568 14.056 8.49214C13.9981 8.49861 13.9421 8.5171 13.8916 8.54643C13.8422 8.57489 13.7993 8.61347 13.7658 8.65965C13.7323 8.70583 13.7089 8.75856 13.6972 8.8144C13.6755 8.91646 13.693 9.02298 13.7464 9.11265C13.7998 9.20231 13.8851 9.26851 13.9852 9.29801C15.888 9.89088 17.0486 11.871 16.6276 13.806C16.4906 14.4391 16.2289 15.0386 15.8577 15.5694C15.4865 16.1002 15.0132 16.5518 14.4656 16.8976C13.9175 17.2485 13.3056 17.4878 12.6649 17.6019C12.0242 17.716 11.3673 17.7026 10.7318 17.5625C9.92281 17.389 9.15603 17.0576 8.47542 16.5872C7.79481 16.1168 7.21376 15.5166 6.76559 14.8211C6.31586 14.1317 6.00803 13.3596 5.86009 12.5498C5.71214 11.7401 5.72705 10.909 5.90395 10.1051C6.80948 5.94736 10.8248 3.26076 15.0448 3.99011C15.1528 4.00839 15.2637 3.98302 15.353 3.91958C15.4423 3.85613 15.5027 3.75981 15.521 3.6518C15.5393 3.5438 15.5139 3.43295 15.4505 3.34365C15.387 3.25435 15.2907 3.19391 15.1827 3.17563C12.9547 2.78866 10.6632 3.27495 8.78442 4.53346C6.8992 5.78301 5.57604 7.71893 5.09653 9.92925C4.89608 10.8397 4.87909 11.781 5.04656 12.6981C5.21402 13.6151 5.56257 14.4897 6.07185 15.2705C6.57861 16.0568 7.23558 16.7352 8.00509 17.2671C8.7746 17.7989 9.64152 18.1736 10.5561 18.3697V18.3697Z" fill="white"/>
<path d="M13.6743 5.06799C12.8413 5.00067 12.0032 5.10251 11.2105 5.36737C10.4179 5.63223 9.68692 6.05466 9.06167 6.60925C7.76843 7.74216 6.97014 9.33637 6.83771 11.0506C6.59949 13.9622 8.70547 16.5191 11.5323 16.7505C11.6468 16.7596 11.7606 16.7642 11.8735 16.7643C13.8974 16.7643 15.6456 15.285 16.0147 13.2006C16.0249 13.1429 16.0231 13.0837 16.0092 13.0268C15.9954 12.9698 15.9698 12.9163 15.9343 12.8698C15.8994 12.8243 15.8554 12.7866 15.805 12.7593C15.7546 12.732 15.6991 12.7157 15.6419 12.7114C15.5383 12.7037 15.4356 12.735 15.354 12.7993C15.2723 12.8635 15.2177 12.956 15.2009 13.0585C14.8857 14.8358 13.3381 16.0731 11.5997 15.9267C9.22728 15.7326 7.46039 13.575 7.66104 11.1175C7.90454 8.14016 10.3313 5.87334 13.1698 5.87334C13.3144 5.87334 13.4601 5.87939 13.6068 5.8915C17.3222 6.19514 20.1281 9.45077 19.9941 13.3027C19.9903 13.4086 20.0274 13.512 20.0978 13.5912C20.1683 13.6705 20.2666 13.7195 20.3722 13.728V13.7283C20.428 13.7327 20.4841 13.7258 20.5372 13.7081C20.5903 13.6903 20.6393 13.662 20.6812 13.6249C20.7232 13.5878 20.7572 13.5424 20.7811 13.4917C20.8049 13.4409 20.8181 13.3858 20.8198 13.3297C20.9688 9.03667 17.8299 5.4076 13.6743 5.06799Z" fill="white"/>
<path d="M23.5 12C23.5 18.3513 18.3513 23.5 12 23.5C5.64873 23.5 0.5 18.3513 0.5 12C0.5 5.64873 5.64873 0.5 12 0.5C18.3513 0.5 23.5 5.64873 23.5 12Z" stroke="black" stroke-opacity="0.097"/>
<defs>
<linearGradient id="paint0_linear" x1="12" y1="0" x2="12" y2="24" gradientUnits="userSpaceOnUse">
<stop stop-color="#E17F14"/>
<stop offset="0.296" stop-color="#E07C14"/>
<stop offset="0.474" stop-color="#DF7414"/>
<stop offset="0.621" stop-color="#DC6515"/>
<stop offset="0.75" stop-color="#D95116"/>
<stop offset="0.869" stop-color="#D53718"/>
<stop offset="0.978" stop-color="#D0171A"/>
<stop offset="1" stop-color="#CF101B"/>
</linearGradient>
</defs>
</svg>
