<svg width="24" height="24" viewBox="0 0 24 24" fill="none" xmlns="http://www.w3.org/2000/svg">
<path d="M11.7301 2.06015C12.2096 1.81012 12.7949 2.39016 12.5402 2.86921C12.3922 3.25971 11.8312 3.36355 11.5447 3.06589C11.2411 2.78022 11.3401 2.21559 11.7301 2.06015ZM6.57275 2.6161C6.86403 2.4962 7.23275 2.76306 7.20305 3.08052C7.23396 3.42515 6.81255 3.67881 6.51566 3.51502C6.1223 3.36267 6.16729 2.72412 6.57275 2.6161ZM17.1356 3.5247C16.6805 3.4697 16.6084 2.75404 17.0467 2.60994C17.3866 2.44417 17.6984 2.75503 17.7481 3.07722C17.6768 3.35233 17.4465 3.60423 17.1356 3.5247ZM7.74623 4.81115C8.2332 4.50315 8.92808 4.96185 8.85317 5.52748C8.82787 6.0986 8.0693 6.42948 7.64129 6.04338C7.22747 5.74011 7.29017 5.04435 7.74623 4.81115ZM15.1802 5.13796C15.3974 4.57806 16.2777 4.56112 16.525 5.10617C16.7695 5.53034 16.4688 6.05559 16.0333 6.1998C15.4565 6.30749 14.9086 5.6839 15.1802 5.13796ZM11.1091 6.16801C11.1043 5.68676 11.5427 5.32815 12.0001 5.29537C12.3034 5.3562 12.6341 5.48546 12.7642 5.79159C13.0068 6.21388 12.7914 6.79534 12.3532 6.98916C12.1527 7.10147 11.9158 7.05934 11.6976 7.04625C11.3639 6.88246 11.083 6.56126 11.1091 6.16801ZM3.43928 6.86926C3.88412 6.5958 4.48428 7.09487 4.31587 7.5781C4.22314 7.9961 3.66126 8.16616 3.34006 7.8993C2.99719 7.64927 3.05153 7.04812 3.43928 6.86926ZM19.9091 6.86838C20.2865 6.57534 20.9093 6.9115 20.8643 7.38802C20.8896 7.82252 20.3512 8.15021 19.9765 7.92647C19.5639 7.74101 19.5218 7.1062 19.9091 6.86838ZM13.2659 7.73353C13.8888 7.50979 14.6285 7.77753 14.9835 8.33281C15.4518 9.01163 15.2026 10.0454 14.4759 10.4349C13.723 10.8956 12.6235 10.5051 12.3455 9.66426C12.0298 8.91153 12.4897 7.96948 13.2659 7.73353ZM9.61173 7.80756C10.302 7.48174 11.2309 7.75509 11.5643 8.46118C11.9567 9.14847 11.6533 10.1055 10.9519 10.4603C10.2495 10.8592 9.25863 10.5568 8.91873 9.81892C8.53758 9.10535 8.87605 8.13613 9.61173 7.80756ZM5.95279 9.05849C6.00526 8.61376 6.4248 8.32434 6.84808 8.29442C7.30414 8.34942 7.66846 8.70363 7.71807 9.16519C7.68815 9.62213 7.33505 10.0687 6.85083 10.066C6.3181 10.1118 5.85104 9.58187 5.95279 9.05849ZM16.7601 8.39111C17.307 8.07277 18.0665 8.53621 18.0422 9.16453C18.0797 9.83025 17.2392 10.2994 16.6945 9.9089C16.1288 9.58374 16.1729 8.66799 16.7601 8.39111ZM8.12463 10.7374C8.76429 10.5614 9.49568 10.8629 9.8094 11.4509C10.153 12.0427 10.0126 12.8648 9.47885 13.2989C8.79432 13.9356 7.53184 13.6799 7.16752 12.811C6.74886 12.0145 7.25739 10.9471 8.12463 10.7374ZM15.0556 10.7341C15.6775 10.5563 16.408 10.7959 16.7423 11.3624C17.1843 12.0103 16.9733 12.9767 16.3153 13.3944C15.626 13.8794 14.5583 13.6247 14.1791 12.8664C13.7193 12.082 14.1819 10.9734 15.0556 10.7341ZM4.01051 11.4733C4.56304 11.2643 5.17552 11.8741 4.95167 12.4219C4.81494 12.9209 4.1116 13.1054 3.74827 12.7374C3.32312 12.3919 3.48053 11.6231 4.01051 11.4733ZM18.9871 12.2683C18.9711 11.8105 19.3061 11.405 19.7755 11.3797C20.1539 11.4397 20.5219 11.7449 20.492 12.1569C20.5266 12.7009 19.871 13.0707 19.4075 12.8151C19.1902 12.7047 19.0788 12.4818 18.9871 12.2683ZM1.29372 11.7421C1.62614 11.597 2.03732 11.8851 1.96142 12.2542C1.9436 12.6722 1.3265 12.8329 1.09979 12.4837C0.899481 12.2411 1.01938 11.8671 1.29372 11.7421ZM22.2535 11.7337C22.4876 11.567 22.8631 11.6868 22.9559 11.9603C23.1132 12.2589 22.8247 12.6681 22.4886 12.6177C22.0167 12.6607 21.864 11.9415 22.2535 11.7337ZM9.93018 13.7402C10.8049 13.5127 11.7452 14.2421 11.7507 15.1428C11.8078 16.053 10.8817 16.86 9.98628 16.6498C9.29416 16.5384 8.75109 15.8717 8.77353 15.1723C8.77166 14.5034 9.27645 13.8817 9.93018 13.7402ZM13.3943 13.7383C14.2821 13.4902 15.2505 14.2327 15.2364 15.1542C15.2832 16.0475 14.3861 16.8274 13.5094 16.6502C12.6844 16.5435 12.0756 15.6371 12.306 14.8365C12.4222 14.303 12.868 13.8691 13.3943 13.7383ZM6.7152 14.2927C7.32955 14.1879 7.90551 14.8733 7.65636 15.4567C7.47464 16.0783 6.57 16.2469 6.17004 15.7391C5.70089 15.2515 6.05113 14.3601 6.7152 14.2927ZM16.8743 14.3201C17.4221 14.0907 18.0945 14.5646 18.0524 15.1591C18.0744 15.8136 17.2442 16.2649 16.7085 15.8829C16.1017 15.5399 16.2122 14.5306 16.8743 14.3201ZM19.7138 17.1683C19.4993 16.7684 19.889 16.2384 20.3329 16.3125C20.5539 16.3087 20.7085 16.4828 20.8499 16.6289C20.879 16.8659 20.9277 17.1486 20.731 17.3312C20.4639 17.6692 19.8589 17.5727 19.7138 17.1683ZM3.43741 16.4238C3.85233 16.1476 4.44941 16.5595 4.35613 17.0446C4.30652 17.4736 3.76609 17.7188 3.41013 17.4754C3.0281 17.2544 3.04218 16.6252 3.43741 16.4238ZM11.6346 17.3218C12.1778 17.0821 12.8698 17.555 12.8183 18.1533C12.8586 18.8144 12.0027 19.2722 11.4716 18.8752C10.8817 18.5344 10.98 17.5315 11.6346 17.3218ZM7.83797 18.2075C8.30063 17.9641 8.92148 18.3845 8.87935 18.9023C8.89343 19.3275 8.4785 19.6898 8.05896 19.627C7.71147 19.6195 7.48487 19.308 7.37344 19.0118C7.37916 18.6889 7.51204 18.3293 7.83797 18.2075ZM15.5285 18.215C16.0043 17.921 16.6805 18.3433 16.6355 18.897C16.6477 19.4757 15.8835 19.8464 15.4405 19.4663C15.0116 19.1683 15.064 18.452 15.5285 18.215ZM16.8659 21.5213C16.6543 21.2011 16.9034 20.8153 17.2471 20.7423C17.5234 20.7985 17.8156 21.0063 17.7575 21.3266C17.7172 21.7601 17.0832 21.8931 16.8659 21.5213ZM6.24968 21.2432C6.33394 20.9895 6.5381 20.7372 6.83686 20.8032C7.27235 20.8341 7.4016 21.4905 7.02045 21.6928C6.67769 21.9239 6.28004 21.6074 6.24968 21.2432ZM11.3714 21.5344C11.4548 21.159 11.9408 20.9764 12.2611 21.1758C12.4727 21.2667 12.5345 21.5035 12.5889 21.7048C12.5598 21.8096 12.5339 21.9146 12.5084 22.0194C12.3772 22.1748 12.2087 22.3302 11.9905 22.3246C11.5849 22.3722 11.2191 21.9137 11.3714 21.5344Z" fill="#3770CC"/>
</svg>
