<svg width="24" height="24" viewBox="0 0 24 24" fill="none" xmlns="http://www.w3.org/2000/svg">
<path fill-rule="evenodd" clip-rule="evenodd" d="M14.8174 18.2618L18.254 8.38109C19.1253 5.87609 17.8009 3.13909 15.2959 2.26783C12.7909 1.39656 10.0539 2.72096 9.18265 5.22596L5.74602 15.1067C4.87476 17.6117 6.19916 20.3487 8.70415 21.22C11.2091 22.0912 13.9461 20.7668 14.8174 18.2618Z" fill="#5FBCD3"/>
<path fill-rule="evenodd" clip-rule="evenodd" d="M10.7617 18.7358L19.0722 12.3817C21.1791 10.7708 21.5812 7.7569 19.9703 5.64999C18.3594 3.54308 15.3455 3.14101 13.2386 4.75192L4.92809 11.106C2.82118 12.717 2.4191 15.7308 4.03002 17.8378C5.64094 19.9447 8.65483 20.3467 10.7617 18.7358Z" fill="#2C89A0"/>
<path fill-rule="evenodd" clip-rule="evenodd" d="M6.26154 7.5616L16.6562 6.38282C19.2915 6.08397 21.6701 7.97804 21.969 10.6133C22.2678 13.2486 20.3738 15.6272 17.7385 15.9261L7.34376 17.1049C4.70846 17.4037 2.32987 15.5096 2.03102 12.8743C1.73217 10.239 3.62624 7.86044 6.26154 7.5616Z" fill="#164450"/>
<path d="M15.2009 8.73487C14.7351 8.73653 14.2949 8.82412 13.8802 8.99776C13.4622 9.1714 13.0564 9.43617 12.6626 9.79203C12.4725 9.38839 12.0844 9.10332 11.7407 8.9747C11.4095 8.85096 10.9923 8.78996 10.4893 8.79174C10.1382 8.79291 9.77372 8.81958 9.3958 8.87156C9.02125 8.92014 8.63667 8.99241 8.24203 9.08833L7.97851 10.4717C8.29529 10.3153 8.62742 10.1976 8.97485 10.1188C9.32567 10.0399 9.69348 9.99977 10.0783 9.99841C10.4834 9.99694 10.7909 10.0533 11.0006 10.1673C11.2103 10.278 11.3155 10.4447 11.3163 10.6675C11.3163 10.6844 11.3147 10.703 11.3114 10.7232C11.3115 10.7435 11.3065 10.7756 11.2965 10.8195L11.2667 10.9664L10.2286 10.9701C9.16187 10.9739 8.34895 11.1692 7.78992 11.556C7.23425 11.9395 6.95771 12.4958 6.96028 13.225C6.96197 13.701 7.12534 14.0751 7.45039 14.3474C7.77543 14.6197 8.22491 14.7548 8.79881 14.7528C9.26467 14.7511 9.70488 14.6635 10.1195 14.4899C10.5375 14.3162 10.9434 14.0515 11.3371 13.6956C11.5272 14.0992 11.9154 14.3843 12.259 14.513C12.5903 14.6367 13.0074 14.6976 13.5104 14.6959C13.8615 14.6947 14.226 14.668 14.6039 14.6161C14.9785 14.5675 15.3631 14.4952 15.7577 14.3993L16.0212 13.0159C15.7044 13.1723 15.3723 13.29 15.0249 13.3689C14.6741 13.4478 14.3063 13.4879 13.9214 13.4892C13.5163 13.4907 13.2089 13.4344 12.9992 13.3203C12.7895 13.2097 12.6842 13.043 12.6834 12.8201C12.6834 12.8033 12.685 12.7847 12.6883 12.7644C12.6883 12.7442 12.6932 12.7121 12.7032 12.6682L12.733 12.5212L13.7711 12.5175C14.8379 12.5137 15.6508 12.3184 16.2098 11.9316C16.7655 11.5482 17.042 10.9919 17.0395 10.2627C17.0378 9.7867 16.8744 9.41254 16.5493 9.14024C16.2243 8.86794 15.7748 8.73284 15.2009 8.73487H15.2009ZM14.4051 9.94286C14.6448 9.94198 14.8341 10.0004 14.9729 10.1181C15.1084 10.2358 15.1765 10.3976 15.1772 10.6035C15.1782 10.8769 15.0641 11.0832 14.835 11.2225C14.6026 11.3651 14.2602 11.4372 13.8078 11.4388L12.9368 11.4419L12.9766 11.2341C13.0596 10.8253 13.2256 10.5074 13.4746 10.2804C13.7236 10.0567 14.0338 9.94418 14.4051 9.94286V9.94286ZM10.1919 12.0489L11.0629 12.0458L11.0231 12.2535C10.9401 12.6623 10.7742 12.9802 10.5252 13.2073C10.2761 13.431 9.96596 13.5435 9.59462 13.5448C9.35493 13.5457 9.16566 13.4872 9.02683 13.3696C8.89138 13.2519 8.82329 13.0901 8.82256 12.8842C8.82168 12.6107 8.93568 12.4044 9.16474 12.2651C9.39717 12.1225 9.73956 12.0505 10.1919 12.0489L10.1919 12.0489Z" fill="white"/>
</svg>
