<svg width="24" height="24" viewBox="0 0 24 24" fill="none" xmlns="http://www.w3.org/2000/svg">
<path d="M11.9462 18.5104C8.33679 18.5104 5.40055 15.5896 5.40055 12.0005C5.40055 8.41041 8.3377 5.49053 11.9462 5.49053C15.5556 5.49053 18.4919 8.41041 18.4919 12.0005C18.4919 15.5896 15.5556 18.5104 11.9462 18.5104ZM11.9462 6.76512C9.04463 6.76512 6.68305 9.11345 6.68305 12.0005C6.68305 14.8866 9.04463 17.2349 11.9462 17.2349C14.8487 17.2349 17.2094 14.8866 17.2094 12.0005C17.2094 9.11345 14.8487 6.76512 11.9462 6.76512ZM16.5298 4.56015C15.1489 3.71851 13.5629 3.27433 11.9462 3.27642C10.458 3.2758 8.99388 3.65208 7.69007 4.37024L7.06615 3.25633C8.56083 2.43198 10.2397 1.99978 11.9462 2C13.807 2 15.624 2.50947 17.2011 3.47364L16.5298 4.56015ZM18.4408 19.6343L17.6116 18.6601C19.5798 17.0092 20.717 14.5708 20.7175 12.0005H22C22 14.9459 20.7029 17.7279 18.4408 19.6334V19.6343ZM11.9462 21.9991C9.61381 21.9991 7.34071 21.1865 5.5465 19.7119L6.36379 18.7295C7.93886 20.0194 9.91116 20.7242 11.9462 20.7245C13.3692 20.7245 14.7265 20.3958 15.9798 19.7494L16.5699 20.8815C15.1392 21.6164 13.5543 21.9998 11.9462 22V21.9991Z" fill="#00BFEC"/>
<path opacity="0.5" d="M20.5013 9.63114C20.166 8.42719 19.5762 7.30938 18.7719 6.35335L19.5928 5.67223C20.4945 6.74406 21.1556 7.99734 21.5312 9.34719L20.5022 9.63114H20.5013ZM3.63551 17.4385C2.5665 15.8269 1.99747 13.9349 2.00001 12.0005C2.00001 9.29606 3.07636 6.77061 5.03111 4.88885L5.77361 5.65306C4.03937 7.3073 3.06105 9.60259 3.06815 12.0005C3.06815 13.7343 3.57348 15.4125 4.5276 16.8542L3.63551 17.4385Z" fill="#00BFEC"/>
</svg>
