<svg width="24" height="24" viewBox="0 0 24 24" fill="none" xmlns="http://www.w3.org/2000/svg">
<path d="M12 22C17.5228 22 22 17.5228 22 12C22 6.47715 17.5228 2 12 2C6.47715 2 2 6.47715 2 12C2 17.5228 6.47715 22 12 22Z" fill="#2E3148"/>
<path d="M11.9999 17.8024C15.2046 17.8024 17.8024 15.2046 17.8024 11.9999C17.8024 8.79533 15.2046 6.19748 11.9999 6.19748C8.79533 6.19748 6.19748 8.79533 6.19748 11.9999C6.19748 15.2046 8.79533 17.8024 11.9999 17.8024Z" fill="#1B1E36"/>
<path d="M12.0206 3.27576C10.9412 3.27576 10.0659 7.19096 10.0659 12.0206C10.0659 16.8502 10.9412 20.7654 12.0206 20.7654C13.1 20.7654 13.9753 16.8502 13.9753 12.0206C13.9753 7.19096 13.1 3.27576 12.0206 3.27576ZM12.1556 20.2715C12.0321 20.4361 11.9087 20.3127 11.9087 20.3127C11.4115 19.7366 11.163 18.6666 11.163 18.6666C10.2934 15.8683 10.5004 9.86008 10.5004 9.86008C10.9091 5.09015 11.6527 3.96341 11.9054 3.7132C11.9313 3.68772 11.9653 3.67218 12.0015 3.66932C12.0377 3.66646 12.0738 3.67646 12.1033 3.69756C12.4704 3.95765 12.7782 5.04529 12.7782 5.04529C13.6873 8.41976 13.605 11.5885 13.605 11.5885C13.6873 14.3456 13.1494 17.432 13.1494 17.432C12.7354 19.7777 12.1556 20.2715 12.1556 20.2715Z" fill="#6F7390"/>
<path d="M19.6057 7.66866C19.0683 6.73203 15.237 7.92133 11.0461 10.325C6.85511 12.7287 3.89832 15.4361 4.43535 16.3724C4.97239 17.3086 8.80408 16.1197 12.995 13.716C17.186 11.3123 20.1428 8.60487 19.6057 7.66866ZM4.93083 16.2436C4.72506 16.2176 4.77157 16.0485 4.77157 16.0485C5.02383 15.3308 5.82712 14.5827 5.82712 14.5827C7.8226 12.4357 13.1374 9.62545 13.1374 9.62545C17.4777 7.60611 18.8259 7.69129 19.1679 7.78512C19.203 7.79485 19.2336 7.81672 19.2542 7.84686C19.2747 7.87699 19.284 7.91344 19.2802 7.94973C19.2391 8.39747 18.4469 9.2057 18.4469 9.2057C15.9736 11.6748 13.1839 13.1806 13.1839 13.1806C10.8333 14.6246 7.88844 15.6933 7.88844 15.6933C5.6477 16.5008 4.93083 16.2436 4.93083 16.2436Z" fill="#6F7390"/>
<path d="M19.5867 16.4033C20.1282 15.4692 17.1793 12.749 13.0023 10.3276C8.82542 7.90622 4.99541 6.70211 4.45426 7.63791C3.91311 8.57371 6.86165 11.2922 11.0406 13.7136C15.2196 16.135 19.0455 17.3391 19.5867 16.4033ZM4.81311 7.99882C4.73286 7.80911 4.90199 7.76343 4.90199 7.76343C5.64972 7.62227 6.69992 7.94367 6.69992 7.94367C9.5571 8.59429 14.6517 11.7856 14.6517 11.7856C18.5743 14.5305 19.176 15.7396 19.2661 16.0828C19.2753 16.118 19.2717 16.1553 19.256 16.1881C19.2404 16.2209 19.2136 16.2472 19.1805 16.2622C18.7714 16.4494 17.676 16.1704 17.676 16.1704C14.2995 15.2651 11.5991 13.6062 11.5991 13.6062C9.17274 12.2976 6.77359 10.284 6.77359 10.284C4.95055 8.74902 4.81393 8.00046 4.81393 8.00046L4.81311 7.99882Z" fill="#6F7390"/>
<path d="M11.9999 13.0287C12.5681 13.0287 13.0287 12.5681 13.0287 11.9999C13.0287 11.4318 12.5681 10.9712 11.9999 10.9712C11.4318 10.9712 10.9712 11.4318 10.9712 11.9999C10.9712 12.5681 11.4318 13.0287 11.9999 13.0287Z" fill="#B7B9C8"/>
<path d="M16.2182 8.66667C16.5477 8.66667 16.8149 8.3903 16.8149 8.04938C16.8149 7.70847 16.5477 7.4321 16.2182 7.4321C15.8887 7.4321 15.6215 7.70847 15.6215 8.04938C15.6215 8.3903 15.8887 8.66667 16.2182 8.66667Z" fill="#B7B9C8"/>
<path d="M6.42388 10.7654C6.75344 10.7654 7.0206 10.489 7.0206 10.1481C7.0206 9.80721 6.75344 9.53085 6.42388 9.53085C6.09431 9.53085 5.82715 9.80721 5.82715 10.1481C5.82715 10.489 6.09431 10.7654 6.42388 10.7654Z" fill="#B7B9C8"/>
<path d="M10.7859 18.3375C11.1155 18.3375 11.3826 18.0611 11.3826 17.7202C11.3826 17.3793 11.1155 17.1029 10.7859 17.1029C10.4564 17.1029 10.1892 17.3793 10.1892 17.7202C10.1892 18.0611 10.4564 18.3375 10.7859 18.3375Z" fill="#B7B9C8"/>
</svg>
