<svg width="24" height="24" viewBox="0 0 24 24" fill="none" xmlns="http://www.w3.org/2000/svg">
<path fill-rule="evenodd" clip-rule="evenodd" d="M7.19452 16.3968H16.805L11.9988 8.09386L7.19452 16.3968Z" fill="white"/>
<path fill-rule="evenodd" clip-rule="evenodd" d="M12.0007 2C11.8363 2.00024 11.6845 2.08827 11.6027 2.23086L2.06186 18.7173C1.97938 18.8602 1.97938 19.0362 2.06186 19.179L7.88904 15.7958L12.0007 8.69091V2Z" fill="#FF4724"/>
<path fill-rule="evenodd" clip-rule="evenodd" d="M21.9375 18.7173L12.3987 2.23086C12.3169 2.08827 12.1651 2.00024 12.0007 2V8.6929L16.1104 15.7978L21.9375 19.181C22.0208 19.0377 22.0208 18.8607 21.9375 18.7173Z" fill="#9E1F63"/>
<path fill-rule="evenodd" clip-rule="evenodd" d="M21.9377 19.1731L16.1105 15.7898H7.88913L2.06195 19.1731C2.1441 19.3154 2.29568 19.4033 2.45998 19.4039H21.5376C21.7027 19.404 21.8552 19.316 21.9377 19.1731Z" fill="#662D91"/>
</svg>
