<svg width="24" height="24" viewBox="0 0 24 24" fill="none" xmlns="http://www.w3.org/2000/svg">
<path d="M17.607 6.15718C16.7127 4.13008 14.6678 3.70678 12.1577 4.12412L11.3528 1L9.45095 1.48889L10.2439 4.60705C9.74309 4.73821 9.23035 4.83957 8.72358 4.98266L7.93062 1.88239L6.02873 2.37127L6.83361 5.49539C6.42222 5.60867 3 6.49106 3 6.49106L3.52466 8.52412C3.52466 8.52412 4.91978 8.13659 4.90786 8.1664C5.67696 7.96965 6.04661 8.35122 6.21951 8.7149L8.43144 17.2764C8.46125 17.5268 8.41951 17.9501 7.87697 18.0932C7.90678 18.1111 6.49377 18.4509 6.49377 18.4509L6.70244 20.8179C6.70244 20.8179 10.0949 19.9534 10.542 19.8401L11.3588 23L13.2607 22.5111L12.4439 19.3274C12.9686 19.2022 13.4753 19.077 13.9702 18.9518L14.781 22.1176L16.6829 21.6287L15.8661 18.4748C18.7935 17.7653 20.8623 15.9171 20.4331 13.097C20.1648 11.3978 18.3046 9.99675 16.7604 9.84173C17.7144 8.99512 18.1973 7.76098 17.607 6.15718ZM16.6948 13.6038C17.0705 16.4 13.1892 16.7398 11.9014 17.0737L10.7865 12.8883C12.0743 12.5604 16.0569 11.1415 16.6948 13.6038ZM14.3518 7.91003C14.7512 10.3962 11.4304 10.6824 10.3572 10.9626L9.33767 7.17073C10.4168 6.89052 13.535 5.60867 14.3518 7.91003Z" fill="#57BE92"/>
</svg>
