<svg width="24" height="24" viewBox="0 0 24 24" fill="none" xmlns="http://www.w3.org/2000/svg">
<path fill-rule="evenodd" clip-rule="evenodd" d="M19.5769 9.84443C19.9228 7.53273 18.1627 6.29006 15.756 5.461L16.5367 2.32958L14.6305 1.85453L13.8705 4.90344C13.3694 4.77861 12.8547 4.66076 12.3433 4.54409L13.1088 1.47504L11.2038 1L10.4225 4.1304C10.0077 4.03593 9.60058 3.94249 9.20534 3.84427L9.20748 3.83449L6.57877 3.17813L6.07172 5.21398C6.07172 5.21398 7.48598 5.53812 7.45614 5.55819C8.22815 5.75096 8.36761 6.26183 8.3443 6.66677L7.45503 10.2342C7.50826 10.2477 7.57715 10.2673 7.65316 10.2977L7.58861 10.2816H7.58854C7.54436 10.2705 7.49855 10.259 7.4518 10.2477L6.20523 15.2452C6.11083 15.4797 5.87139 15.8315 5.33176 15.698C5.35073 15.7256 3.94625 15.3522 3.94625 15.3522L3 17.534L5.48049 18.1524C5.75751 18.2219 6.03121 18.2932 6.30205 18.3638L6.30242 18.364C6.48261 18.4109 6.66156 18.4576 6.8394 18.5031L6.05055 21.6704L7.95451 22.1454L8.73571 19.0118C9.25585 19.153 9.7607 19.2833 10.2547 19.4059L9.47626 22.5249L11.3824 23L12.1712 19.8387C15.4216 20.4538 17.8657 20.2057 18.8945 17.2658C19.7235 14.8988 18.8532 13.5334 17.1431 12.643C18.3885 12.3559 19.3266 11.5366 19.5769 9.84443ZM15.2217 15.9515C14.6813 18.1231 11.2821 17.2253 9.72681 16.8145H9.72659C9.58675 16.7775 9.46177 16.7445 9.35517 16.718L10.4019 12.522C10.5318 12.5544 10.6904 12.59 10.8702 12.6303H10.8702C12.4789 12.9913 15.7756 13.731 15.2217 15.9515ZM11.1934 10.683C12.4901 11.0291 15.3186 11.784 15.8114 9.81017C16.3145 7.7913 13.5654 7.18272 12.2227 6.88548C12.0717 6.85211 11.9385 6.82255 11.8297 6.7955L10.8807 10.6012C10.9704 10.6236 11.0756 10.6517 11.1934 10.683Z" fill="#F7931A"/>
</svg>
