<svg width="24" height="24" viewBox="0 0 24 24" fill="none" xmlns="http://www.w3.org/2000/svg">
<g clip-path="url(#clip0)">
<path d="M21.7947 9.98769C21.6612 9.34088 21.4661 8.71459 21.2095 8.10884C20.9631 7.51336 20.6448 6.94868 20.2854 6.40453C19.9261 5.87065 19.5154 5.37784 19.0637 4.92609C18.6119 4.47435 18.1191 4.06367 17.5852 3.70433C17.0514 3.34498 16.4764 3.03697 15.8809 2.7803C15.2752 2.52363 14.6489 2.32856 14.0021 2.19508C13.345 2.06161 12.6674 1.98975 11.9897 1.98975C11.3121 1.98975 10.6448 2.07188 9.98769 2.20535C9.34088 2.33882 8.71459 2.53389 8.10884 2.79057C7.51336 3.03697 6.94868 3.35525 6.40453 3.71459C5.87065 4.07394 5.37784 4.48461 4.92609 4.93636C4.47435 5.3881 4.06367 5.88092 3.70433 6.4148C3.34498 6.94868 3.03697 7.52363 2.7803 8.11911C2.52363 8.72486 2.32856 9.35114 2.19508 9.99796C2.06161 10.655 1.98975 11.3327 1.98975 12.0103C1.98975 12.6879 2.06161 13.3655 2.19508 14.0226C2.32856 14.6694 2.52363 15.2957 2.7803 15.9015C3.02671 16.4969 3.34498 17.0616 3.70433 17.6058C4.06367 18.1396 4.47435 18.6325 4.92609 19.0842C5.37784 19.536 5.87065 19.9466 6.40453 20.306C6.93841 20.6653 7.51336 20.9733 8.10884 21.23C8.71459 21.4867 9.34088 21.6817 9.98769 21.8152C10.6448 21.9487 11.3224 22.0206 12 22.0206C12.6776 22.0206 13.3553 21.9487 14.0123 21.8152C14.6592 21.6817 15.2854 21.4867 15.8912 21.23C16.4867 20.9836 17.0514 20.6653 17.5955 20.306C18.1294 19.9466 18.6222 19.536 19.0739 19.0842C19.5257 18.6325 19.9364 18.1396 20.2957 17.6058C20.655 17.0719 20.9631 16.4969 21.2197 15.9015C21.4764 15.2957 21.6715 14.6694 21.8049 14.0226C21.9384 13.3655 22.0103 12.6879 22.0103 12.0103C22 11.3224 21.9282 10.6448 21.7947 9.98769ZM12 20.7475C7.16429 20.7475 3.25258 16.8255 3.25258 12C3.25258 7.17455 7.17455 3.25258 12 3.25258C16.8255 3.25258 20.7475 7.17455 20.7475 12C20.7475 16.8357 16.8357 20.7475 12 20.7475Z" fill="url(#paint0_linear)"/>
<path d="M12.154 19.9979H12.3902C12.4313 19.9979 12.4723 19.9979 12.5134 19.9877H12.5237C12.5647 19.9877 12.5955 19.9877 12.6366 19.9774H12.6674C12.6982 19.9774 12.729 19.9774 12.7598 19.9671H12.7906C12.8214 19.9671 12.8522 19.9569 12.8933 19.9569H12.9138C12.9549 19.9569 12.9959 19.9466 13.037 19.9466C13.0781 19.9466 13.1089 19.9363 13.1499 19.9261H13.1705C13.2013 19.9261 13.2321 19.9158 13.2629 19.9158H13.2834C13.3245 19.9055 13.3553 19.9055 13.3963 19.8953C13.4785 19.885 13.5606 19.8645 13.6325 19.8439H13.653C13.6838 19.8337 13.7249 19.8337 13.7557 19.8234H13.766C13.8481 19.8029 13.92 19.7823 14.0021 19.7618C13.0165 19.7926 12.2156 19.6591 11.7126 19.5462C10.5832 19.2998 9.50518 18.8583 8.59142 18.0986C7.07191 16.8255 6.29162 14.9979 6.31216 13.1807C6.32243 11.8255 6.78444 10.4702 7.71873 9.3614C8.88916 7.97537 10.5524 7.24641 12.2567 7.20535H12.4929V5.83984H12.2259C11.7023 5.85011 11.189 5.91171 10.6859 6.02465C10.1725 6.13758 9.67971 6.31212 9.20744 6.52773C8.72489 6.7536 8.27314 7.03081 7.8522 7.34908C7.42099 7.67762 7.02058 8.0575 6.6715 8.47845C6.34296 8.86859 6.05548 9.28953 5.81935 9.74128C5.58321 10.1725 5.3984 10.6345 5.25466 11.1068C5.12119 11.5688 5.01852 12.0513 4.97746 12.5339C4.96719 12.6879 4.95692 12.8316 4.94666 12.9856V13.2526C4.95692 13.7762 5.01852 14.2895 5.13146 14.7926C5.2444 15.306 5.41893 15.7988 5.63454 16.271C5.89121 16.8357 6.35323 17.6673 7.04111 18.2936C8.39635 19.3614 10.1109 19.9979 11.9692 19.9979H12.154Z" fill="url(#paint1_linear)"/>
<path d="M14.3922 18.6735C13.9199 18.6633 13.3347 18.5914 12.883 18.5093C10.768 18.1294 8.95075 16.8357 8.2834 14.885C7.47231 12.5134 8.71461 9.94662 11.076 9.16633C11.538 9.01233 12 8.94046 12.4723 8.94046C13.0781 8.94046 13.6838 9.06366 14.2382 9.28954L14.8132 8.06777C14.6386 7.9959 14.4641 7.9343 14.2896 7.8727C13.7043 7.68789 13.0883 7.59549 12.4723 7.59549C11.8563 7.59549 11.2403 7.69816 10.6551 7.89323C9.90557 8.13964 9.21769 8.54005 8.63247 9.06366C8.35526 9.31007 8.08832 9.59754 7.86245 9.89529C7.63658 10.193 7.44151 10.5113 7.27724 10.8501C7.11296 11.1889 6.97949 11.538 6.88709 11.8973C6.79469 12.2567 6.72282 12.6366 6.70229 13.0164C6.65095 13.7967 6.75362 14.577 7.0103 15.3162C7.26697 16.0657 7.67765 16.7536 8.24233 17.3594C8.74541 17.9035 9.33062 18.3142 10.039 18.6941C10.7783 19.0842 11.692 19.2895 12.6468 19.423C13.2629 19.5051 14.0842 19.5257 14.5668 19.5257C14.9877 19.3717 15.1622 19.2998 15.3881 19.2074C15.5832 19.115 15.7783 19.0226 15.9733 18.9097C16.1684 18.7967 16.1992 18.7762 16.5277 18.5606C16.5585 18.5401 16.5894 18.5195 16.6099 18.499C15.4805 18.7043 15.193 18.6941 14.3922 18.6735Z" fill="url(#paint2_linear)"/>
<path d="M16.9178 17.154C16.5995 17.1745 16.1478 17.2053 15.6344 17.2053C14.7207 17.2053 13.6016 17.1232 12.6467 16.8049C11.1683 16.3121 9.77198 15.0493 9.77198 13.4887C9.77198 11.9281 11.0348 10.6756 12.5851 10.6756C13.6426 10.6756 14.5564 11.2608 15.0389 12.1129L16.2607 11.5072C16.0656 11.1478 15.8295 10.8193 15.5317 10.5318C15.1519 10.1519 14.7001 9.84394 14.2073 9.6386C13.694 9.423 13.1498 9.31006 12.5851 9.31006C12.0204 9.31006 11.4763 9.423 10.963 9.6386C10.4701 9.84394 10.0184 10.1519 9.63851 10.5318C9.25864 10.9117 8.95063 11.3634 8.74529 11.8563C8.52968 12.3696 8.41675 12.9138 8.41675 13.4784C8.41675 14.0431 8.53995 14.6078 8.77609 15.1417C8.9917 15.614 9.28944 16.0554 9.66931 16.4661C10.3367 17.1848 11.2504 17.7598 12.2258 18.0883C13.1601 18.3963 14.5358 18.5092 15.8706 18.4168C16.2402 18.3963 16.5174 18.3552 16.9896 18.2526C17.4414 17.8932 17.8623 17.4825 18.2217 17.0308C17.9137 17.0616 17.3285 17.1232 16.9178 17.154Z" fill="url(#paint3_linear)"/>
</g>
<defs>
<linearGradient id="paint0_linear" x1="12" y1="1.98975" x2="12" y2="22.0206" gradientUnits="userSpaceOnUse">
<stop stop-color="#857CB4"/>
<stop offset="1" stop-color="#7468A7"/>
</linearGradient>
<linearGradient id="paint1_linear" x1="9.47438" y1="5.83984" x2="9.47438" y2="19.9979" gradientUnits="userSpaceOnUse">
<stop stop-color="#857CB4"/>
<stop offset="1" stop-color="#7468A7"/>
</linearGradient>
<linearGradient id="paint2_linear" x1="11.6497" y1="7.59549" x2="11.6497" y2="19.5257" gradientUnits="userSpaceOnUse">
<stop stop-color="#857CB4"/>
<stop offset="1" stop-color="#7468A7"/>
</linearGradient>
<linearGradient id="paint3_linear" x1="13.3192" y1="9.31006" x2="13.3192" y2="18.4481" gradientUnits="userSpaceOnUse">
<stop stop-color="#857CB4"/>
<stop offset="1" stop-color="#7468A7"/>
</linearGradient>
<clipPath id="clip0">
<rect width="20" height="20" fill="white" transform="translate(2 2)"/>
</clipPath>
</defs>
</svg>
