<svg width="24" height="24" viewBox="0 0 24 24" fill="none" xmlns="http://www.w3.org/2000/svg">
<path d="M13.0675 3.29774C11.5029 3.38907 9.95627 3.89213 8.60728 4.74704C8.30335 4.93868 7.8467 5.27256 7.86317 5.28903C7.86616 5.29352 7.9515 5.24112 8.05182 5.17375C10.1434 3.77236 12.7486 3.32319 15.2085 3.93855C16.3538 4.22601 17.4348 4.74105 18.3915 5.45522C19.0518 5.9478 19.7286 6.62454 20.2241 7.2908C22.0223 9.7058 22.4879 12.8709 21.4623 15.6991C21.1689 16.5121 20.7422 17.3026 20.2241 17.9988C19.7286 18.6651 19.0518 19.3418 18.3915 19.8344C16.0963 21.5487 13.1423 22.0638 10.3994 21.2298C9.57897 20.9813 8.77048 20.5965 8.05182 20.1159C7.71944 19.8928 7.85119 20.0201 8.23597 20.2941C8.88726 20.7552 9.64335 21.1535 10.395 21.4304C11.1451 21.7059 11.8832 21.8751 12.7306 21.965C13.036 21.9979 13.9119 22.0114 14.2428 21.9889C15.2744 21.9185 16.2266 21.7014 17.1593 21.3271C17.4483 21.2104 18.0128 20.9364 18.2927 20.7747C20.7122 19.3868 22.3921 16.9927 22.8667 14.2618C22.964 13.7004 23 13.2617 23 12.6448C23 12.028 22.964 11.5893 22.8667 11.0278C22.425 8.48557 20.9443 6.23676 18.7718 4.80992C18.4155 4.57636 18.14 4.42065 17.7313 4.22152C16.6383 3.69001 15.5214 3.39207 14.2727 3.30223C14.0841 3.28876 13.2726 3.28576 13.0675 3.29774Z" fill="black"/>
<path d="M6.28817 12.5011C5.56951 13.9698 4.9826 15.1751 4.9826 15.1811C4.9826 15.1856 5.20719 15.1901 5.48118 15.1901H5.97975L6.12947 14.8607L6.27769 14.5313H7.59523H8.91278L9.07747 14.8607L9.24216 15.1901H9.73923H10.2363L9.99226 14.6915C8.46511 11.5728 7.60871 9.83007 7.60122 9.83007C7.59673 9.83007 7.00533 11.0323 6.28817 12.5011ZM8.06086 12.7466L8.51152 13.7003L7.57577 13.7048C7.06073 13.7063 6.63702 13.7048 6.63253 13.7018C6.62504 13.6929 7.58924 11.7914 7.60122 11.7914C7.60571 11.7914 7.81382 12.2211 8.06086 12.7466Z" fill="black"/>
<path d="M1 12.6313V15.208L1.84293 15.2006C2.75922 15.1946 2.86103 15.1871 3.22486 15.0943C3.90309 14.9221 4.44059 14.5568 4.77747 14.0372C5.04547 13.6225 5.16524 13.1748 5.16524 12.5774C5.16674 12.3484 5.16075 12.2555 5.1338 12.0983C5.02151 11.4486 4.69961 10.962 4.13666 10.5847C3.84021 10.387 3.47789 10.2358 3.10807 10.1535C2.73527 10.0711 2.48973 10.0547 1.65578 10.0547H1V12.6313ZM2.54213 10.932C3.23085 11.0219 3.71145 11.2644 3.97945 11.6567C4.18906 11.9651 4.28339 12.3993 4.23548 12.841C4.15912 13.5402 3.75487 14.0178 3.04669 14.2453C2.79815 14.3247 2.60052 14.3531 2.24718 14.3621L1.92827 14.3711V12.6299V10.8886L2.14986 10.8991C2.27113 10.9051 2.4478 10.92 2.54213 10.932Z" fill="black"/>
<path d="M10.8217 12.6209V15.1901H11.2784H11.735V13.0715V10.953H11.8758C12.256 10.953 12.6049 11.0922 12.7816 11.3138C12.8594 11.4126 12.9358 11.5683 12.9777 11.7166C13.099 12.1492 12.8714 12.6852 12.4627 12.9278C12.3459 12.9982 12.1423 13.0715 11.9836 13.103C11.8982 13.1194 11.8563 13.1344 11.8608 13.1464C11.8638 13.1554 12.1812 13.6195 12.566 14.1765L13.2652 15.1901H13.8176C14.1216 15.1901 14.3701 15.1871 14.3701 15.1841C14.3701 15.1796 14.1051 14.8008 13.7817 14.3412C13.4583 13.8815 13.1873 13.4967 13.1813 13.4862C13.1723 13.4728 13.2352 13.3994 13.3849 13.2467C13.5047 13.1254 13.629 12.9862 13.6619 12.9368C13.9164 12.558 14.0078 12.0789 13.9209 11.5758C13.8476 11.1476 13.6859 10.8212 13.4134 10.5472C13.2277 10.3616 13.0076 10.2403 12.6992 10.152C12.4058 10.0696 12.3653 10.0666 11.5673 10.0592L10.8217 10.0517V12.6209Z" fill="black"/>
<path d="M15.2385 12.6673V15.235H15.6801H16.1218V14.1824V13.1299L16.1682 13.085L16.2131 13.0416L16.2386 13.0745C16.2521 13.0925 16.6518 13.5866 17.1249 14.1705L17.9858 15.235H18.5817H19.1791L19.0818 15.1182C18.9066 14.9071 16.8809 12.4577 16.8644 12.4367C16.8525 12.4202 17.0875 12.1792 18.0158 11.2584L19.1836 10.101L18.5847 10.0995H17.9858L17.0576 11.0458L16.1293 11.992L16.1248 11.0458L16.1218 10.0995H15.6801H15.2385V12.6673Z" fill="black"/>
</svg>
