<svg width="24" height="24" viewBox="0 0 24 24" fill="none" xmlns="http://www.w3.org/2000/svg">
<path fill-rule="evenodd" clip-rule="evenodd" d="M0 12C0 5.37259 5.37259 0 12 0C18.6274 0 24 5.37259 24 12C24 18.6274 18.6274 24 12 24C5.37259 24 0 18.6274 0 12Z" fill="black"/>
<path d="M23.5 12C23.5 18.3513 18.3513 23.5 12 23.5C5.64873 23.5 0.5 18.3513 0.5 12C0.5 5.64873 5.64873 0.5 12 0.5C18.3513 0.5 23.5 5.64873 23.5 12Z" stroke="white" stroke-opacity="0.3"/>
<path d="M16.6825 11.9448C16.6825 12.5512 16.563 13.1516 16.331 13.7118C16.099 14.272 15.7589 14.781 15.3301 15.2097C14.9014 15.6385 14.3924 15.9786 13.8322 16.2106C13.272 16.4426 12.6716 16.5621 12.0653 16.5621C11.4589 16.5621 10.8585 16.4426 10.2983 16.2106C9.73814 15.9786 9.22914 15.6385 8.80039 15.2097C8.37165 14.781 8.03154 14.272 7.79951 13.7118C7.56747 13.1516 7.44804 12.5512 7.44804 11.9448C7.44804 11.3385 7.56747 10.7381 7.79951 10.1779C8.03154 9.61773 8.37165 9.10873 8.80039 8.67999C9.22914 8.25124 9.73814 7.91114 10.2983 7.6791C10.8585 7.44706 11.4589 7.32764 12.0653 7.32764C12.6716 7.32764 13.272 7.44706 13.8322 7.6791C14.3924 7.91114 14.9014 8.25124 15.3301 8.67999C15.7589 9.10873 16.099 9.61773 16.331 10.1779C16.563 10.7381 16.6825 11.3385 16.6825 11.9448V11.9448Z" stroke="white" stroke-width="2.2904"/>
<path fill-rule="evenodd" clip-rule="evenodd" d="M8.77 8.58006L6.13 6.06006L8.77 8.58006Z" stroke="white" stroke-width="2.41604"/>
<path fill-rule="evenodd" clip-rule="evenodd" d="M15.49 8.64L18.01 6L15.49 8.64Z" stroke="white" stroke-width="2.41604"/>
<path fill-rule="evenodd" clip-rule="evenodd" d="M18.13 17.9399L15.49 15.4199L18.13 17.9399Z" stroke="white" stroke-width="2.41604"/>
<path fill-rule="evenodd" clip-rule="evenodd" d="M6.01 17.9999L8.53 15.3599L6.01 17.9999Z" stroke="white" stroke-width="2.41604"/>
</svg>
