<svg width="24" height="24" viewBox="0 0 24 24" fill="none" xmlns="http://www.w3.org/2000/svg">
<path d="M12 22C17.5232 22 22 17.5232 22 12C22 6.47682 17.5232 2 12 2C6.47682 2 2 6.47682 2 12C2 17.5232 6.47682 22 12 22ZM12 21.412C6.80192 21.412 2.58803 17.1981 2.58803 12C2.58803 6.80192 6.80192 2.58803 12 2.58803C17.1981 2.58803 21.412 6.80192 21.412 12C21.412 17.1981 17.1981 21.412 12 21.412ZM10.3034 19.2233C10.5237 19.1327 11.3853 18.4683 12.2176 17.7532C13.2492 16.8758 14.2415 15.9532 15.1915 14.9881C16.1029 14.0767 16.4413 13.685 16.4972 13.4825C16.6944 12.771 14.5386 4.9499 14.0998 4.78202C13.8325 4.67898 11.4413 6.66779 9.32368 8.74987C8.0819 9.97033 7.73814 10.3763 7.71149 10.6419C7.69373 10.847 7.76479 11.3613 7.89714 11.9707C8.42388 14.3885 9.38231 17.7293 9.8673 18.8263C10.0707 19.2917 10.0947 19.3121 10.3034 19.2233Z" fill="#FF914D"/>
</svg>
