<svg width="24" height="24" viewBox="0 0 24 24" fill="none" xmlns="http://www.w3.org/2000/svg">
<path d="M22 12C22 17.5 17.5312 22 12 22C6.5 22 2 17.5 2 12C2 9.71875 2.78125 7.625 4.0625 5.9375C5.875 3.53125 8.78125 2 12 2C15.4375 2 18.5 3.75 20.2812 6.40625L11.9062 14.2188L9.78125 11.9375L15.8125 6.3125C14.75 5.5625 13.4062 5.125 12 5.125C9.59375 5.125 7.46875 6.375 6.25 8.25C5.53125 9.34375 5.125 10.625 5.125 12C5.125 15.7812 8.21875 18.875 12 18.875C15.7812 18.875 18.875 15.7812 18.875 12L21.6562 9.40625C21.875 10.2188 22 11.0938 22 12Z" fill="#7062FF"/>
<path d="M2.36624 9.33316C2.12832 10.1815 2 11.0753 2 11.9998C2 17.4998 6.5 21.9998 12 21.9998C17.5312 21.9998 22 17.4998 22 11.9998C22 11.0936 21.875 10.2186 21.6562 9.40608L18.875 11.9998C18.875 15.7811 15.7812 18.8748 12 18.8748C8.21875 18.8748 5.125 15.7811 5.125 11.9998C5.125 11.0568 5.31611 10.1578 5.66808 9.33316H2.36624Z" fill="url(#paint0_radial)"/>
<defs>
<radialGradient id="paint0_radial" cx="0" cy="0" r="1" gradientUnits="userSpaceOnUse" gradientTransform="translate(22.6667 11.3332) rotate(-175.515) scale(17.0522 41.5442)">
<stop stop-color="#FF5454"/>
<stop offset="1" stop-color="#7062FF"/>
</radialGradient>
</defs>
</svg>
