<svg width="24" height="24" viewBox="0 0 24 24" fill="none" xmlns="http://www.w3.org/2000/svg">
<path d="M12 23C18.0751 23 23 18.0751 23 12C23 5.92487 18.0751 1 12 1C5.92487 1 1 5.92487 1 12C1 18.0751 5.92487 23 12 23Z" fill="#7866D5"/>
<path d="M16.4593 6.64514C16.8349 6.69015 17.2152 6.71499 17.5862 6.78639C18.3219 6.92918 18.5656 7.29549 18.4398 8.03896C18.4057 8.31835 18.1869 8.5403 17.9075 8.576C17.7321 8.60394 17.5551 8.61636 17.3782 8.61325C14.9631 8.62101 12.5495 8.62722 10.1328 8.63188C9.76961 8.63498 9.40796 8.66758 9.05097 8.72811C7.85582 8.92368 7.40105 9.41881 7.30637 10.6248C7.26135 11.1898 7.26135 11.1898 7.82788 11.1898H17.4527C17.5458 11.1898 17.6389 11.1898 17.7321 11.1898C17.8857 11.1898 18.0347 11.2317 18.1667 11.3093C18.6044 11.5887 18.4957 12.0326 18.4709 12.4346C18.4507 12.7606 18.2536 12.9391 17.9183 13.0042C17.7771 13.0275 17.6343 13.0368 17.4915 13.0337C14.1994 13.0337 10.9073 13.0337 7.61679 13.0337C7.25204 13.0337 7.25825 13.0337 7.28464 13.3954C7.29705 13.7244 7.33896 14.0519 7.40881 14.3748C7.55781 14.9693 7.92567 15.3418 8.51859 15.5063C9.17514 15.691 9.85032 15.7314 10.5239 15.736C12.8785 15.7515 15.2331 15.7453 17.5893 15.7453C17.8873 15.7453 18.1682 15.7826 18.3452 16.0604C18.6339 16.526 18.4911 17.1376 18.0254 17.4278C17.9618 17.4666 17.8935 17.4992 17.8237 17.5241C17.3114 17.6886 16.7791 17.7274 16.2482 17.7367C14.0364 17.7771 11.8262 17.7771 9.6144 17.7367C8.93145 17.7196 8.25007 17.6405 7.58265 17.4992C6.00878 17.1733 5.22185 16.3739 4.95333 14.7892C4.89124 14.4245 4.8602 14.055 4.81519 13.6872V10.7987C4.84468 10.5146 4.87261 10.2306 4.90521 9.94964C5.11009 8.16003 5.9141 7.27376 7.67422 6.88262C8.30129 6.74293 8.93922 6.71188 9.57249 6.64514H16.4593Z" fill="white"/>
<path d="M12.9282 18.0425C11.8184 18.0425 10.7086 18.0332 9.6066 18.013C8.90658 17.9959 8.20502 17.9152 7.52208 17.7709C5.83801 17.4216 4.9595 16.5167 4.67545 14.8342C4.63199 14.575 4.6025 14.3111 4.57457 14.0581C4.56215 13.9448 4.54973 13.8331 4.53576 13.7198L4.53421 13.6856L4.53576 10.7707L4.5637 10.4975C4.58388 10.3035 4.60406 10.1111 4.62579 9.92014C4.84774 8.01877 5.74177 7.02851 7.61365 6.61254C8.10413 6.50389 8.59926 6.45887 9.07887 6.41541C9.23408 6.40145 9.3893 6.38748 9.54451 6.3704L9.574 6.36885H16.4779L16.495 6.3704C16.6098 6.38437 16.7263 6.39679 16.8427 6.40765C17.1034 6.43404 17.3735 6.46198 17.642 6.51475C18.5283 6.68704 18.8698 7.18683 18.7176 8.08707C18.6711 8.48131 18.3529 8.8026 17.9462 8.85538C17.7646 8.88487 17.5691 8.89884 17.3766 8.89418C14.9677 8.90194 12.5526 8.90815 10.1374 8.9128C9.79285 8.91591 9.44362 8.94695 9.10215 9.00593C8.02807 9.18288 7.67418 9.56625 7.58882 10.6496C7.58106 10.7459 7.5733 10.8421 7.57174 10.9089C7.63849 10.9135 7.73627 10.9135 7.8325 10.9135H17.7351C17.9385 10.9135 18.1371 10.9678 18.3125 11.0718C18.8434 11.4117 18.7984 11.9255 18.7658 12.3011C18.7611 12.3523 18.7564 12.402 18.7533 12.4532C18.727 12.894 18.4507 13.1889 17.9757 13.2805C17.8096 13.3069 17.6482 13.3178 17.4884 13.3147H7.62141C7.60279 13.3147 7.58261 13.3147 7.56398 13.3147C7.56554 13.3286 7.56554 13.3442 7.56709 13.3581L7.56864 13.3768C7.58106 13.6996 7.62141 14.0131 7.6866 14.3173C7.80922 14.8047 8.09947 15.0996 8.59771 15.2393C9.26357 15.4256 9.94807 15.4551 10.5301 15.4582C12.3647 15.4706 14.232 15.469 16.0371 15.4675H17.5939C17.8236 15.4675 18.3017 15.4675 18.5842 15.9114C18.7658 16.2032 18.8216 16.5447 18.744 16.8753C18.6664 17.2059 18.4646 17.4868 18.1759 17.6653C18.0952 17.715 18.0083 17.7569 17.9167 17.7879C17.3425 17.9726 16.7557 18.0068 16.256 18.0161C15.1477 18.0332 14.0379 18.0425 12.9282 18.0425ZM5.09143 13.6686C5.1054 13.7772 5.11626 13.8874 5.12868 13.9961C5.15662 14.2428 5.18456 14.4974 5.22491 14.7411C5.4717 16.2016 6.17016 16.9203 7.63538 17.2245C8.28728 17.3626 8.95315 17.4402 9.61746 17.4558C11.8137 17.4946 14.0426 17.4946 16.2389 17.4558C16.6968 17.448 17.2338 17.417 17.7336 17.2571C17.7802 17.2416 17.8283 17.2183 17.8733 17.1904C18.0347 17.0895 18.148 16.9327 18.1915 16.7464C18.2349 16.5602 18.2039 16.3693 18.103 16.2079C18.0161 16.0713 17.8841 16.0247 17.5846 16.0247H16.0293C14.2242 16.0263 12.3554 16.0263 10.5193 16.0154C9.89995 16.0107 9.16889 15.9797 8.44094 15.7748C7.74869 15.5823 7.30943 15.1338 7.13559 14.4431C7.06109 14.0969 7.01763 13.7508 7.00366 13.4078L7.00211 13.3985C6.98504 13.1796 6.97417 13.0213 7.09679 12.8878C7.22096 12.7543 7.38549 12.7543 7.61365 12.7543H17.4884C17.6203 12.7575 17.7476 12.7497 17.8717 12.7295C18.1232 12.6814 18.1806 12.5743 18.1899 12.4191C18.193 12.3632 18.1977 12.3089 18.2023 12.253C18.2365 11.8588 18.2287 11.6849 18.013 11.5468C17.9323 11.4987 17.8314 11.4707 17.7289 11.4707H7.82629C7.48482 11.4707 7.27839 11.4707 7.12938 11.3109C6.98193 11.151 6.99745 10.9446 7.02539 10.6046C7.13094 9.27445 7.6866 8.67222 9.00437 8.45648C9.37378 8.39284 9.7525 8.35869 10.1297 8.35559C12.5463 8.35093 14.9615 8.34472 17.3766 8.33696C17.5427 8.34007 17.7041 8.3292 17.8624 8.30281C18.0238 8.28108 18.1434 8.16002 18.162 8.00791C18.266 7.39481 18.1185 7.17751 17.5334 7.06266C17.2897 7.01609 17.0444 6.98971 16.7837 6.96332C16.6704 6.9509 16.5571 6.94004 16.4438 6.92607H9.58952C9.43741 6.94159 9.28375 6.95556 9.13164 6.96953C8.64893 7.01299 8.1926 7.0549 7.73782 7.15578C6.09411 7.52209 5.37702 8.31523 5.183 9.98378C5.16127 10.1731 5.1411 10.3625 5.12247 10.5534L5.09608 10.8142V13.6686H5.09143Z" fill="white"/>
</svg>
