<svg width="24" height="24" viewBox="0 0 24 24" fill="none" xmlns="http://www.w3.org/2000/svg">
<path d="M5 12.9816C7.39005 14.2514 9.88049 15.5825 11.8087 16.6116L18.5617 12.9826C16.1166 16.622 14.08 19.6493 11.8087 23C9.53452 19.6563 7.02165 15.9656 5 12.9816ZM5.26132 11.979L11.8164 8.47497L18.287 11.9535L11.822 15.4606L5.26132 11.979ZM11.8073 7.35004L5.00079 10.9403L11.7778 1L18.5591 10.962L11.8073 7.35004Z" fill="#3AB83A"/>
<path d="M11.8087 16.6116L18.5617 12.9826C16.1167 16.622 11.8087 23 11.8087 23L11.8087 16.6116ZM11.8165 8.47497L18.287 11.9535L11.8221 15.4606L11.8165 8.47497ZM11.8074 7.35004L11.7778 1L18.5592 10.962L11.8074 7.35004Z" fill="#0B8311"/>
<path d="M5.26135 11.979L11.8164 12.5164L18.287 11.9536L11.8221 15.4606L5.26135 11.979Z" fill="#0B8311"/>
<path d="M11.8164 12.5164L18.287 11.9536L11.822 15.4606L11.8164 12.5164H11.8164Z" fill="#146714"/>
</svg>
