<svg width="24" height="24" viewBox="0 0 24 24" fill="none" xmlns="http://www.w3.org/2000/svg">
<path d="M6.86746 6.89956C6.30091 7.47933 6.2198 8.37742 6.6733 9.04932C6.98928 9.52486 7.52352 9.80928 8.09446 9.80593C9.30412 9.80621 10.2845 10.7871 10.2843 11.9967C10.284 13.2064 9.30312 14.1868 8.09346 14.1865C5.62209 14.1874 3.39512 12.695 2.45654 10.4088C1.51797 8.12257 2.05384 5.49584 3.81296 3.75999C6.04559 1.55162 9.5915 1.40339 12.0007 3.41771C10.6154 4.57584 9.8155 6.28895 9.81687 8.09453C9.8163 9.29925 10.789 10.2782 11.9936 10.2853C11.4127 10.2853 10.8556 10.0545 10.4449 9.6436C10.0342 9.23272 9.80359 8.67548 9.80386 8.09453C9.80554 7.75399 9.70438 7.42086 9.51362 7.13875C9.32728 6.86291 9.06524 6.64675 8.759 6.51624C8.33319 6.3381 7.85373 6.3381 7.42791 6.51624C7.21742 6.6054 7.02687 6.73572 6.86746 6.89956ZM21.5194 13.533C22.471 15.7886 21.9815 18.3947 20.2764 20.1514C18.549 21.9314 15.9144 22.4856 13.6162 21.5525C11.3179 20.6193 9.81547 18.3854 9.81787 15.9049C9.80091 15.1116 10.2144 14.3712 10.8988 13.9695C11.5831 13.5679 12.4312 13.5679 13.1155 13.9695C13.7999 14.3712 14.2134 15.1116 14.1964 15.9049C14.1931 16.5943 14.6061 17.2176 15.2423 17.4832C15.6727 17.6634 16.1561 17.6614 16.5844 17.4782C16.9939 17.3009 17.3187 16.9715 17.4901 16.5595C17.846 15.69 17.4377 14.6959 16.5734 14.3276C16.3629 14.2385 16.1365 14.1929 15.9078 14.1935C14.6982 14.1935 13.7176 13.2129 13.7176 12.0032C13.7176 10.7936 14.6982 9.81294 15.9078 9.81294C18.356 9.81161 20.5667 11.2774 21.5184 13.533H21.5194Z" fill="#36C8CC"/>
<path opacity="0.7" d="M11.9948 13.7152C13.2038 13.7152 14.1846 14.696 14.1846 15.905C14.1862 18.3895 12.6784 20.6259 10.3746 21.5561C8.07074 22.4862 5.43285 21.9236 3.709 20.1345C2.01218 18.3754 1.53088 15.7726 2.48647 13.5231C3.44207 11.2736 5.64954 9.81298 8.09359 9.81301C9.30325 9.81301 10.2839 10.7936 10.2839 12.0033C10.2839 13.213 9.30325 14.1936 8.09359 14.1936C7.75331 14.1926 7.42104 14.2937 7.13881 14.4838C6.86278 14.6704 6.64659 14.9328 6.5163 15.2394C6.25027 15.8709 6.38651 16.6002 6.86258 17.093V17.095C7.43837 17.6928 8.36067 17.7899 9.04837 17.3252C9.52256 17.0081 9.80628 16.4744 9.80399 15.904C9.80399 14.696 10.7848 13.7152 11.9948 13.7152ZM21.3284 5.31233C22.2968 7.20142 22.2124 9.45826 21.1058 11.2698C19.9992 13.0814 18.0298 14.1867 15.907 14.1876C14.697 14.1876 13.7162 13.2067 13.7162 11.9968C13.7162 10.7869 14.697 9.80601 15.907 9.80601C16.5956 9.80665 17.2175 9.39454 17.4853 8.76015C17.6802 8.29382 17.6604 7.76543 17.4312 7.31497C17.2095 6.87803 16.8107 6.55746 16.3364 6.43489C15.862 6.31232 15.3578 6.39958 14.9522 6.67444C14.4773 6.99106 14.1931 7.52489 14.1956 8.09561C14.2124 8.88893 13.7987 9.62925 13.1142 10.0307C12.4298 10.4322 11.5817 10.432 10.8975 10.0302C10.2132 9.62843 9.79985 8.88792 9.817 8.09461C9.81555 5.79148 11.1135 3.68457 13.1711 2.64992C15.2288 1.61528 17.6941 1.82992 19.5419 3.20461L19.546 3.20761C20.2924 3.76422 20.9018 4.48414 21.3274 5.31233H21.3284Z" fill="#36C8CC"/>
</svg>
