<?xml version="1.0" standalone="no"?>
<!DOCTYPE svg PUBLIC "-//W3C//DTD SVG 20010904//EN"
 "http://www.w3.org/TR/2001/REC-SVG-20010904/DTD/svg10.dtd">
<svg version="1.0" xmlns="http://www.w3.org/2000/svg"
 width="811.000000pt" height="813.000000pt" viewBox="0 0 811.000000 813.000000"
 preserveAspectRatio="xMidYMid meet">
<metadata>
Created by potrace 1.16, written by Peter Selinger 2001-2019
</metadata>
<g transform="translate(0.000000,813.000000) scale(0.100000,-0.100000)"
fill="#000000" stroke="none">
<path d="M3755 7854 c-354 -35 -636 -94 -930 -194 -1308 -447 -2286 -1594
-2514 -2950 -70 -414 -70 -886 0 -1300 228 -1357 1206 -2504 2517 -2951 404
-137 784 -199 1232 -199 353 0 612 31 932 111 1354 340 2417 1403 2757 2757
80 320 111 579 111 932 0 353 -31 612 -111 932 -337 1345 -1394 2408 -2734
2751 -336 86 -515 108 -905 112 -173 1 -333 1 -355 -1z m-434 -2021 c165 66
346 103 572 116 134 8 393 1 497 -14 155 -22 296 -57 409 -102 l64 -25 331
331 331 331 263 -263 262 -262 -325 -325 c-179 -179 -325 -329 -325 -334 0 -5
11 -38 25 -72 49 -124 97 -400 71 -410 -17 -6 -750 -33 -758 -28 -5 3 -8 14
-8 24 0 43 -62 210 -98 266 -81 124 -184 192 -347 230 -64 15 -117 19 -260 18
-160 -1 -191 -4 -278 -27 -121 -32 -207 -77 -274 -143 -114 -113 -110 -287 8
-403 98 -96 277 -164 760 -286 560 -142 815 -245 1003 -404 173 -147 292 -342
341 -561 23 -101 31 -377 15 -479 -16 -103 -54 -220 -102 -315 l-39 -80 293
-295 293 -296 -262 -260 -263 -260 -316 316 -316 316 -50 -19 c-75 -28 -229
-65 -358 -85 -166 -26 -610 -25 -765 1 -140 23 -274 58 -377 97 l-80 31 -332
-331 -331 -331 -263 262 -262 263 321 321 321 321 -40 84 c-52 110 -105 278
-131 412 -29 148 -28 155 12 161 41 7 659 66 689 66 21 0 25 -9 44 -87 88
-366 293 -569 625 -623 116 -19 382 -8 484 19 129 34 220 84 302 166 102 101
136 176 141 305 5 113 -16 180 -75 250 -97 113 -212 157 -808 310 -554 142
-804 253 -992 438 -137 135 -234 301 -279 477 -20 80 -26 126 -26 230 -1 143
10 222 49 334 l25 74 -331 331 -331 331 262 263 263 262 331 -331 331 -331 64
25z"/>
</g>
</svg>
