<svg width="24" height="24" viewBox="0 0 24 24" fill="none" xmlns="http://www.w3.org/2000/svg">
<path d="M12.4239 13.111L10.7868 18.4811H19.5431C19.6011 18.4792 19.659 18.4883 19.7133 18.5081C19.7677 18.5279 19.8175 18.5579 19.86 18.5964C19.9024 18.6349 19.9366 18.6812 19.9606 18.7326C19.9847 18.784 19.998 18.8395 20 18.8959V19.0367L19.2386 21.5921C19.205 21.713 19.1302 21.8191 19.0264 21.8932C18.9226 21.9672 18.7961 22.0047 18.6675 21.9995H5.2665L7.51269 14.5554L5 15.2961L5.57107 13.5924L8.08376 12.8517L11.2437 2.40766C11.2784 2.28749 11.3536 2.18209 11.457 2.10827C11.5605 2.03444 11.6864 1.99642 11.8147 2.00027H15.203C15.261 1.99829 15.3189 2.00745 15.3732 2.02723C15.4276 2.04701 15.4774 2.07702 15.5199 2.11554C15.5623 2.15407 15.5965 2.20035 15.6205 2.25174C15.6446 2.30314 15.6579 2.35864 15.6599 2.41507V2.5558L12.9949 11.3703L15.5076 10.6296L14.9746 12.4073L12.4239 13.111Z" fill="#345D9D"/>
</svg>
