<svg width="24" height="24" viewBox="0 0 24 24" fill="none" xmlns="http://www.w3.org/2000/svg">
<path fill-rule="evenodd" clip-rule="evenodd" d="M9.75961 10.566L12 15.5252L15.3272 13.6043H15.3333V9.76264L9.75961 10.566Z" fill="#2BBDF7"/>
<path fill-rule="evenodd" clip-rule="evenodd" d="M19.6324 6.88119L17.5551 6.10197L15.3329 5.92076V9.76246V17.8929L18.6662 19.8137L21.3232 14.4015L19.6384 9.19466L19.6324 6.88119Z" fill="#2891F9"/>
<path fill-rule="evenodd" clip-rule="evenodd" d="M19.4396 5.92076L18.6667 7.84161V19.7835L22 17.8627V5.92076H19.4396Z" fill="#2BBDF7"/>
<path fill-rule="evenodd" clip-rule="evenodd" d="M18.6662 4L15.3329 5.92085L18.6662 7.8417L21.9996 5.92085L18.6662 4Z" fill="#2B6DEF"/>
<path fill-rule="evenodd" clip-rule="evenodd" d="M12 11.6833L8.66667 7.95034L2 5.92076V17.8627L5.33333 19.7835L6.28744 13.1753L8.66667 13.6042L12 15.525V11.6833Z" fill="#2891F9"/>
<path fill-rule="evenodd" clip-rule="evenodd" d="M5.33352 4L2.00018 5.92085L12.0002 11.6834L13.5098 10.8136L15.3335 9.76255L5.33352 4Z" fill="#2B6DEF"/>
<path fill-rule="evenodd" clip-rule="evenodd" d="M5.3338 11.6834V19.7836L8.66713 17.8627V13.6043L5.3338 11.6834Z" fill="#2BBDF7"/>
</svg>
