<svg width="24" height="24" viewBox="0 0 24 24" fill="none" xmlns="http://www.w3.org/2000/svg">
<path d="M21.5806 4C20.7823 4 20.1613 4.62097 20.1613 5.41936V19.2581C20.1613 20.0565 20.7823 20.6774 21.5806 20.6774C22.379 20.6774 23 20.0565 23 19.2581V5.41936C23 4.62097 22.379 4 21.5806 4Z" fill="#D84081"/>
<path d="M2.41936 4C1.62097 4 1 4.62097 1 5.41936V19.2581C1 20.0565 1.62097 20.6774 2.41936 20.6774C3.21774 20.6774 3.83871 20.0565 3.83871 19.2581V5.41936C3.83871 4.62097 3.21774 4 2.41936 4Z" fill="#4400E2"/>
<path d="M8.80641 6.92741C8.00802 6.92741 7.38705 7.54838 7.38705 8.34677V16.4194C7.38705 17.2177 8.00802 17.8387 8.80641 17.8387C9.6048 17.8387 10.2258 17.2177 10.2258 16.4194V8.34677C10.2258 7.54838 9.6048 6.92741 8.80641 6.92741Z" fill="#891EB4"/>
<path d="M15.1936 9.23387C14.3952 9.23387 13.7742 9.85484 13.7742 10.6532V14.1129C13.7742 14.9113 14.3952 15.5323 15.1936 15.5323C15.992 15.5323 16.6129 14.9113 16.6129 14.1129V10.6532C16.6129 9.85484 15.992 9.23387 15.1936 9.23387Z" fill="#B73297"/>
</svg>
