<svg width="24" height="24" viewBox="0 0 24 24" fill="none" xmlns="http://www.w3.org/2000/svg">
<path d="M12 24C18.6274 24 24 18.6274 24 12C24 5.37258 18.6274 0 12 0C5.37258 0 0 5.37258 0 12C0 18.6274 5.37258 24 12 24Z" fill="#E0E0E0"/>
<path d="M18.525 19.9808C18.5139 19.9417 18.4776 19.9417 18.4469 19.9306C17.4344 19.6126 16.4024 19.3644 15.3537 19.2054C14.0316 19.0073 12.6983 18.9432 11.3623 19.0352C9.75566 19.144 8.1881 19.4564 6.65681 19.9417C6.63171 19.9501 6.60102 19.9473 6.58708 19.978C6.52293 19.978 6.45598 19.978 6.39183 19.978C6.17427 19.8664 6.12127 19.6879 6.12406 19.4508C6.13522 18.6029 6.12964 17.7522 6.12964 16.9042C6.12964 16.5723 6.25795 16.4468 6.59266 16.4468C6.81858 16.4468 6.81301 16.4496 6.74606 16.2376C6.58708 15.7523 6.58708 15.2642 6.76001 14.7816C6.82137 14.6087 6.92458 14.4581 7.06404 14.3381C7.14772 14.2656 7.1254 14.2377 7.03615 14.2015C6.70423 14.0676 6.37788 13.9225 6.0878 13.7106C5.91487 13.5851 5.78657 13.4344 5.78099 13.2085C5.7782 13.1388 5.72799 13.1165 5.68336 13.083C5.54948 12.9798 5.42396 12.871 5.34029 12.7232C5.23987 12.5475 5.22035 12.3662 5.30403 12.1765C5.31797 12.143 5.35144 12.1095 5.32076 12.0733C5.17572 11.9087 5.09483 11.7079 5 11.5154C5 11.4401 5 11.3676 5 11.2923C5.08368 11.1696 5.12552 11.0162 5.2594 10.9269C5.29566 10.9018 5.2594 10.8683 5.23987 10.846C4.82707 10.4025 5.06973 9.91162 5.48533 9.67733C5.59411 9.61596 5.70847 9.56018 5.8284 9.52671C5.90371 9.50718 5.9344 9.46813 5.92882 9.39003C5.92045 9.22826 5.98181 9.0888 6.10454 8.98281C6.16032 8.9326 6.17148 8.88797 6.15475 8.81266C5.99018 8.10698 5.8814 7.39015 5.93997 6.66495C6.00134 5.9258 6.13522 5.19502 6.29421 4.4726C6.36673 4.13232 6.44204 3.79203 6.56476 3.46569C6.58429 3.41269 6.6066 3.36248 6.63171 3.31228C6.78511 3.00825 7.03615 2.92178 7.34575 3.0724C7.63862 3.21466 7.91197 3.39038 8.18252 3.56889C9.10018 4.17415 10.0039 4.79894 10.8435 5.5102C10.8909 5.54925 10.9355 5.56041 10.9941 5.55483C12.3329 5.39305 13.5964 5.62456 14.7763 6.2884C14.8628 6.33582 14.9381 6.33582 15.0273 6.31629C15.9143 6.12662 16.8013 5.9258 17.6966 5.77797C18.129 5.70824 18.3828 5.89512 18.4051 6.33303C18.4274 6.77094 18.3465 7.20048 18.2601 7.63002C18.1624 8.11256 18.0369 8.58673 17.8528 9.04417C17.8193 9.12506 17.811 9.17805 17.9281 9.16411C18.2991 9.11669 18.6115 9.34541 18.7147 9.68569C18.8291 10.0622 18.7119 10.3942 18.366 10.6257C18.2935 10.6731 18.2935 10.6982 18.3549 10.754C18.7342 11.1054 18.7788 11.5182 18.4943 11.9673C18.4135 12.0928 18.3242 12.21 18.2154 12.3132C18.1568 12.3689 18.1541 12.4108 18.1959 12.4805C18.3158 12.673 18.3075 12.8766 18.2154 13.0802C18.0983 13.3396 17.9142 13.546 17.7106 13.7385C17.6492 13.797 17.6213 13.85 17.6464 13.9421C17.6966 14.1429 17.6297 14.3158 17.4791 14.4581C17.2531 14.6701 16.9826 14.8123 16.7009 14.9378C16.606 14.9797 16.5893 15.0159 16.6395 15.1108C16.8487 15.5236 16.8877 15.942 16.6339 16.3548C16.5614 16.4747 16.6534 16.4496 16.712 16.4496C17.3061 16.4496 17.9002 16.4496 18.4916 16.4496C18.8263 16.4496 18.9908 16.617 18.9908 16.9572C18.9936 17.4816 18.9406 18.0032 18.9518 18.5248C18.9574 18.7926 18.9908 19.0575 18.9964 19.3281C19.002 19.6293 18.9323 19.8636 18.6282 19.9808C18.5975 19.9808 18.5613 19.9808 18.525 19.9808ZM17.6353 9.31751C17.8891 8.73456 18.062 8.14324 18.1792 7.53798C18.2573 7.13633 18.327 6.73468 18.3075 6.32466C18.2907 5.98995 18.1345 5.84491 17.7998 5.86722C17.5404 5.88396 17.2866 5.94253 17.0328 5.99553C16.3606 6.1322 15.6912 6.27724 15.0217 6.41949C14.9241 6.44181 14.8404 6.43344 14.7484 6.37765C14.4248 6.1852 14.079 6.03737 13.722 5.91743C12.8601 5.62735 11.9787 5.53809 11.075 5.64129C10.9773 5.65245 10.8853 5.67755 10.7877 5.59667C9.90627 4.84636 8.95514 4.19368 7.98728 3.56331C7.76135 3.41269 7.53542 3.26765 7.28997 3.15608C7.03893 3.03893 6.85206 3.10309 6.72096 3.34575C6.69865 3.38759 6.67912 3.42943 6.66518 3.47127C6.48945 3.94265 6.39462 4.43355 6.297 4.92446C6.17985 5.51857 6.07107 6.11825 6.03202 6.72352C5.98739 7.44593 6.09059 8.15719 6.26074 8.85729C6.27747 8.92981 6.27468 8.97444 6.20774 9.01907C6.05712 9.12506 5.99297 9.27846 6.03481 9.45698C6.05991 9.56018 6.01528 9.57412 5.94276 9.59365C5.82283 9.62712 5.70289 9.66617 5.59411 9.73032C5.52996 9.76658 5.4658 9.80284 5.40723 9.85026C5.053 10.132 5.02789 10.5029 5.34587 10.8209C5.42118 10.8962 5.47417 10.9353 5.33471 11.0106C5.15341 11.1138 5.08926 11.323 5.13388 11.5294C5.17572 11.7163 5.27613 11.8697 5.39607 12.0147C5.43791 12.0649 5.4658 12.1012 5.42396 12.1709C5.29845 12.3857 5.34029 12.5893 5.49091 12.7762C5.58016 12.885 5.68615 12.9742 5.8033 13.0523C5.85351 13.083 5.88977 13.1165 5.88419 13.1834C5.86745 13.3703 5.96787 13.4986 6.10733 13.6074C6.3221 13.7747 6.55919 13.8947 6.80743 14.0034C6.98594 14.0815 7.16724 14.1568 7.36807 14.2405C7.01941 14.4413 6.83532 14.7342 6.76838 15.1052C6.6847 15.5654 6.71817 16.0117 6.93294 16.4329C6.99431 16.5528 6.95247 16.5612 6.84927 16.5556C6.72933 16.55 6.60939 16.55 6.48667 16.5556C6.32768 16.5612 6.22727 16.6616 6.22448 16.8206C6.22169 17.7494 6.22169 18.6754 6.22448 19.6042C6.22448 19.7911 6.36673 19.9055 6.54803 19.872C6.62055 19.8581 6.69028 19.833 6.7628 19.8106C7.95102 19.4397 9.16155 19.1719 10.3972 19.0324C11.3288 18.9292 12.2604 18.8735 13.2004 18.9153C13.9005 18.946 14.5978 18.999 15.2895 19.1022C16.3494 19.2584 17.3898 19.501 18.4135 19.8218C18.7175 19.9166 18.8876 19.7883 18.896 19.4704C18.9044 19.2054 18.8737 18.9432 18.8625 18.681C18.8374 18.1008 18.8876 17.5235 18.8932 16.9461C18.896 16.67 18.7788 16.5556 18.5083 16.5556C17.8584 16.5556 17.2113 16.5556 16.5614 16.5556C16.514 16.5556 16.461 16.5723 16.4108 16.5333C16.4219 16.5138 16.4331 16.4914 16.4443 16.4747C16.7845 16.034 16.7929 15.571 16.5251 15.0996C16.447 14.9629 16.4917 14.9267 16.6116 14.8765C16.8905 14.7621 17.1583 14.6171 17.387 14.419C17.5321 14.2907 17.6185 14.1317 17.546 13.9365C17.507 13.8333 17.5348 13.7775 17.6074 13.7106C17.811 13.5209 18.0007 13.3173 18.1234 13.0607C18.2238 12.8487 18.221 12.6479 18.0648 12.4638C18.0146 12.4052 18.0258 12.3717 18.076 12.3271C18.2043 12.2072 18.3186 12.0705 18.4135 11.9227C18.7035 11.4652 18.6227 11.0524 18.182 10.74C18.1513 10.7177 18.1094 10.7066 18.0955 10.6619C18.5892 10.4193 18.7565 10.1208 18.6254 9.71359C18.4971 9.3203 18.2294 9.21152 17.6353 9.31751Z" fill="#E5A336"/>
<path d="M17.6352 9.31767C18.2293 9.21168 18.4971 9.32325 18.6226 9.71095C18.7537 10.1182 18.5864 10.4166 18.0927 10.6593C18.1066 10.7011 18.1512 10.7151 18.1791 10.7374C18.6198 11.0498 18.7007 11.4654 18.4106 11.92C18.3158 12.0706 18.2014 12.2045 18.0731 12.3245C18.0257 12.3691 18.0146 12.4026 18.062 12.4611C18.2182 12.6452 18.221 12.8461 18.1206 13.058C17.9978 13.3147 17.8082 13.5183 17.6045 13.7079C17.532 13.7749 17.5041 13.8307 17.5432 13.9339C17.6157 14.1291 17.5292 14.2881 17.3842 14.4164C17.1555 14.6172 16.8905 14.7595 16.6088 14.8738C16.4889 14.924 16.4442 14.9603 16.5223 15.097C16.7929 15.5684 16.7817 16.0342 16.4414 16.4721C16.4275 16.4888 16.4191 16.5083 16.408 16.5306C16.4582 16.5697 16.5112 16.553 16.5586 16.553C17.2085 16.5557 17.8556 16.553 18.5055 16.553C18.776 16.553 18.8932 16.6701 18.8904 16.9435C18.8848 17.5208 18.8346 18.101 18.8597 18.6784C18.8709 18.9405 18.9015 19.2027 18.8932 19.4677C18.8848 19.7857 18.7147 19.914 18.4106 19.8192C17.387 19.4984 16.3466 19.2557 15.2867 19.0995C14.595 18.9991 13.8976 18.9433 13.1975 18.9127C12.2604 18.8708 11.326 18.9238 10.3944 19.0298C9.15873 19.1693 7.94819 19.4342 6.75998 19.808C6.69025 19.8303 6.61773 19.8554 6.54521 19.8694C6.36391 19.9028 6.22165 19.7885 6.22165 19.6016C6.21887 18.6728 6.21887 17.7468 6.22165 16.8179C6.22165 16.6589 6.32207 16.5585 6.48384 16.553C6.60378 16.5474 6.72651 16.5474 6.84644 16.553C6.94965 16.5585 6.99148 16.5502 6.93012 16.4302C6.71535 16.0091 6.68188 15.5628 6.76556 15.1026C6.8325 14.7316 7.01659 14.4387 7.36524 14.2379C7.16442 14.1542 6.98312 14.0789 6.80461 14.0008C6.55915 13.892 6.31928 13.7693 6.10451 13.6047C5.96504 13.496 5.86742 13.3676 5.88137 13.1808C5.88695 13.1138 5.85069 13.0804 5.80048 13.0497C5.68333 12.9744 5.57734 12.8851 5.48808 12.7735C5.33747 12.5867 5.29563 12.383 5.42114 12.1683C5.46298 12.0985 5.43509 12.0595 5.39325 12.0121C5.27331 11.867 5.1729 11.7164 5.13106 11.5267C5.08643 11.3203 5.15059 11.1084 5.33189 11.0079C5.46856 10.9326 5.41835 10.8936 5.34304 10.8183C5.02786 10.5031 5.05296 10.1321 5.40441 9.8532C5.46298 9.80857 5.52713 9.76953 5.59129 9.73327C5.70007 9.6719 5.82 9.63006 5.93994 9.59659C6.01246 9.57707 6.05709 9.56033 6.03199 9.45992C5.99015 9.28141 6.0543 9.128 6.20492 9.02201C6.27186 8.97459 6.27465 8.92996 6.25791 8.86023C6.09056 8.16013 5.98457 7.44888 6.0292 6.72646C6.06825 6.1212 6.17703 5.52151 6.29417 4.9274C6.3918 4.4365 6.48663 3.94559 6.66235 3.47421C6.67909 3.42958 6.69583 3.38774 6.71814 3.34869C6.85202 3.10324 7.03611 3.04188 7.28714 3.15903C7.5326 3.27338 7.75853 3.41843 7.98445 3.56347C8.95232 4.19383 9.90345 4.84652 10.7849 5.59682C10.8797 5.67771 10.9745 5.65261 11.0721 5.64145C11.9759 5.53825 12.8573 5.6275 13.7191 5.91758C14.0762 6.03752 14.4192 6.18814 14.7456 6.37781C14.8404 6.43359 14.9213 6.43917 15.0189 6.41965C15.6883 6.2774 16.3578 6.13236 17.03 5.99568C17.2838 5.94269 17.5376 5.88411 17.797 5.86738C18.1317 5.84506 18.2907 5.9901 18.3046 6.32481C18.3242 6.73483 18.2544 7.13648 18.1763 7.53813C18.0592 8.1434 17.889 8.73472 17.6352 9.31767ZM9.16988 5.76418C9.17825 5.77254 9.18941 5.78091 9.19777 5.79207V5.78928C9.20893 5.80044 9.2173 5.81159 9.22846 5.82275C9.25635 5.84785 9.28145 5.87296 9.30934 5.89527C9.40697 6.00684 9.50738 6.11283 9.605 6.22719C9.72773 6.36944 9.72773 6.42802 9.57153 6.54237C9.39581 6.67068 9.21451 6.79341 9.02484 6.8994C8.3359 7.28431 7.75853 7.78638 7.36803 8.4809C7.32898 8.54784 7.27878 8.61199 7.22578 8.66778C7.13653 8.75982 7.05843 8.75145 6.9887 8.64267C6.92454 8.54505 6.89386 8.43069 6.87155 8.31633C6.74882 7.76127 6.72372 7.19785 6.7293 6.62884C6.7293 6.58421 6.74603 6.53959 6.72093 6.49496C6.47548 6.587 6.47548 6.587 6.47269 6.83803C6.4699 6.91334 6.46432 6.98586 6.46432 7.06117C6.4699 7.81427 6.61494 8.54226 6.82134 9.26188C6.8325 9.30093 6.84366 9.34277 6.84366 9.38461C6.84644 9.46829 6.8074 9.49618 6.7293 9.45434C6.6763 9.42645 6.63167 9.38461 6.57031 9.37345C6.53963 9.36787 6.50337 9.35393 6.48105 9.39019C6.46711 9.41529 6.48384 9.44318 6.49779 9.46829C6.55357 9.54918 6.60936 9.62727 6.66514 9.70537C6.77114 9.85041 6.75719 9.88667 6.58426 9.91178C6.52847 9.92014 6.47269 9.92572 6.41969 9.93409C6.18261 9.97314 5.94552 10.0233 5.73354 10.1489C5.52156 10.2744 5.5104 10.3832 5.68612 10.5477C5.70843 10.57 5.73633 10.5896 5.76143 10.6091C5.96226 10.7681 6.19097 10.8852 6.40296 11.0219C6.44758 11.0526 6.48663 11.047 6.53405 11.0275C6.76277 10.9354 6.99706 10.8601 7.23415 10.8043C7.32062 10.7848 7.33456 10.7569 7.30388 10.6732C7.22578 10.4668 7.27878 10.3274 7.46845 10.2158C7.52423 10.1823 7.58559 10.16 7.64417 10.1321C7.68601 10.1238 7.72506 10.1182 7.76689 10.1098C8.00398 10.0596 8.24385 10.0373 8.48652 10.0708C8.67619 10.0987 8.70966 10.1768 8.59809 10.3274C8.55346 10.3859 8.50046 10.4389 8.45305 10.4975C8.43631 10.517 8.40563 10.5394 8.42794 10.5672C8.4391 10.5812 8.46978 10.5812 8.4921 10.5784C8.64829 10.5672 8.80728 10.5505 8.96348 10.5449C9.61337 10.5143 10.2605 10.5143 10.9076 10.57C11.3343 10.6063 11.7555 10.6677 12.1572 10.8239C12.2436 10.8573 12.3245 10.8601 12.4138 10.8378C13.1473 10.6705 13.8586 10.6928 14.5224 11.0972C14.5615 11.1195 14.5977 11.1251 14.6396 11.1223C15.4652 11.0358 16.2378 11.1641 16.9128 11.6857C17.0997 11.8475 17.2643 12.026 17.3619 12.2603C17.387 12.3217 17.4177 12.3217 17.4623 12.2826C17.6854 12.0985 17.8946 11.9061 18.0536 11.6606C18.1178 11.5602 18.1596 11.4542 18.1233 11.3176C18.0452 11.7471 17.7691 11.881 17.3926 11.6774C17.2447 11.5965 17.122 11.4821 16.9965 11.3733C16.9491 11.3176 16.9017 11.2618 16.857 11.2032C16.6646 10.9577 16.6897 10.8936 16.9937 10.849C17.0885 10.8545 17.1806 10.8629 17.2754 10.8685C17.3145 10.8769 17.3507 10.888 17.3981 10.8685C17.3842 10.8573 17.3758 10.849 17.3647 10.8434C17.3451 10.835 17.3228 10.8322 17.3005 10.8266C17.2475 10.7709 17.2754 10.7262 17.3256 10.6872C17.3842 10.6398 17.4316 10.584 17.4679 10.517C17.5013 10.4585 17.493 10.425 17.4177 10.4166C17.3033 10.4055 17.1862 10.4083 17.0746 10.3692C16.9853 10.3385 16.9351 10.2911 16.9937 10.1935C17.0216 10.1461 17.03 10.1014 17.016 10.0484C16.9742 9.90062 16.9435 9.75279 16.8961 9.60775C16.4833 8.34143 15.6688 7.40425 14.5252 6.7432C14.1403 6.52006 13.7331 6.34155 13.2952 6.24393L13.2868 6.24672C13.2673 6.22161 13.2422 6.21882 13.2143 6.22161C13.2115 6.21603 13.2059 6.21324 13.2003 6.21882C13.192 6.21324 13.1864 6.20488 13.178 6.20488C12.5672 6.04868 11.9508 5.9901 11.3232 6.05147C11.1224 6.07099 10.9187 6.09052 10.7179 6.11283C10.3525 5.74465 9.92856 5.4462 9.51854 5.12823C9.40697 5.04176 9.33445 5.01387 9.26472 5.1617C9.2424 5.20912 9.18662 5.2398 9.14757 5.27606C9.02205 5.34021 8.88538 5.37089 8.70408 5.37647C8.84912 5.49362 8.9579 5.58288 9.06668 5.66934C9.07784 5.67771 9.08899 5.68887 9.09736 5.69723C9.10573 5.71955 9.12247 5.73349 9.14757 5.73349C9.15036 5.74465 9.15873 5.75302 9.16988 5.76418ZM17.3284 19.1442C17.44 19.1693 17.4902 19.0967 17.5181 19.0075C17.5627 18.868 17.5404 18.723 17.5404 18.5807C17.5404 18.5389 17.5069 18.5305 17.4707 18.5305C17.3786 18.4943 17.281 18.4915 17.1862 18.472C17.1248 18.4608 17.0997 18.4775 17.1025 18.5417C17.1025 18.5752 17.122 18.6198 17.0857 18.6449C17.0104 18.6951 16.7901 18.5807 16.7901 18.4887C16.7901 18.1317 16.7901 17.7746 16.7901 17.4176C16.7901 17.3507 16.7985 17.2837 16.8849 17.3088C16.9602 17.3312 17.1025 17.2335 17.1025 17.4093C17.1025 17.4901 17.1304 17.5097 17.2057 17.5125C17.5599 17.5348 17.5069 17.5766 17.5097 17.2335C17.5097 17.214 17.5097 17.1973 17.5097 17.1777C17.4958 16.9741 17.3842 16.8654 17.1806 16.8598C17.0328 16.857 16.8849 16.857 16.7343 16.857C16.5279 16.857 16.4247 16.9462 16.408 17.1554C16.394 17.3451 16.3968 17.5348 16.3968 17.7244C16.3968 18.0396 16.3968 18.3548 16.408 18.67C16.4135 18.8401 16.5028 18.974 16.6757 19.0186C16.8738 19.0689 17.0746 19.1023 17.2726 19.1442C17.2922 19.1665 17.3117 19.1693 17.3284 19.1442ZM15.4903 7.25642C15.5377 7.30105 15.5907 7.3401 15.6298 7.3903C15.7079 7.48793 15.7915 7.50466 15.9087 7.45446C16.0454 7.39588 16.1876 7.35683 16.3299 7.3122C16.4108 7.2871 16.4749 7.27037 16.3801 7.17553C16.3103 7.1058 16.2908 7.00539 16.2518 6.91613C16.2406 6.85198 16.2239 6.78783 16.2211 6.72367C16.2211 6.62047 16.1709 6.59816 16.0816 6.62047C15.9645 6.64837 15.8473 6.67347 15.7302 6.69857C15.4931 6.74878 15.256 6.80177 14.991 6.85756C15.1751 7.00818 15.3313 7.13369 15.4903 7.25642ZM11.3455 17.9253C11.4069 17.9225 11.4654 17.9141 11.5268 17.9197C11.6356 17.9253 11.6802 17.8778 11.669 17.7719C11.6635 17.73 11.6663 17.6882 11.669 17.6463C11.6746 17.5794 11.6356 17.5543 11.577 17.5543C11.5352 17.5543 11.4933 17.5515 11.4515 17.5571C11.3539 17.571 11.3148 17.532 11.326 17.4344C11.3315 17.3981 11.3288 17.359 11.326 17.3228C11.3176 17.2363 11.3539 17.2084 11.4375 17.2112C11.5352 17.2168 11.6328 17.2056 11.7276 17.2112C11.8894 17.2196 11.8531 17.108 11.8587 17.0132C11.8671 16.91 11.8476 16.843 11.722 16.8486C11.5519 16.8542 11.379 16.8486 11.2088 16.8486C10.9132 16.8486 10.9132 16.8486 10.9132 17.1443C10.9132 17.6129 10.9132 18.0787 10.9159 18.5473C10.9159 18.5891 10.8825 18.67 10.9745 18.6533C11.0749 18.6365 11.1781 18.6588 11.2758 18.6198C11.3622 18.6309 11.3455 18.5696 11.3455 18.5194C11.3455 18.3241 11.3455 18.1261 11.3455 17.9253ZM15.4847 18.8039C15.5879 18.8318 15.5545 18.7509 15.56 18.7035C15.5851 18.5166 15.521 18.3297 15.5684 18.1428C15.627 18.2962 15.6967 18.4496 15.7385 18.6086C15.786 18.8011 15.8724 18.9127 16.0872 18.9182C16.1988 18.921 16.2322 18.9099 16.2322 18.7927C16.2267 18.2181 16.2295 17.6436 16.2295 17.0662C16.2295 16.8598 16.2295 16.857 16.0175 16.857C15.7999 16.857 15.8362 16.8347 15.8334 17.0411C15.8306 17.214 15.8334 17.3842 15.8334 17.5571C15.8194 17.5599 15.8027 17.5599 15.7888 17.5627C15.719 17.3758 15.6465 17.1889 15.5823 16.9992C15.5489 16.8988 15.4931 16.8403 15.3815 16.8542C15.3397 16.8598 15.2978 16.857 15.256 16.8514C15.1556 16.8375 15.1221 16.8681 15.1221 16.9797C15.1277 17.4567 15.1249 17.9364 15.1249 18.4134C15.1277 18.7648 15.1277 18.7648 15.4847 18.8039ZM7.02496 5.25096C7.01659 5.27327 7.00822 5.29279 7.00264 5.31511C6.85481 6.08773 6.82413 6.86593 6.89944 7.6497C6.92733 7.93421 6.96359 8.21871 7.05843 8.49205C7.0919 8.58689 7.12537 8.58968 7.18115 8.50879C7.44055 8.11551 7.69716 7.72222 8.0514 7.3903C7.80315 7.35125 7.75295 7.26479 7.86731 7.0807C7.90915 7.01376 7.85615 7.01097 7.82826 6.99144C7.72784 6.9245 7.69158 6.84361 7.75853 6.73204C7.81431 6.70694 7.8701 6.67905 7.92588 6.65394C7.78642 6.49775 7.78921 6.46707 7.95935 6.33318C8.00956 6.29413 7.96772 6.26903 7.95656 6.24114C7.9203 6.13793 7.93704 6.05984 8.0514 6.02079C8.0765 6.01242 8.1295 6.02079 8.10997 5.96779C8.04024 5.79486 8.16854 5.75581 8.29406 5.71397C8.24385 5.63587 8.21596 5.56056 8.2829 5.49083C8.3359 5.43226 8.41679 5.43505 8.50883 5.41552C8.10439 5.1087 7.7139 4.82978 7.30388 4.57875C7.25367 4.54807 7.20905 4.51739 7.18394 4.60664C7.11421 4.81862 7.04448 5.03061 7.02496 5.25096ZM13.4876 15.5544C13.4486 15.4679 13.4012 15.3815 13.3677 15.2894C13.337 15.203 13.2896 15.1723 13.1948 15.1695C13.0023 15.1639 12.8071 15.1416 12.6146 15.1221C12.2604 15.0858 11.9089 15.0384 11.5603 14.9742C11.4515 14.9547 11.4124 14.9742 11.4403 15.097C11.4626 15.189 11.4487 15.2894 11.4515 15.3871C11.3929 15.7385 11.2228 16.023 10.955 16.2517C10.8323 16.3577 10.6928 16.433 10.5617 16.5279C10.5506 16.5306 10.5366 16.5306 10.5422 16.5474C10.5422 16.5502 10.5561 16.5474 10.5645 16.5474C11.5826 16.5474 12.6006 16.5474 13.6187 16.5474C13.8223 16.5474 14.0259 16.5474 14.2547 16.5474C14.1766 16.4721 14.118 16.4163 14.0566 16.3605C14.0232 16.3326 13.9953 16.3103 13.9618 16.3689C13.853 16.5613 13.8251 16.5697 13.6271 16.4972C13.5852 16.4274 13.5797 16.3689 13.6857 16.3717C13.7331 16.3717 13.7944 16.4302 13.8195 16.3633C13.8474 16.2824 13.8893 16.1876 13.8363 16.1011C13.7247 15.917 13.6048 15.7385 13.4876 15.5544ZM13.8753 11.0191C14.0566 11.1251 14.0594 11.1781 13.8921 11.3036C13.7721 11.3957 13.6327 11.4486 13.4625 11.5184C13.6104 11.5379 13.7247 11.5546 13.8363 11.5714C14.4081 11.6578 14.9687 11.7973 15.5098 12.0065C15.5796 12.0344 15.6437 12.0539 15.6381 12.1571C15.6074 12.648 15.4959 13.1166 15.256 13.5489C15.097 13.8362 15.097 13.8334 15.3146 14.0873C15.4568 14.2881 15.6298 14.4638 15.7915 14.6451C15.8334 14.6897 15.8724 14.6897 15.9254 14.673C16.2797 14.5503 16.6255 14.4052 16.9435 14.2044C17.1527 14.0733 17.1499 14.0705 16.9686 13.9088C16.8654 13.8167 16.8654 13.7665 16.9742 13.6773C17.0634 13.6047 17.1527 13.5294 17.2364 13.4513C17.4093 13.2895 17.5739 13.1222 17.6994 12.9186C17.7663 12.8098 17.7496 12.7289 17.638 12.662C17.5543 12.6118 17.4651 12.5727 17.373 12.5448C17.3089 12.5253 17.281 12.4918 17.2615 12.4221C17.2029 12.2129 17.0885 12.0344 16.9156 11.9005C16.8849 11.867 16.8542 11.8308 16.8208 11.8029C16.182 11.2869 15.4401 11.1781 14.6507 11.259C14.5782 11.2673 14.5196 11.2618 14.4555 11.2227C14.2742 11.1111 14.0817 11.0219 13.8725 10.9689C13.6578 10.888 13.4374 10.8629 13.2087 10.8824C13.1111 10.8796 13.0135 10.8769 12.9186 10.8992C12.5142 10.9884 12.1125 11.0331 11.7248 10.835C11.7137 10.8294 11.6969 10.8294 11.683 10.8266C10.5952 10.6147 9.5018 10.637 8.40842 10.7346C8.29685 10.7458 8.17691 10.7346 8.07371 10.8043C7.96214 10.8796 7.83384 10.9243 7.70274 10.9494C7.47402 10.8685 7.25646 10.9382 7.04169 11.0052C6.92175 11.0414 6.79345 11.0665 6.68746 11.1251C6.43922 11.2646 6.16866 11.2785 5.89531 11.2897C5.86742 11.2897 5.83953 11.2925 5.81164 11.2952C5.52434 11.3287 5.49087 11.3901 5.65265 11.6272C5.78653 11.8252 5.94831 11.9953 6.14635 12.1292C6.18261 12.1543 6.21887 12.1766 6.20492 12.2268C6.19097 12.2715 6.14913 12.2687 6.11287 12.2743C6.04593 12.2854 5.9762 12.2994 5.90926 12.3217C5.76143 12.3719 5.75027 12.4277 5.85905 12.5365C6.00967 12.6843 6.19655 12.7791 6.37785 12.8823C6.43922 12.9158 6.54242 12.9214 6.54521 13.0078C6.548 13.0943 6.44479 13.0887 6.38901 13.1194C6.29696 13.1696 6.30254 13.2087 6.38064 13.2672C6.49779 13.3509 6.62052 13.4262 6.74882 13.4932C7.32062 13.7832 7.93425 13.9645 8.53951 14.1654C8.88538 14.2797 9.22288 14.2323 9.56595 14.1821C9.86998 14.1542 10.1684 14.0956 10.478 14.1319C10.7793 14.1682 11.0582 14.2686 11.2032 14.5335C11.3399 14.7874 11.5324 14.8655 11.7862 14.8766C11.8643 14.8794 11.9424 14.8961 12.0205 14.9073C12.3915 14.9603 12.7652 15.0105 13.139 15.0189C13.1697 15.0189 13.2143 15.0468 13.231 14.9938C13.2561 14.9129 13.1752 14.8097 13.0916 14.8125C12.8963 14.8236 12.7011 14.8264 12.5086 14.8097C11.6607 14.7372 11.1307 14.249 10.9857 13.4123C10.8825 12.8126 10.9522 12.2213 11.0889 11.6355C11.1196 11.5016 11.1837 11.4459 11.3176 11.4319C11.8699 11.3705 12.4193 11.4319 12.9688 11.471C13.1027 11.4821 13.2394 11.5463 13.4095 11.4933C13.3007 11.4235 13.2171 11.3789 13.139 11.3203C13.0525 11.2534 12.9242 11.1948 12.9437 11.0721C12.966 10.9466 13.1111 10.9633 13.2087 10.9298C13.4374 10.9243 13.6578 10.9689 13.8753 11.0191ZM14.4332 13.2672C14.4137 13.2254 14.4053 13.2003 14.3913 13.178C14.0901 12.6006 13.6271 12.1934 13.0358 11.9312C12.5086 11.6969 11.9647 11.524 11.3734 11.5686C11.2785 11.577 11.2367 11.6104 11.2172 11.7025C11.1056 12.2101 11.0247 12.7233 11.0945 13.2449C11.1447 13.6131 11.2451 13.9645 11.5156 14.2379C11.9508 14.6786 12.503 14.7176 13.0776 14.6758C13.1641 14.6702 13.1557 14.6172 13.1446 14.5587C13.0246 13.8083 13.5992 13.1166 14.4332 13.2672ZM7.61628 18.0619C7.61349 18.0898 7.61349 18.1177 7.61628 18.1456C7.62464 18.419 7.58838 18.6923 7.63859 18.9629C7.67206 19.1525 7.76968 19.2083 7.95935 19.1665C8.06813 19.1414 8.17412 19.1135 8.2829 19.0912C8.62319 19.0214 8.73476 18.8903 8.74034 18.5389C8.74313 18.1791 8.74313 17.8165 8.74313 17.4567C8.74313 17.3451 8.7515 17.2363 8.72639 17.1248C8.68455 16.949 8.60088 16.8654 8.42237 16.857C8.25501 16.8486 8.09045 16.8542 7.92309 16.857C7.792 16.8598 7.70832 16.9295 7.66648 17.055C7.63301 17.1526 7.62185 17.2531 7.62185 17.3563C7.61628 17.5906 7.61628 17.8249 7.61628 18.0619ZM12.9744 17.9699C12.9884 17.9671 12.9995 17.9671 13.0135 17.9643C13.072 18.0982 13.1306 18.2349 13.1864 18.3688C13.2868 18.6142 13.2868 18.6114 13.5518 18.617C13.6606 18.6198 13.6968 18.5863 13.694 18.4747C13.6885 17.9838 13.6885 17.4929 13.694 16.9992C13.6968 16.8821 13.655 16.8458 13.5434 16.8458C13.284 16.8458 13.284 16.8402 13.284 17.108C13.284 17.228 13.284 17.3479 13.284 17.4678C13.2701 17.4678 13.2561 17.4706 13.2422 17.4706C13.1864 17.3451 13.1334 17.2168 13.0776 17.0913C12.9716 16.843 12.9716 16.8486 12.6955 16.8458C12.6006 16.8458 12.57 16.8709 12.57 16.9686C12.5755 17.4176 12.5728 17.8667 12.5728 18.3185C12.5728 18.5975 12.5728 18.5947 12.8489 18.5919C12.9437 18.5919 12.9828 18.564 12.9772 18.4636C12.9688 18.3018 12.9744 18.1345 12.9744 17.9699ZM17.6631 18.0536C17.6631 18.4162 17.6659 18.776 17.6603 19.1386C17.6603 19.2251 17.6799 19.2697 17.7719 19.2892C17.9755 19.3366 18.1736 19.3952 18.3744 19.4566C18.6366 19.5374 18.5975 19.5179 18.5975 19.2948C18.5947 18.921 18.6394 19.0019 18.2963 18.9099C18.0452 18.8429 18.0676 18.9099 18.0676 18.6114C18.0676 18.3799 18.0676 18.3771 18.2907 18.4106C18.3827 18.4245 18.433 18.4078 18.4246 18.299C18.4162 18.207 18.419 18.1149 18.4246 18.0201C18.4274 17.9336 18.3911 17.9002 18.3046 17.8862C18.0648 17.8472 18.0648 17.8444 18.0676 17.6045C18.0676 17.571 18.0703 17.5403 18.0676 17.5069C18.0592 17.4148 18.0843 17.3674 18.1903 17.3814C18.2851 17.3925 18.3855 17.3869 18.4804 17.3953C18.5613 17.4037 18.6031 17.3786 18.5975 17.2893C18.5919 17.1889 18.5919 17.0857 18.5975 16.9825C18.6003 16.8932 18.564 16.857 18.4748 16.8598C18.2377 16.8626 18.0034 16.8626 17.7663 16.8542C17.6771 16.8514 17.6575 16.8821 17.6603 16.963C17.6659 17.3312 17.6631 17.691 17.6631 18.0536ZM14.9687 17.9085C14.9687 17.677 14.9715 17.4455 14.9659 17.214C14.9603 16.9686 14.8488 16.8598 14.6033 16.8542C14.4778 16.8514 14.3523 16.8514 14.2268 16.8514C13.9395 16.8514 13.8474 16.9435 13.8446 17.2363C13.8419 17.6073 13.8446 17.9783 13.8446 18.3492C13.8446 18.6393 13.8446 18.6365 14.1347 18.6533C14.2184 18.6588 14.2547 18.6337 14.2519 18.5473C14.2491 18.4078 14.2519 18.2683 14.2519 18.1289C14.2519 17.9392 14.2519 17.9448 14.4388 17.9476C14.5308 17.9504 14.5615 17.9783 14.5531 18.0703C14.5447 18.1819 14.5503 18.2934 14.5503 18.405C14.5503 18.7118 14.5503 18.709 14.8516 18.7258C14.9352 18.7314 14.9687 18.7035 14.9659 18.617C14.9659 18.3799 14.9687 18.1428 14.9687 17.9085ZM9.51296 17.2893C9.44881 17.2503 9.44044 17.2029 9.42091 17.161C9.28424 16.8458 9.28424 16.8486 8.94674 16.8598C8.86307 16.8626 8.8547 16.8849 8.88817 16.9574C9.00811 17.228 9.11689 17.5041 9.23682 17.7746C9.26751 17.8444 9.26751 17.9002 9.23961 17.9699C9.1141 18.2879 8.99137 18.6058 8.87143 18.921C9.18383 18.9573 9.37908 18.8429 9.43486 18.5333C9.43486 18.5277 9.43765 18.525 9.43765 18.5194C9.45717 18.4859 9.4516 18.4245 9.49901 18.4218C9.54922 18.419 9.54922 18.4803 9.56595 18.5138C9.70821 18.8122 9.70821 18.8122 10.0234 18.7592C10.029 18.7592 10.0318 18.7592 10.0373 18.7565C10.1238 18.7509 10.135 18.7118 10.0987 18.6365C10.0094 18.458 9.93971 18.2711 9.8393 18.0982C9.73331 17.9141 9.71936 17.744 9.82814 17.5543C9.89787 17.4316 9.9425 17.2921 10.0011 17.161C10.1433 16.8403 10.1433 16.843 9.7863 16.8514C9.71378 16.8542 9.68031 16.8793 9.65521 16.9435C9.61616 17.0606 9.56595 17.1666 9.51296 17.2893ZM6.52289 18.1875C6.52289 18.5445 6.52289 18.9015 6.52289 19.2585C6.52289 19.5347 6.52289 19.5319 6.78508 19.4566C6.89107 19.4259 6.9357 19.3757 6.93291 19.2613C6.92454 19.0075 6.93291 18.7509 6.93012 18.4971C6.93012 18.4217 6.95522 18.3939 7.02775 18.3771C7.2732 18.3185 7.2732 18.3158 7.2732 18.0564C7.2732 18.0285 7.27041 18.0006 7.2732 17.9727C7.28714 17.8667 7.24531 17.8332 7.13931 17.8472C6.93291 17.8751 6.93291 17.8723 6.93291 17.6659C6.93291 17.6436 6.93291 17.6184 6.93291 17.5961C6.93291 17.3897 6.93291 17.3897 7.13374 17.3702C7.47123 17.3339 7.46566 17.3339 7.46845 16.9992C7.46845 16.8821 7.42382 16.857 7.32062 16.8598C7.09469 16.8654 6.86597 16.8654 6.64004 16.8598C6.548 16.857 6.52289 16.8849 6.52289 16.9769C6.52568 17.3814 6.52289 17.7858 6.52289 18.1875ZM16.8068 8.98575C16.8877 8.81003 16.963 8.65662 17.0272 8.50042C17.1973 8.09319 17.3396 7.68038 17.4149 7.24247C17.4344 7.1309 17.3981 7.11417 17.3005 7.14764C17.1304 7.20621 16.9574 7.25642 16.7845 7.3122C16.751 7.32336 16.7008 7.32336 16.7287 7.37915C16.7873 7.50187 16.7092 7.55208 16.6088 7.58555C16.6646 7.67481 16.7957 7.7529 16.6618 7.85611C16.5976 7.90631 16.6172 7.92026 16.6562 7.96489C16.7259 8.04856 16.7204 8.13224 16.6088 8.17408C16.5474 8.19918 16.5391 8.21592 16.5809 8.26891C16.6283 8.33028 16.6395 8.39722 16.5725 8.45579C16.5391 8.48369 16.5474 8.51158 16.5642 8.54226C16.6395 8.68172 16.7176 8.82118 16.8068 8.98575ZM12.0093 17.7133C12.0093 17.9169 12.0093 18.1205 12.0093 18.3241C12.0093 18.6003 12.0093 18.5947 12.2855 18.5919C12.3887 18.5919 12.4193 18.5556 12.4193 18.4524C12.4138 18.0173 12.4193 17.5822 12.4166 17.1471C12.4138 16.8263 12.4835 16.8486 12.1125 16.8458C12.0344 16.8458 12.0093 16.8681 12.0093 16.9462C12.0121 17.2029 12.0093 17.4567 12.0093 17.7133ZM15.8641 16.4079C15.8892 16.4219 15.9087 16.4163 15.9282 16.4023C16.2211 16.1904 16.341 15.772 16.2016 15.4317C16.1179 15.2281 16.0035 15.044 15.8445 14.8906C15.5517 14.6061 15.2867 14.2965 15.044 13.9701C14.9046 13.7832 14.7456 13.6159 14.5475 13.4904C14.3858 13.3872 14.2128 13.3649 14.0287 13.4151C14.3718 13.496 14.6005 13.7302 14.8041 13.9924C15.0691 14.3327 15.3425 14.6646 15.6521 14.9659C15.8139 15.1221 15.9282 15.3145 16.0119 15.5209C16.1262 15.8054 16.1067 16.0732 15.9171 16.3215C15.8947 16.3438 15.8641 16.3689 15.8641 16.4079ZM7.17 3.57462C7.16163 3.58578 7.15326 3.59415 7.14489 3.6053C7.19789 3.73082 7.29551 3.82565 7.39871 3.90654C7.90357 4.31098 8.414 4.71263 8.92164 5.11149C9.02205 5.18959 9.08899 5.17565 9.16988 5.06408C9.23961 4.96924 9.20335 4.91067 9.1141 4.84931C8.66224 4.53412 8.20202 4.21894 7.73342 3.92328C7.54933 3.80334 7.35966 3.68898 7.17 3.57462ZM17.1136 10.994C17.0439 10.994 17.0076 10.994 16.9714 10.994C16.9017 10.994 16.8877 11.0247 16.9268 11.0777C17.1025 11.3064 17.3005 11.5128 17.5794 11.616C17.7412 11.6774 17.8779 11.6132 17.942 11.4598C17.9978 11.3315 17.9532 11.2395 17.7886 11.153C17.5711 11.0358 17.3284 11.0079 17.1136 10.994ZM17.4483 10.2939C17.6994 10.2855 17.9058 10.2744 18.0899 10.1628C18.2098 10.0903 18.2433 9.97593 18.1987 9.83926C18.1624 9.7249 18.0843 9.66632 17.9671 9.68864C17.6324 9.75279 17.387 9.96198 17.1583 10.1935C17.122 10.2325 17.1304 10.2576 17.1862 10.2632C17.2866 10.2744 17.387 10.3023 17.4483 10.2939ZM8.2829 10.1907C8.02908 10.2074 7.78363 10.2102 7.56049 10.3274C7.47681 10.372 7.39592 10.4306 7.40429 10.5366C7.41266 10.637 7.46287 10.7234 7.55491 10.7709C7.64696 10.8183 7.74458 10.8043 7.83662 10.7681C8.04303 10.6872 8.21317 10.5533 8.36379 10.3943C8.40842 10.3469 8.50046 10.2967 8.47536 10.2353C8.44468 10.1712 8.34148 10.2102 8.2829 10.1907ZM17.3145 8.14061C17.2085 8.42232 17.1276 8.6873 16.9798 8.91323C16.8375 9.13637 16.9184 9.31488 17.0216 9.52686C17.2141 9.20889 17.3368 8.88255 17.4511 8.55342C17.4567 8.53389 17.4567 8.50321 17.4456 8.48926C17.3786 8.39443 17.3619 8.27728 17.3145 8.14061ZM13.4095 11.0386C13.4039 11.0386 13.3816 11.0358 13.3593 11.0386C13.3259 11.0442 13.2756 11.0303 13.2673 11.0777C13.2617 11.1195 13.3063 11.1363 13.3398 11.153C13.4486 11.2004 13.5574 11.2283 13.6745 11.1865C13.7024 11.1781 13.7359 11.1697 13.7387 11.1418C13.7442 11.1028 13.6996 11.0944 13.6717 11.0833C13.5936 11.0526 13.5099 11.047 13.4095 11.0386ZM17.4762 10.9047C17.4846 10.902 17.493 10.8992 17.5013 10.8964C17.493 10.8936 17.4846 10.8852 17.479 10.8852C17.4707 10.8852 17.4623 10.8908 17.4539 10.8936C17.4595 10.8964 17.4679 10.8992 17.4762 10.9047ZM8.38332 10.5924L8.38889 10.584H8.38053L8.38332 10.5924Z" fill="#630E04"/>
<path d="M13.2812 6.25234L13.2896 6.24955C13.3203 6.29975 13.3705 6.32486 13.4179 6.34996C14.0036 6.66793 14.5308 7.06958 15.0245 7.51028C15.1305 7.60512 15.2476 7.69437 15.2923 7.83941C15.256 7.83663 15.2198 7.82826 15.1807 7.83105C14.8181 7.83941 14.6201 8.16855 14.8014 8.46699C14.885 8.60646 15.0161 8.66782 15.1723 8.67898C15.3899 8.69292 15.6019 8.73197 15.8139 8.78776C15.8892 8.80728 15.9673 8.8296 16.0426 8.79055C16.1179 8.83796 16.1737 8.9049 16.2239 8.97742C16.394 9.21451 16.5391 9.46833 16.6534 9.7361C16.8068 10.0959 16.9463 10.4613 16.9937 10.8546C16.6897 10.902 16.6646 10.9634 16.857 11.2088C16.9017 11.2674 16.9491 11.3232 16.9965 11.379C16.9686 11.4822 16.9379 11.5854 16.91 11.6914C16.235 11.1698 15.4624 11.0415 14.6368 11.1279C14.5922 11.1335 14.5559 11.1279 14.5197 11.1028C13.8558 10.6984 13.1446 10.6761 12.411 10.8434C12.3217 10.863 12.2408 10.863 12.1544 10.8295C11.7527 10.6733 11.3316 10.6119 10.9048 10.5757C10.2577 10.5199 9.6078 10.5199 8.9607 10.5506C8.8045 10.5589 8.64551 10.5757 8.48932 10.584C8.467 10.5868 8.43632 10.584 8.42516 10.5729C8.40285 10.545 8.43353 10.5227 8.45027 10.5031C8.49768 10.4474 8.55068 10.3944 8.59531 10.333C8.70967 10.1824 8.67341 10.1043 8.48374 10.0764C8.24107 10.0429 8.00399 10.0652 7.76411 10.1154C7.72228 10.1238 7.68323 10.1322 7.64139 10.1377C7.66091 9.98713 7.68044 9.83651 7.69996 9.6831C7.9482 9.70263 8.19924 9.711 8.44469 9.64963C8.52837 9.63011 8.63715 9.63011 8.66225 9.52969C8.68735 9.43765 8.60089 9.38186 8.54231 9.32329C8.37496 9.15873 8.17134 9.04716 7.96773 8.93838C7.96773 8.8798 7.99562 8.83238 8.02072 8.78218C8.31917 8.14344 8.74593 7.60233 9.29262 7.15884C9.58828 6.91897 9.90904 6.71814 10.2549 6.56194C10.7179 6.35275 11.1949 6.21329 11.7025 6.16866C12.0261 6.14077 12.3468 6.14356 12.6704 6.16587C12.8461 6.17982 13.0135 6.24118 13.1892 6.22444C13.1948 6.22166 13.2003 6.22166 13.2031 6.22723C13.2254 6.25792 13.2533 6.25792 13.2812 6.25234ZM10.531 9.01647C10.0122 9.02205 9.59665 9.10015 9.18663 9.21451C9.09458 9.23961 9.02764 9.28982 9.00812 9.38744C8.95791 9.66358 9.18384 9.87835 9.44603 9.80862C9.92857 9.6831 10.4139 9.60221 10.9132 9.711C11.3009 9.79467 11.6635 9.93971 12.0065 10.1377C12.1851 10.241 12.2548 10.2242 12.3831 10.0624C12.411 10.0262 12.4417 9.98992 12.4668 9.95366C12.5477 9.83093 12.5281 9.70821 12.3998 9.6329C11.8001 9.26751 11.1558 9.036 10.531 9.01647ZM15.5461 9.76678C15.1305 9.76678 14.7902 9.83372 14.5308 9.9425C14.4694 9.96761 14.3969 9.9955 14.4053 10.0736C14.422 10.2158 14.4973 10.3358 14.5922 10.439C14.6647 10.5171 14.7567 10.4446 14.8376 10.4195C15.3397 10.2605 15.8222 10.2605 16.2629 10.6008C16.5168 10.796 16.514 10.7988 16.7566 10.5924C16.8849 10.4836 16.8905 10.4306 16.7678 10.3107C16.3912 9.94529 15.9422 9.77236 15.5461 9.76678ZM11.2284 7.26483C10.9215 7.27599 10.6342 7.35688 10.3804 7.53818C10.2995 7.59396 10.227 7.65811 10.1768 7.74458C10.0876 7.90078 10.1517 8.0235 10.3302 8.03745C10.4557 8.04861 10.5812 8.04582 10.704 8.05698C10.9634 8.0765 11.22 8.11555 11.4794 8.12113C11.7109 8.12671 11.9117 7.95098 11.9368 7.75016C11.9619 7.5577 11.8336 7.39593 11.5965 7.32062C11.4794 7.28436 11.3567 7.26204 11.2284 7.26483Z" fill="#FD9C4A"/>
<path d="M7.70276 10.9465C7.83664 10.9214 7.96216 10.8768 8.07373 10.8015C8.17693 10.7317 8.29687 10.7401 8.40844 10.7317C9.50461 10.6341 10.598 10.6118 11.683 10.8238C11.697 10.8266 11.7109 10.8266 11.7248 10.8322C12.1125 11.0302 12.517 10.9856 12.9186 10.8963C13.0135 10.8768 13.1111 10.8768 13.2087 10.8796C13.2087 10.8963 13.2059 10.9158 13.2059 10.9326C13.1083 10.966 12.9633 10.9493 12.941 11.0748C12.9214 11.1975 13.0497 11.2589 13.1362 11.3231C13.2115 11.3816 13.298 11.4263 13.4068 11.496C13.2366 11.549 13.0999 11.482 12.9661 11.4737C12.4166 11.4346 11.8671 11.3733 11.3148 11.4346C11.1809 11.4486 11.1168 11.5044 11.0861 11.6382C10.9494 12.2268 10.8769 12.8153 10.9829 13.415C11.1279 14.2545 11.6579 14.7399 12.5058 14.8124C12.7011 14.8291 12.8935 14.8263 13.0888 14.8152C13.1752 14.8096 13.2561 14.9156 13.2282 14.9965C13.2115 15.0495 13.1669 15.0216 13.1362 15.0216C12.7597 15.0132 12.3887 14.9602 12.0177 14.91C11.9396 14.8989 11.8615 14.8821 11.7834 14.8793C11.5268 14.8654 11.3371 14.7873 11.2005 14.5363C11.0554 14.2713 10.7765 14.1681 10.4753 14.1346C10.1657 14.0984 9.86721 14.1597 9.56318 14.1848C9.5576 14.1346 9.51019 14.1235 9.47672 14.1011C9.13364 13.8613 8.82124 13.5879 8.55627 13.2616C8.01794 12.5838 7.73623 11.8112 7.70276 10.9465Z" fill="#FDFCFC"/>
<path d="M14.4332 13.2672C13.5992 13.1166 13.0246 13.8083 13.1446 14.5586C13.1529 14.6172 13.1613 14.6702 13.0776 14.6758C12.503 14.7176 11.9508 14.6786 11.5156 14.2379C11.2451 13.9645 11.1447 13.6131 11.0945 13.2449C11.0247 12.7233 11.1056 12.2129 11.2172 11.7025C11.2367 11.6104 11.2786 11.5741 11.3734 11.5686C11.9647 11.5239 12.5086 11.6969 13.0358 11.9312C13.6243 12.1934 14.0873 12.6006 14.3913 13.178C14.4025 13.2031 14.4137 13.2282 14.4332 13.2672Z" fill="#E5A336"/>
<path d="M7.70273 10.9465C7.7362 11.8111 8.01513 12.5838 8.56182 13.2588C8.8268 13.5851 9.1364 13.8584 9.48227 14.0983C9.51295 14.1206 9.56037 14.1318 9.56873 14.182C9.22566 14.2322 8.88816 14.2796 8.54229 14.1653C7.93424 13.9644 7.3234 13.7831 6.7516 13.4931C6.6233 13.4289 6.50057 13.3536 6.38342 13.2671C6.30532 13.2085 6.29974 13.1695 6.39179 13.1193C6.45036 13.0886 6.55356 13.0942 6.54799 13.0077C6.5452 12.9213 6.442 12.9157 6.38063 12.8822C6.19933 12.779 6.01245 12.6842 5.86183 12.5363C5.75026 12.4276 5.76421 12.3746 5.91204 12.3216C5.97619 12.2993 6.04592 12.2881 6.11565 12.2742C6.15191 12.2686 6.19375 12.2686 6.2077 12.2267C6.22443 12.1765 6.18538 12.1514 6.14912 12.1291C5.95109 11.9952 5.78931 11.8223 5.65543 11.627C5.49365 11.39 5.52712 11.3258 5.81442 11.2951C5.84231 11.2923 5.8702 11.2896 5.89809 11.2896C6.17144 11.2784 6.44199 11.2672 6.69024 11.125C6.79623 11.0636 6.92453 11.0413 7.04447 11.005C7.25924 10.9353 7.47401 10.8656 7.70273 10.9465Z" fill="#BEBDBD"/>
<path d="M7.70273 9.68309C7.68321 9.83371 7.66368 9.98433 7.64416 10.1377C7.58558 10.1656 7.52422 10.1879 7.46843 10.2214C7.27877 10.333 7.22577 10.4724 7.30387 10.6788C7.33455 10.7625 7.3206 10.7876 7.23414 10.8099C6.99426 10.8657 6.76276 10.941 6.53404 11.0331C6.48941 11.0526 6.45036 11.0582 6.40294 11.0275C6.18817 10.888 5.96224 10.7737 5.76142 10.6147C5.73632 10.5952 5.71121 10.5756 5.68611 10.5533C5.51039 10.3888 5.52154 10.28 5.73353 10.1545C5.94551 10.029 6.17981 9.98154 6.41968 9.9397C6.47546 9.93133 6.52846 9.92575 6.58425 9.91739C6.75718 9.89507 6.77112 9.85602 6.66513 9.71098C6.60656 9.63288 6.55356 9.55199 6.49778 9.4739C6.48104 9.45158 6.46431 9.42369 6.48104 9.3958C6.50057 9.35954 6.53962 9.37348 6.5703 9.37906C6.63166 9.39022 6.67908 9.43206 6.72929 9.45995C6.8046 9.50179 6.84643 9.4739 6.84364 9.39022C6.84364 9.34838 6.83249 9.30654 6.82133 9.26749C6.61493 8.54787 6.46989 7.81988 6.46431 7.06678C6.46431 6.99147 6.46989 6.91895 6.47268 6.84364C6.47825 6.59261 6.47825 6.59261 6.72092 6.50057C6.74881 6.5424 6.73207 6.58982 6.72929 6.63445C6.72371 7.20067 6.74881 7.76409 6.87154 8.32194C6.89664 8.4363 6.92732 8.54787 6.98869 8.64828C7.05842 8.75706 7.13651 8.76822 7.22577 8.67338C7.27877 8.6176 7.32897 8.55345 7.36802 8.4865C7.7613 7.78919 8.33589 7.28713 9.02483 6.90501C9.2145 6.79901 9.3958 6.67629 9.57152 6.54798C9.72772 6.43362 9.72772 6.37784 9.60499 6.2328C9.51016 6.12123 9.40975 6.01245 9.30933 5.90088C9.46274 5.92319 9.54363 6.0515 9.66357 6.12402C9.75003 6.17701 9.80303 6.28022 9.91181 6.28858C10.0485 6.29974 10.1852 6.28579 10.3162 6.23559C10.4529 6.21885 10.5952 6.21327 10.7095 6.11844C10.9104 6.09892 11.114 6.0766 11.3148 6.05708C11.9424 5.9985 12.5616 6.05708 13.1696 6.21048C13.178 6.21327 13.1836 6.22164 13.192 6.22443C13.0162 6.24117 12.8461 6.1798 12.6732 6.16586C12.3496 6.14075 12.0288 6.14075 11.7053 6.16865C11.1976 6.21327 10.7207 6.35274 10.2577 6.56193C9.90902 6.71813 9.58826 6.91895 9.29539 7.15883C8.7487 7.60232 8.32194 8.14343 8.02349 8.78216C8.00118 8.83237 7.97329 8.87979 7.9705 8.93836C7.88124 8.91047 7.79478 8.87979 7.70552 8.86026C7.51864 8.82121 7.36244 8.89652 7.29829 9.04435C7.20904 9.24797 7.25924 9.446 7.42102 9.56315C7.50748 9.62452 7.61069 9.63846 7.70273 9.68309Z" fill="#F07814"/>
<path d="M13.8753 10.9688C14.0845 11.0217 14.277 11.111 14.4583 11.2226C14.5224 11.2616 14.5782 11.2672 14.6535 11.2588C15.4429 11.1752 16.1848 11.2867 16.8236 11.8027C16.8598 11.8306 16.8877 11.8669 16.9184 11.9004C16.7092 12.5168 16.4191 13.0858 15.9617 13.5516C15.7664 13.7524 15.5712 13.9588 15.3146 14.0871C15.097 13.8333 15.0998 13.8361 15.256 13.5488C15.4959 13.1165 15.6075 12.6479 15.6381 12.157C15.6437 12.0538 15.5796 12.0342 15.5098 12.0063C14.9687 11.7972 14.4081 11.6577 13.8363 11.5712C13.7219 11.5545 13.6076 11.5378 13.4625 11.5182C13.6327 11.4513 13.7721 11.3955 13.8921 11.3035C14.0594 11.1752 14.0566 11.1249 13.8753 11.019C13.8753 11.0022 13.8753 10.9855 13.8753 10.9688Z" fill="#FDFCFC"/>
<path d="M15.3146 14.0872C15.5712 13.9561 15.7636 13.7524 15.9617 13.5516C16.4219 13.083 16.712 12.514 16.9184 11.9004C17.0913 12.0371 17.2057 12.2128 17.2643 12.422C17.2838 12.4889 17.3117 12.5252 17.3758 12.5447C17.4679 12.5726 17.5571 12.6116 17.6408 12.6619C17.7524 12.7288 17.7663 12.8097 17.7022 12.9185C17.5766 13.1221 17.4121 13.2894 17.2392 13.4512C17.1555 13.5293 17.0662 13.6046 16.977 13.6771C16.8682 13.7664 16.8654 13.8166 16.9714 13.9086C17.1555 14.0704 17.1555 14.0704 16.9463 14.2043C16.6283 14.4051 16.2824 14.5502 15.9282 14.6729C15.8724 14.6924 15.8334 14.6924 15.7943 14.645C15.6298 14.4637 15.4568 14.288 15.3146 14.0872Z" fill="#BEBDBD"/>
<path d="M10.5645 16.528C10.6928 16.4332 10.835 16.3579 10.9578 16.2519C11.2255 16.0204 11.3957 15.7359 11.4543 15.3872C11.4905 15.39 11.5296 15.3844 11.5658 15.3928C12.1962 15.5713 12.8433 15.5657 13.4904 15.5546C13.6075 15.7359 13.7275 15.9172 13.8391 16.104C13.8893 16.1877 13.8502 16.2826 13.8223 16.3662C13.8 16.4332 13.7359 16.3774 13.6884 16.3746C13.5824 16.3718 13.588 16.4304 13.6299 16.5001C13.6271 16.5168 13.6271 16.5336 13.6243 16.5503C12.6062 16.5503 11.5881 16.5503 10.5701 16.5503C10.5729 16.542 10.5729 16.5336 10.5645 16.528Z" fill="#FDFCFC"/>
<path d="M7.75853 6.73499C7.69159 6.84656 7.73064 6.92745 7.82826 6.99439C7.85616 7.01113 7.90636 7.01671 7.86731 7.08365C7.75296 7.26774 7.80316 7.35142 8.0514 7.39325C7.69717 7.72517 7.44056 8.12125 7.18116 8.51174C7.12817 8.59263 7.09191 8.59263 7.05843 8.495C6.9636 8.22166 6.92734 7.93716 6.89945 7.65265C6.82414 6.86888 6.85482 6.09068 7.00265 5.31806C7.00823 5.29574 7.0166 5.27343 7.02496 5.25391C7.0417 5.27622 7.06122 5.29574 7.07517 5.31806C7.34573 5.76992 7.58281 6.23851 7.75853 6.73499Z" fill="#FDFCFC"/>
<path d="M7.61628 18.0617C7.61628 17.8246 7.61628 17.5903 7.61628 17.3532C7.61628 17.25 7.62744 17.1496 7.66091 17.0519C7.70275 16.9292 7.78922 16.8595 7.91752 16.8539C8.08487 16.8483 8.25223 16.8455 8.41679 16.8539C8.59252 16.8623 8.67898 16.9487 8.72082 17.1217C8.74592 17.2332 8.73756 17.342 8.73756 17.4536C8.73756 17.8134 8.73756 18.176 8.73477 18.5358C8.73198 18.8873 8.62041 19.0184 8.27733 19.0881C8.16855 19.1104 8.06256 19.1383 7.95378 19.1634C7.76411 19.2052 7.66928 19.1495 7.63302 18.9598C7.58281 18.6892 7.62186 18.4159 7.6107 18.1425C7.61349 18.1174 7.61628 18.0895 7.61628 18.0617ZM8.32475 17.978C8.32475 17.7883 8.32475 17.5986 8.32475 17.409C8.32475 17.3783 8.32196 17.3225 8.3108 17.3197C8.22434 17.2974 8.13787 17.3058 8.0514 17.3253C7.98725 17.3392 7.99562 17.4006 7.99562 17.4508C7.99562 17.8106 7.99562 18.1732 7.99562 18.533C7.99562 18.5888 7.96215 18.6697 8.07651 18.6697C8.25502 18.6697 8.32196 18.6334 8.32475 18.5191C8.32754 18.3406 8.32475 18.1593 8.32475 17.978Z" fill="#FDFCFC"/>
<path d="M15.4847 18.8042C15.1249 18.768 15.1249 18.768 15.1249 18.4137C15.1249 17.9368 15.1277 17.457 15.1221 16.9801C15.1193 16.8713 15.1556 16.8406 15.256 16.8518C15.2978 16.8573 15.3397 16.8573 15.3815 16.8546C15.4959 16.8406 15.5489 16.8964 15.5824 16.9996C15.6465 17.1893 15.719 17.3761 15.7888 17.563C15.8027 17.5602 15.8194 17.5602 15.8334 17.5574C15.8334 17.3845 15.8306 17.2144 15.8334 17.0414C15.8362 16.8378 15.7999 16.8573 16.0175 16.8573C16.2295 16.8573 16.2295 16.8601 16.2295 17.0665C16.2295 17.6411 16.2267 18.2157 16.2322 18.7931C16.2322 18.9102 16.1988 18.9214 16.0872 18.9186C15.8724 18.913 15.786 18.7987 15.7385 18.609C15.6995 18.45 15.627 18.2994 15.5684 18.1432C15.56 18.079 15.5461 18.0177 15.4819 17.9563C15.4847 18.252 15.4847 18.5281 15.4847 18.8042Z" fill="#FDFCFC"/>
<path d="M12.9744 17.9699C12.9744 18.1345 12.9688 18.3018 12.9772 18.4664C12.98 18.5668 12.9437 18.5919 12.8489 18.5947C12.5728 18.5975 12.5728 18.6003 12.5728 18.3214C12.5728 17.8723 12.5756 17.4232 12.57 16.9714C12.57 16.8737 12.5979 16.8486 12.6955 16.8486C12.9716 16.8514 12.9716 16.8459 13.0776 17.0941C13.1334 17.2196 13.1864 17.3479 13.2422 17.4734C13.2561 17.4734 13.2701 17.4706 13.284 17.4706C13.284 17.3507 13.284 17.2308 13.284 17.1108C13.284 16.8431 13.284 16.8486 13.5434 16.8486C13.655 16.8486 13.6968 16.8849 13.694 17.002C13.6885 17.493 13.6885 17.9839 13.694 18.4776C13.694 18.5891 13.6578 18.6226 13.5518 18.6198C13.2868 18.6114 13.2868 18.617 13.1864 18.3716C13.1306 18.2349 13.072 18.101 13.0135 17.9671C12.9995 17.9671 12.9884 17.9671 12.9744 17.9699Z" fill="#FDFCFC"/>
<path d="M17.6631 18.0533C17.6631 17.6907 17.6659 17.3309 17.6603 16.9683C17.6603 16.8846 17.6798 16.8539 17.7663 16.8595C18.0034 16.8679 18.2377 16.8679 18.4748 16.8651C18.564 16.8651 18.6003 16.8986 18.5975 16.9878C18.5919 17.0882 18.5919 17.1914 18.5975 17.2946C18.6003 17.3839 18.5612 17.4062 18.4804 17.4006C18.3827 17.3923 18.2851 17.4006 18.1903 17.3867C18.0843 17.3727 18.0592 17.4202 18.0675 17.5122C18.0703 17.5457 18.0675 17.5764 18.0675 17.6098C18.0675 17.8497 18.0675 17.8525 18.3046 17.8915C18.3883 17.9055 18.4274 17.939 18.4246 18.0254C18.4218 18.1175 18.419 18.2123 18.4246 18.3044C18.4329 18.4103 18.3855 18.4299 18.2907 18.4159C18.0675 18.3824 18.0648 18.3852 18.0675 18.6167C18.0675 18.9152 18.0452 18.8483 18.2963 18.9152C18.6393 19.0072 18.5975 18.9236 18.5975 19.3001C18.5975 19.5232 18.6366 19.5428 18.3744 19.4619C18.1763 19.4005 17.9755 19.3419 17.7719 19.2945C17.6798 19.2722 17.6575 19.2304 17.6603 19.1439C17.6659 18.7757 17.6631 18.4159 17.6631 18.0533Z" fill="#FDFCFC"/>
<path d="M14.9687 17.9082C14.9687 18.1453 14.9659 18.3824 14.9715 18.6167C14.9743 18.7031 14.9408 18.7282 14.8571 18.7254C14.5559 18.7087 14.5559 18.7115 14.5559 18.4047C14.5559 18.2931 14.5503 18.1815 14.5587 18.07C14.5643 17.9779 14.5336 17.95 14.4443 17.9472C14.2574 17.9445 14.2574 17.9389 14.2574 18.1285C14.2574 18.268 14.2547 18.4075 14.2574 18.5469C14.2602 18.6334 14.224 18.6557 14.1403 18.6529C13.8502 18.6362 13.8502 18.639 13.8502 18.3489C13.8502 17.9779 13.8502 17.607 13.8502 17.236C13.8502 16.9431 13.9423 16.8511 14.2323 16.8511C14.3579 16.8511 14.4834 16.8511 14.6089 16.8539C14.8516 16.8594 14.9659 16.9682 14.9715 17.2137C14.9715 17.4452 14.9659 17.6767 14.9687 17.9082ZM14.5531 17.4117C14.5475 17.1997 14.5922 17.236 14.3634 17.2193C14.224 17.2081 14.2184 17.2834 14.2212 17.3894C14.2268 17.5735 14.2296 17.5735 14.4611 17.5791C14.6312 17.5819 14.5141 17.4536 14.5531 17.4117Z" fill="#FDFCFC"/>
<path d="M15.2923 7.83938C15.2476 7.69434 15.1305 7.60508 15.0245 7.51025C14.528 7.06955 14.0036 6.6679 13.4179 6.34992C13.3705 6.32482 13.3203 6.29972 13.2896 6.24951C13.7275 6.34714 14.1347 6.52565 14.5196 6.74879C15.666 7.40705 16.4777 8.34702 16.8905 9.61334C16.9379 9.75838 16.9686 9.909 17.0104 10.054C17.0244 10.107 17.016 10.1544 16.9881 10.1991C16.9295 10.2939 16.9797 10.3441 17.069 10.3748C17.1806 10.4138 17.2977 10.4111 17.4121 10.4222C17.4902 10.4306 17.4958 10.4613 17.4623 10.5226C17.426 10.5868 17.3786 10.6454 17.32 10.6928C17.2726 10.7318 17.2447 10.7764 17.2949 10.8322C17.2866 10.8462 17.2782 10.8601 17.2698 10.8741C17.175 10.8685 17.0829 10.8601 16.9881 10.8545C16.9407 10.4613 16.8012 10.0959 16.6478 9.73606C16.5335 9.4683 16.3884 9.21726 16.2183 8.97739C16.1653 8.90487 16.1095 8.84072 16.037 8.79051C16.1179 8.68731 16.1151 8.57574 16.0649 8.46417C15.9198 8.1183 15.6604 7.9119 15.2923 7.83938Z" fill="#E5A336"/>
<path d="M17.2754 19.147C17.0774 19.1052 16.8738 19.0717 16.6785 19.0215C16.5056 18.9769 16.4163 18.843 16.4107 18.6729C16.3996 18.3577 16.3996 18.0425 16.3996 17.7273C16.3996 17.5376 16.3968 17.348 16.4107 17.1583C16.4275 16.9491 16.5307 16.8627 16.7371 16.8599C16.8849 16.8599 17.0327 16.8599 17.1834 16.8627C17.387 16.8682 17.4985 16.977 17.5125 17.1806C17.5125 17.2002 17.5125 17.2169 17.5125 17.2364C17.5069 17.5795 17.5599 17.5376 17.2085 17.5153C17.1332 17.5098 17.1053 17.4902 17.1053 17.4121C17.1053 17.2392 16.963 17.3368 16.8877 17.3117C16.8012 17.2838 16.7929 17.3536 16.7929 17.4205C16.7929 17.7775 16.7929 18.1345 16.7929 18.4916C16.7929 18.5808 17.0104 18.698 17.0885 18.6478C17.1248 18.6227 17.108 18.578 17.1053 18.5446C17.1025 18.4804 17.1276 18.4637 17.1889 18.4748C17.2838 18.4944 17.3814 18.4971 17.4734 18.5334C17.4734 18.645 17.4706 18.7538 17.4706 18.8653C17.4706 18.9825 17.4316 19.0801 17.3284 19.147H17.3312C17.3089 19.1443 17.2921 19.147 17.2754 19.147Z" fill="#FDFCFC"/>
<path d="M9.51297 17.2891C9.56596 17.1692 9.61617 17.0604 9.65801 16.9489C9.68311 16.8847 9.71658 16.8596 9.7891 16.8568C10.1461 16.8484 10.1461 16.8457 10.0039 17.1664C9.9453 17.2975 9.90067 17.437 9.83094 17.5597C9.72495 17.7494 9.73611 17.9167 9.8421 18.1036C9.93972 18.2765 10.0122 18.4634 10.1015 18.6419C10.1378 18.7172 10.1266 18.7535 10.0401 18.7619C10.0346 18.7619 10.0318 18.7619 10.0262 18.7647C9.71379 18.8176 9.71379 18.8176 9.56875 18.5192C9.55202 18.4829 9.54923 18.4244 9.50181 18.4272C9.45439 18.4299 9.45997 18.4913 9.44045 18.5248C9.43766 18.5276 9.43766 18.5331 9.43766 18.5387C9.37908 18.8483 9.18384 18.9627 8.87423 18.9264C8.99696 18.6112 9.1169 18.2905 9.24241 17.9753C9.2703 17.9056 9.2703 17.8498 9.23962 17.7801C9.11969 17.5095 9.00812 17.2334 8.89097 16.9628C8.86029 16.8903 8.86586 16.8708 8.94954 16.8652C9.28704 16.8512 9.28704 16.8484 9.42371 17.1664C9.44045 17.1999 9.44882 17.2501 9.51297 17.2891Z" fill="#FDFCFC"/>
<path d="M6.5229 18.1874C6.5229 17.7857 6.52569 17.3813 6.52011 16.9797C6.52011 16.8876 6.54522 16.8625 6.63726 16.8625C6.86319 16.8681 7.09191 16.8681 7.31783 16.8625C7.42104 16.8597 7.46566 16.8848 7.46566 17.002C7.46288 17.3367 7.46845 17.3367 7.13096 17.3729C6.93013 17.3953 6.93013 17.3953 6.93013 17.5989C6.93013 17.6212 6.93013 17.6463 6.93013 17.6686C6.93013 17.875 6.93013 17.8778 7.13653 17.8499C7.24253 17.836 7.28436 17.8694 7.27042 17.9754C7.26763 18.0033 7.27042 18.0312 7.27042 18.0591C7.27042 18.3185 7.27042 18.3213 7.02496 18.3799C6.95244 18.3966 6.92734 18.4245 6.92734 18.4998C6.93013 18.7536 6.92455 19.0102 6.93013 19.264C6.93292 19.3784 6.88829 19.4286 6.7823 19.4593C6.51732 19.5346 6.52011 19.5374 6.52011 19.2613C6.5229 18.9014 6.5229 18.5444 6.5229 18.1874Z" fill="#FDFCFC"/>
<path d="M7.7585 6.73448C7.58278 6.23521 7.3457 5.76941 7.07514 5.31476C7.06119 5.29245 7.04167 5.27013 7.02493 5.25061C7.04446 5.02747 7.11419 4.81827 7.17834 4.60629C7.20623 4.51704 7.24807 4.54772 7.29828 4.5784C7.71109 4.82664 8.10158 5.10557 8.50323 5.41517C8.41397 5.4347 8.33309 5.4347 8.2773 5.49048C8.21036 5.563 8.23825 5.63552 8.28846 5.71362C8.16294 5.75546 8.03464 5.79451 8.10437 5.96744C8.12668 6.02044 8.0709 6.01207 8.04579 6.02044C7.93144 6.05949 7.9147 6.13759 7.95096 6.24079C7.96212 6.27147 8.00396 6.29378 7.95375 6.33283C7.78361 6.46393 7.78082 6.4974 7.92028 6.65359C7.87007 6.68149 7.81429 6.70938 7.7585 6.73448Z" fill="#BEBDBD"/>
<path d="M11.273 18.6226C11.1753 18.6616 11.0721 18.6393 10.9717 18.656C10.8825 18.67 10.9131 18.5891 10.9131 18.55C10.9104 18.0815 10.9104 17.6157 10.9104 17.1471C10.9104 16.8542 10.9104 16.8514 11.206 16.8514C11.3762 16.8514 11.5491 16.857 11.7192 16.8514C11.8447 16.8458 11.8643 16.9128 11.8559 17.016C11.8503 17.1108 11.8838 17.2224 11.7248 17.214C11.6272 17.2084 11.5296 17.2196 11.4347 17.214C11.3511 17.2112 11.3148 17.2391 11.3232 17.3256C11.326 17.3618 11.3287 17.4009 11.3232 17.4371C11.312 17.5348 11.3511 17.5738 11.4487 17.5599C11.4905 17.5543 11.5324 17.5571 11.5742 17.5571C11.6328 17.5571 11.6718 17.5822 11.6662 17.6491C11.6634 17.691 11.6634 17.7328 11.6662 17.7746C11.6774 17.8806 11.6356 17.9308 11.524 17.9225C11.4654 17.9197 11.404 17.9253 11.3427 17.928C11.259 17.9085 11.2646 17.9671 11.2646 18.0173C11.2702 18.2181 11.2702 18.419 11.273 18.6226Z" fill="#FDFCFC"/>
<path d="M16.8068 8.9858C16.7148 8.82124 16.6395 8.68177 16.5614 8.54231C16.5446 8.51163 16.5363 8.48374 16.5697 8.45585C16.6367 8.39727 16.6227 8.33033 16.5781 8.26897C16.5391 8.21597 16.5446 8.19924 16.606 8.17413C16.7176 8.13229 16.7231 8.04862 16.6534 7.96494C16.6172 7.92031 16.5948 7.90637 16.659 7.85616C16.7957 7.75296 16.6646 7.67486 16.606 7.5856C16.7064 7.55213 16.7845 7.50193 16.7259 7.3792C16.698 7.32063 16.751 7.32063 16.7817 7.31226C16.9546 7.25647 17.1276 7.20627 17.2977 7.14769C17.3953 7.11422 17.4316 7.13096 17.4121 7.24253C17.3368 7.67765 17.1945 8.09325 17.0244 8.50047C16.963 8.65667 16.8877 8.81008 16.8068 8.9858Z" fill="#BEBDBD"/>
<path d="M13.4876 15.5545C12.8405 15.5656 12.1934 15.5712 11.5631 15.3927C11.5296 15.3843 11.4905 15.3871 11.4515 15.3871C11.4487 15.2895 11.4626 15.1891 11.4403 15.097C11.4124 14.9743 11.4515 14.9548 11.5603 14.9743C11.9089 15.0385 12.2632 15.0859 12.6146 15.1221C12.8071 15.1417 12.9995 15.164 13.1948 15.1696C13.2896 15.1724 13.337 15.2058 13.3677 15.2895C13.4012 15.3815 13.4486 15.468 13.4876 15.5545Z" fill="#BEBDBD"/>
<path d="M12.0093 17.713C12.0093 17.4592 12.0121 17.2026 12.0065 16.9488C12.0037 16.8679 12.0316 16.8456 12.1097 16.8484C12.4835 16.8512 12.4138 16.8288 12.4138 17.1496C12.4166 17.5847 12.411 18.0199 12.4166 18.455C12.4166 18.5582 12.3859 18.5944 12.2827 18.5944C12.0065 18.5972 12.0065 18.6 12.0065 18.3267C12.0093 18.1203 12.0093 17.9167 12.0093 17.713Z" fill="#FDFCFC"/>
<path d="M15.8641 16.4078C15.8641 16.3688 15.8947 16.3437 15.9171 16.3186C16.1067 16.0703 16.1263 15.8026 16.0119 15.5181C15.9282 15.3089 15.8111 15.1192 15.6521 14.963C15.3425 14.6618 15.0691 14.3298 14.8042 13.9896C14.6005 13.7274 14.3746 13.4931 14.0287 13.4122C14.2128 13.3648 14.3886 13.3843 14.5475 13.4875C14.7456 13.613 14.9046 13.7804 15.044 13.9672C15.2867 14.2964 15.5517 14.6032 15.8445 14.8877C16.0035 15.0411 16.1179 15.2252 16.2016 15.4288C16.341 15.7691 16.2211 16.1875 15.9282 16.3995C15.9115 16.4162 15.8892 16.4218 15.8641 16.4078Z" fill="#E5A336"/>
<path d="M7.17 3.57471C7.35688 3.69186 7.54655 3.80621 7.73343 3.92336C8.20202 4.22181 8.65946 4.53421 9.11689 4.85218C9.20336 4.91354 9.24241 4.97212 9.17268 5.06695C9.09179 5.17573 9.02485 5.19247 8.92443 5.11437C8.414 4.70993 7.90636 4.31107 7.39872 3.90663C7.29552 3.82295 7.19789 3.7309 7.1449 3.60539C7.15605 3.59423 7.16442 3.58307 7.17 3.57471Z" fill="#E5A336"/>
<path d="M10.7095 6.11551C10.5952 6.21035 10.4529 6.21592 10.3163 6.23266C10.3023 6.21313 10.2911 6.19361 10.2744 6.17966C9.89786 5.88121 9.51853 5.57998 9.13919 5.28153C9.17824 5.24248 9.23403 5.21459 9.25634 5.16717C9.32886 5.01655 9.39859 5.04723 9.51016 5.1337C9.92018 5.44609 10.3441 5.74454 10.7095 6.11551Z" fill="#E5A336"/>
<path d="M9.13921 5.28125C9.51855 5.5797 9.8951 5.87815 10.2744 6.17939C10.2912 6.19333 10.3023 6.21565 10.3163 6.23238C10.1852 6.28259 10.0485 6.29653 9.91183 6.28538C9.80305 6.27701 9.75005 6.17381 9.66359 6.12081C9.54365 6.04829 9.45997 5.9172 9.30935 5.89767C9.28146 5.87257 9.25636 5.84747 9.22847 5.82515C9.22568 5.80563 9.21731 5.79447 9.19778 5.79168V5.79447C9.18663 5.7861 9.17826 5.77495 9.1671 5.76658C9.16431 5.74984 9.15595 5.73869 9.13642 5.73869C9.13363 5.708 9.11132 5.70243 9.08622 5.70243C9.07506 5.69406 9.0639 5.6829 9.05553 5.67453C8.94675 5.58528 8.83518 5.49602 8.69293 5.38166C8.87702 5.37608 9.01369 5.3454 9.13921 5.28125Z" fill="#FD9C4A"/>
<path d="M16.91 11.6885C16.9379 11.5853 16.9686 11.4821 16.9965 11.3761C17.122 11.4849 17.2447 11.5992 17.3925 11.6801C17.7691 11.8837 18.048 11.7499 18.1233 11.3203C18.1568 11.457 18.1177 11.563 18.0536 11.6634C17.8974 11.9088 17.6854 12.1013 17.4623 12.2854C17.4149 12.3244 17.387 12.3244 17.3619 12.2631C17.2614 12.0288 17.0969 11.8503 16.91 11.6885Z" fill="#F07814"/>
<path d="M15.4903 7.25675C15.3313 7.13124 15.1751 7.00851 14.991 6.86347C15.256 6.8049 15.4931 6.75469 15.7302 6.70448C15.8473 6.67938 15.9645 6.65428 16.0816 6.62639C16.1709 6.60407 16.2211 6.6236 16.2211 6.72959C16.2211 6.79374 16.2406 6.85789 16.2518 6.92204C16.1569 6.92762 16.076 6.98062 15.9952 7.01967C15.8278 7.09777 15.6381 7.13403 15.4903 7.25675Z" fill="#F07814"/>
<path d="M17.1137 10.9941C17.3284 11.0081 17.5711 11.036 17.7914 11.1531C17.956 11.2396 17.9978 11.3316 17.9448 11.4599C17.8779 11.6134 17.744 11.6775 17.5822 11.6161C17.3033 11.5129 17.1053 11.3065 16.9296 11.0778C16.8877 11.0248 16.9045 10.9941 16.9742 10.9941C17.0105 10.9941 17.0467 10.9941 17.1137 10.9941ZM17.638 11.1587C17.5934 11.1587 17.5683 11.1754 17.5767 11.2256C17.585 11.2898 17.7329 11.4042 17.8054 11.4042C17.8528 11.4042 17.8835 11.3791 17.8835 11.3288C17.8835 11.2647 17.7245 11.1559 17.638 11.1587Z" fill="#E5A336"/>
<path d="M17.4483 10.2937C17.387 10.3021 17.2866 10.2742 17.1862 10.2658C17.1304 10.2602 17.122 10.2323 17.1583 10.1961C17.387 9.96455 17.6324 9.75536 17.9671 9.69121C18.0843 9.66889 18.1596 9.72747 18.1987 9.84183C18.2433 9.9785 18.2126 10.0929 18.0899 10.1654C17.9058 10.2742 17.6994 10.2881 17.4483 10.2937ZM17.8695 9.93666C17.9448 9.93108 18.0257 9.92829 18.0759 9.85298C18.0954 9.8223 18.0871 9.78883 18.0564 9.76931C17.9811 9.72189 17.9058 9.75536 17.8361 9.78604C17.7914 9.80557 17.7301 9.82788 17.744 9.88646C17.7524 9.95061 17.8193 9.93108 17.8695 9.93666Z" fill="#E5A336"/>
<path d="M8.28291 10.1909C8.34148 10.2104 8.44468 10.1714 8.47258 10.2383C8.49768 10.2997 8.40563 10.3499 8.36101 10.3973C8.21039 10.5563 8.04024 10.6902 7.83384 10.7711C7.74179 10.8073 7.64417 10.8241 7.55213 10.7739C7.46008 10.7265 7.40987 10.6372 7.40151 10.5396C7.39314 10.4336 7.47403 10.375 7.5577 10.3304C7.78084 10.2104 8.02909 10.2104 8.28291 10.1909ZM7.73901 10.3304C7.65533 10.3276 7.49355 10.4252 7.49076 10.4838C7.48797 10.5396 7.52144 10.5675 7.57723 10.5675C7.65254 10.5675 7.80874 10.4503 7.81153 10.3917C7.81431 10.3387 7.78084 10.3304 7.73901 10.3304Z" fill="#E5A336"/>
<path d="M17.3145 8.14062C17.3619 8.2773 17.3758 8.39445 17.4483 8.48928C17.4595 8.50323 17.4595 8.53391 17.4539 8.55343C17.3396 8.88256 17.2168 9.21169 17.0244 9.52688C16.9212 9.3149 16.8375 9.13638 16.9825 8.91324C17.1276 8.68732 17.2085 8.42234 17.3145 8.14062Z" fill="#E5A336"/>
<path d="M15.4903 7.25644C15.6381 7.13372 15.8278 7.09746 15.9951 7.01657C16.076 6.97752 16.1569 6.92452 16.2518 6.91895C16.2908 7.0082 16.3103 7.10861 16.3801 7.17834C16.4749 7.27039 16.4107 7.28991 16.3299 7.31502C16.1876 7.35965 16.0454 7.39869 15.9087 7.45727C15.7915 7.50748 15.7079 7.49074 15.6298 7.39312C15.5907 7.34291 15.5377 7.30107 15.4903 7.25644Z" fill="#FD9C4A"/>
<path d="M15.4847 18.8038C15.4847 18.5277 15.4847 18.2516 15.4847 17.9531C15.5461 18.0145 15.5628 18.0759 15.5712 18.14C15.5238 18.3269 15.5879 18.5138 15.5628 18.7006C15.5544 18.7481 15.5907 18.8317 15.4847 18.8038Z" fill="#E5A336"/>
<path d="M13.6243 16.5474C13.6271 16.5306 13.6271 16.5139 13.6299 16.4971C13.8279 16.5697 13.8558 16.5613 13.9646 16.3688C13.9981 16.3103 14.0287 16.3298 14.0594 16.3605C14.1208 16.4163 14.1794 16.472 14.2575 16.5474C14.0315 16.5474 13.8279 16.5474 13.6243 16.5474Z" fill="#BEBDBD"/>
<path d="M13.4095 11.0383C13.51 11.0439 13.5936 11.0523 13.6717 11.083C13.6996 11.0941 13.7415 11.1025 13.7387 11.1416C13.7359 11.1694 13.6996 11.175 13.6745 11.1862C13.5574 11.228 13.4458 11.2001 13.3398 11.1527C13.3063 11.1388 13.2617 11.122 13.2673 11.0774C13.2757 11.03 13.3259 11.0439 13.3593 11.0383C13.3789 11.0356 13.404 11.0383 13.4095 11.0383Z" fill="#FDFCFC"/>
<path d="M11.273 18.6227C11.273 18.4219 11.2702 18.2182 11.2702 18.0174C11.2702 17.9672 11.2646 17.9086 11.3483 17.9282C11.3483 18.1262 11.3483 18.3242 11.3455 18.5251C11.3427 18.5697 11.3567 18.6338 11.273 18.6227Z" fill="#FD9C4A"/>
<path d="M17.3256 19.1444C17.4288 19.0774 17.4679 18.9826 17.4679 18.8627C17.4679 18.7511 17.4707 18.6423 17.4707 18.5308C17.5069 18.528 17.5404 18.5363 17.5404 18.581C17.5404 18.7232 17.5627 18.8683 17.5181 19.0077C17.4874 19.097 17.4372 19.1695 17.3256 19.1444Z" fill="#E5A336"/>
<path d="M13.8753 10.9687C13.8753 10.9855 13.8753 11.0022 13.8753 11.0189C13.655 10.9659 13.4346 10.9241 13.2087 10.9353C13.2087 10.9185 13.2115 10.899 13.2115 10.8823C13.4402 10.8627 13.6606 10.8878 13.8753 10.9687Z" fill="#BEBDBD"/>
<path d="M17.2754 10.8709C17.2838 10.857 17.2922 10.843 17.3005 10.8291C17.3228 10.8347 17.3452 10.8403 17.3647 10.8458C17.3758 10.8486 17.3842 10.8598 17.3981 10.8709C17.3507 10.8877 17.3117 10.8793 17.2754 10.8709Z" fill="#F07814"/>
<path d="M17.4762 10.9048C17.4679 10.902 17.4595 10.8964 17.4539 10.8936C17.4623 10.8908 17.4707 10.8853 17.479 10.8853C17.4874 10.8853 17.4958 10.8936 17.5013 10.8964C17.4902 10.8964 17.4818 10.8992 17.4762 10.9048Z" fill="#F07814"/>
<path d="M13.2812 6.25254C13.2533 6.25812 13.2254 6.25812 13.2087 6.22743C13.2366 6.22464 13.2617 6.22743 13.2812 6.25254Z" fill="#E5A336"/>
<path d="M9.0918 5.7002C9.1169 5.7002 9.13921 5.70577 9.142 5.73646C9.1169 5.73646 9.10016 5.7253 9.0918 5.7002Z" fill="#F07814"/>
<path d="M17.2754 19.1468C17.2922 19.1468 17.3117 19.144 17.3284 19.144C17.3117 19.1691 17.2922 19.1664 17.2754 19.1468Z" fill="#E5A336"/>
<path d="M10.5645 16.5278C10.5729 16.5334 10.5729 16.539 10.5673 16.5474C10.5589 16.5474 10.545 16.5501 10.545 16.5474C10.5394 16.5306 10.5533 16.5306 10.5645 16.5278Z" fill="#BEBDBD"/>
<path d="M8.38364 10.5933L8.38052 10.584H8.38988L8.38364 10.5933Z" fill="#FD9C4A"/>
<path d="M9.19775 5.78955C9.21728 5.79234 9.22565 5.8035 9.22844 5.82302C9.21728 5.81186 9.20891 5.80071 9.19775 5.78955Z" fill="#F07814"/>
<path d="M9.16989 5.76123C9.18105 5.7696 9.18942 5.78076 9.20057 5.78912C9.18942 5.78076 9.17826 5.77239 9.16989 5.76123Z" fill="#F07814"/>
<path d="M9.13919 5.73633C9.15872 5.73633 9.16708 5.7447 9.16987 5.76422C9.15872 5.75306 9.15035 5.7447 9.13919 5.73633Z" fill="#F07814"/>
<path d="M9.0611 5.6748C9.07225 5.68317 9.08341 5.69433 9.09178 5.7027C9.08062 5.69154 9.06946 5.68317 9.0611 5.6748Z" fill="#F07814"/>
<path d="M10.531 9.0166C11.153 9.03613 11.8001 9.26763 12.4054 9.63023C12.5309 9.70554 12.5532 9.83106 12.4723 9.951C12.4472 9.99005 12.4166 10.0235 12.3887 10.0598C12.2576 10.2243 12.1906 10.2383 12.0121 10.1351C11.669 9.93705 11.3036 9.79201 10.9187 9.70833C10.4222 9.59955 9.93413 9.68044 9.45159 9.80596C9.1894 9.87569 8.96068 9.65813 9.01368 9.38478C9.0332 9.28716 9.10015 9.23695 9.19219 9.21185C9.59663 9.10028 10.015 9.02218 10.531 9.0166Z" fill="#630E04"/>
<path d="M15.5461 9.76709C15.9422 9.77267 16.394 9.9456 16.765 10.311C16.8877 10.4281 16.8822 10.4839 16.7538 10.5927C16.5112 10.7963 16.5112 10.7963 16.2602 10.6011C15.8222 10.2608 15.3397 10.2608 14.8349 10.4198C14.754 10.4449 14.6619 10.5202 14.5894 10.4393C14.4974 10.3389 14.4193 10.2162 14.4025 10.0739C14.3942 9.99581 14.4667 9.96791 14.528 9.94281C14.7902 9.83403 15.1305 9.76709 15.5461 9.76709Z" fill="#630E04"/>
<path d="M11.2284 7.26488C11.3539 7.26209 11.4794 7.28441 11.5965 7.32346C11.8336 7.39877 11.9619 7.56054 11.9368 7.753C11.9117 7.95382 11.7109 8.12955 11.4794 8.12397C11.22 8.11839 10.9634 8.07934 10.704 8.05982C10.5785 8.04866 10.4529 8.05145 10.3302 8.04029C10.1517 8.02635 10.0876 7.90362 10.1768 7.74742C10.227 7.66095 10.2995 7.5968 10.3804 7.54102C10.6342 7.35693 10.9215 7.27604 11.2284 7.26488ZM11.206 7.40156C10.8909 7.41829 10.5812 7.50755 10.3386 7.76137C10.3107 7.79205 10.2744 7.82552 10.2884 7.87015C10.3051 7.92314 10.3581 7.90362 10.3972 7.90362C10.7179 7.91756 11.0359 7.93988 11.3511 7.9873C11.4654 8.00403 11.5742 7.9873 11.6718 7.92593C11.8615 7.80878 11.8559 7.60238 11.6607 7.49639C11.524 7.42108 11.3762 7.40992 11.206 7.40156Z" fill="#630E04"/>
<path d="M15.2923 7.83977C15.6605 7.91229 15.9199 8.11869 16.0705 8.46177C16.1207 8.57334 16.1235 8.68491 16.0426 8.78811C15.9673 8.82716 15.8892 8.80764 15.8139 8.78532C15.6047 8.72954 15.3927 8.6877 15.1723 8.67654C15.0162 8.66817 14.8851 8.60402 14.8014 8.46456C14.6229 8.16611 14.8209 7.83419 15.1807 7.82861C15.2198 7.82861 15.256 7.83419 15.2923 7.83977ZM15.1975 7.97086C14.9994 7.96808 14.8851 8.06012 14.8795 8.2219C14.8711 8.40041 14.9827 8.52034 15.1723 8.53708C15.3983 8.5566 15.6214 8.59565 15.8418 8.65144C15.9701 8.68491 15.9924 8.65702 15.9533 8.5315C15.8613 8.23305 15.5126 7.97365 15.1975 7.97086Z" fill="#630E04"/>
<path d="M7.70276 9.68314C7.6135 9.63851 7.5103 9.62457 7.42383 9.56321C7.25927 9.44606 7.21185 9.24802 7.30111 9.04441C7.36526 8.89658 7.52146 8.82127 7.70833 8.86032C7.79759 8.87984 7.88406 8.91331 7.97331 8.93842C8.17693 9.0472 8.38054 9.16155 8.5479 9.32333C8.60647 9.37912 8.69015 9.43769 8.66783 9.52973C8.64273 9.63015 8.53116 9.63015 8.45027 9.64967C8.20203 9.71103 7.951 9.70267 7.70276 9.68314ZM8.01794 9.56599C8.14346 9.55205 8.2885 9.55484 8.42796 9.51579C8.46701 9.50463 8.53116 9.49626 8.4698 9.44048C8.22713 9.22571 7.97331 9.03325 7.6386 8.99141C7.50751 8.97468 7.42662 9.04162 7.40152 9.16992C7.37084 9.32333 7.44336 9.44327 7.60513 9.50463C7.73344 9.55205 7.86732 9.55763 8.01794 9.56599Z" fill="#630E04"/>
<path d="M8.32475 17.9782C8.32475 18.1595 8.32475 18.338 8.32475 18.5193C8.32475 18.6337 8.25502 18.67 8.07651 18.67C7.96494 18.67 7.99562 18.5891 7.99562 18.5333C7.99283 18.1735 7.99562 17.8109 7.99562 17.4511C7.99562 17.4009 7.98726 17.3395 8.05141 17.3255C8.13509 17.306 8.22434 17.2977 8.31081 17.32C8.32196 17.3228 8.32475 17.3785 8.32475 17.4092C8.32754 17.5989 8.32475 17.7886 8.32475 17.9782Z" fill="#630E04"/>
<path d="M14.5531 17.4119C14.5141 17.4537 14.6312 17.582 14.4639 17.5792C14.2324 17.5736 14.2296 17.5736 14.224 17.3896C14.2212 17.2836 14.2268 17.211 14.3663 17.2194C14.5922 17.2361 14.5476 17.1999 14.5531 17.4119Z" fill="#630E04"/>
<path d="M17.638 11.1583C17.7245 11.1555 17.8835 11.2642 17.8835 11.3284C17.8835 11.3786 17.8528 11.4009 17.8054 11.4037C17.7328 11.4065 17.5878 11.2893 17.5766 11.2252C17.5683 11.175 17.5962 11.161 17.638 11.1583Z" fill="#FDFCFC"/>
<path d="M17.8695 9.93711C17.8193 9.93153 17.7552 9.95106 17.7412 9.88691C17.7273 9.82554 17.7886 9.80323 17.8333 9.78649C17.9058 9.75581 17.9783 9.72234 18.0536 9.76976C18.0843 9.78928 18.0927 9.82554 18.0731 9.85344C18.0257 9.92875 17.9448 9.93153 17.8695 9.93711Z" fill="#FDFCFC"/>
<path d="M7.739 10.3271C7.77805 10.3271 7.81431 10.3355 7.81152 10.3885C7.80874 10.4471 7.65254 10.5642 7.57723 10.5642C7.52144 10.5642 7.48797 10.5336 7.49076 10.4806C7.49355 10.422 7.65533 10.3271 7.739 10.3271Z" fill="#FDFCFC"/>
<path d="M11.206 7.40137C11.379 7.40973 11.5268 7.4181 11.6607 7.49341C11.8559 7.5994 11.8615 7.80581 11.6718 7.92296C11.5742 7.98432 11.4654 8.00105 11.3511 7.98432C11.0359 7.9369 10.7151 7.91459 10.3971 7.90064C10.3609 7.89785 10.3051 7.92017 10.2884 7.86717C10.2744 7.82254 10.3107 7.78907 10.3386 7.75839C10.5812 7.51015 10.8881 7.4181 11.206 7.40137Z" fill="#FDFCFC"/>
<path d="M15.1974 7.97021C15.5154 7.973 15.8641 8.2324 15.9561 8.53085C15.9952 8.65637 15.97 8.68426 15.8445 8.65079C15.6242 8.595 15.401 8.55596 15.1751 8.53643C14.9854 8.5197 14.8739 8.39976 14.8822 8.22125C14.885 8.05947 14.9994 7.97021 15.1974 7.97021Z" fill="#FDFCFC"/>
<path d="M8.01793 9.56611C7.86731 9.55774 7.73343 9.55216 7.60513 9.50475C7.44335 9.44617 7.37083 9.32345 7.40151 9.17004C7.42661 9.04173 7.5075 8.972 7.6386 8.99153C7.97052 9.03615 8.22713 9.22861 8.46979 9.44059C8.53115 9.49638 8.467 9.50475 8.42795 9.5159C8.28849 9.55495 8.14345 9.55216 8.01793 9.56611ZM7.7418 9.23419C7.78085 9.22303 7.85058 9.24256 7.86452 9.1784C7.87847 9.10588 7.81153 9.08915 7.75853 9.07241C7.6888 9.04731 7.61628 9.02221 7.54934 9.08078C7.52703 9.10031 7.52145 9.13378 7.53818 9.15609C7.58281 9.2314 7.66091 9.22861 7.7418 9.23419Z" fill="#E5A336"/>
<path d="M7.74178 9.23385C7.6609 9.22827 7.5828 9.23106 7.53538 9.15854C7.52143 9.13623 7.52422 9.10275 7.54654 9.08323C7.61348 9.02466 7.686 9.04976 7.75573 9.07486C7.80594 9.0916 7.87567 9.10833 7.86172 9.18085C7.85056 9.24222 7.78362 9.22269 7.74178 9.23385Z" fill="#FDFCFC"/>
<path d="M23.5 12C23.5 18.3513 18.3513 23.5 12 23.5C5.64873 23.5 0.5 18.3513 0.5 12C0.5 5.64873 5.64873 0.5 12 0.5C18.3513 0.5 23.5 5.64873 23.5 12Z" stroke="black" stroke-opacity="0.097"/>
</svg>
