<svg width="24" height="24" viewBox="0 0 24 24" fill="none" xmlns="http://www.w3.org/2000/svg">
<path fill-rule="evenodd" clip-rule="evenodd" d="M20.9697 18.307C20.7294 18.3081 20.4972 18.3939 20.314 18.5495L18.4931 16.9822L19.8919 12.6574C19.9074 12.6574 19.9221 12.6623 19.9382 12.6623C20.1275 12.6623 20.309 12.5871 20.4428 12.4533C20.5767 12.3195 20.6519 12.138 20.6519 11.9487C20.6519 11.7594 20.5767 11.5779 20.4428 11.4441C20.309 11.3103 20.1275 11.2351 19.9382 11.2351C19.9221 11.2351 19.9074 11.2386 19.8916 11.2396L18.6707 7.46282C18.8014 7.38059 18.9019 7.25812 18.957 7.11385C19.0121 6.96958 19.0189 6.81131 18.9763 6.66285C18.9338 6.51438 18.8441 6.38376 18.7209 6.29063C18.5977 6.19751 18.4476 6.14692 18.2931 6.14646C18.1266 6.14733 17.9658 6.20739 17.8395 6.31592L14.6198 3.9786C14.6569 3.8883 14.675 3.79131 14.6729 3.6937C14.6708 3.59609 14.6485 3.49998 14.6075 3.41137C14.5665 3.32276 14.5077 3.24356 14.4347 3.17875C14.3617 3.11395 14.2761 3.06492 14.1832 3.03474C14.0904 3.00455 13.9923 2.99387 13.8951 3.00335C13.7979 3.01284 13.7038 3.0423 13.6185 3.08987C13.5333 3.13744 13.4587 3.2021 13.3996 3.27981C13.3405 3.35751 13.2981 3.44659 13.275 3.54145H9.37682C9.35347 3.44692 9.31089 3.35822 9.25173 3.28088C9.19258 3.20353 9.11811 3.13921 9.03299 3.09192C8.94787 3.04463 8.85392 3.01539 8.757 3.00602C8.66008 2.99665 8.56226 3.00736 8.46966 3.03747C8.37706 3.06758 8.29165 3.11644 8.21878 3.18102C8.1459 3.2456 8.08712 3.32451 8.04609 3.41282C8.00506 3.50113 7.98267 3.59693 7.98031 3.69428C7.97796 3.79163 7.99568 3.88841 8.03239 3.9786L4.81236 6.31592C4.68596 6.20732 4.52502 6.14725 4.35837 6.14646C4.20399 6.14707 4.05396 6.19777 3.93087 6.29095C3.80777 6.38414 3.71825 6.51475 3.67577 6.66318C3.63328 6.8116 3.64013 6.96981 3.69527 7.11401C3.75042 7.25822 3.85088 7.38062 3.98156 7.46282L2.76625 11.2218C2.74871 11.2218 2.73116 11.2165 2.71361 11.2165C2.52435 11.2165 2.34285 11.2917 2.20902 11.4255C2.07519 11.5593 2 11.7408 2 11.9301C2 12.1194 2.07519 12.3009 2.20902 12.4347C2.34285 12.5685 2.52435 12.6437 2.71361 12.6437C2.7273 12.6437 2.74063 12.6406 2.75466 12.6395L3.98261 16.4346C3.85193 16.5168 3.75147 16.6392 3.69632 16.7834C3.64118 16.9276 3.63433 17.0858 3.67681 17.2342C3.7193 17.3827 3.80882 17.5133 3.93192 17.6065C4.05501 17.6996 4.20503 17.7503 4.35942 17.7509C4.52218 17.7505 4.67967 17.6931 4.80464 17.5888L8.03239 19.9205C7.99594 20.0108 7.97847 20.1075 7.98104 20.2048C7.98362 20.302 8.00619 20.3977 8.04736 20.4859C8.08853 20.5741 8.14741 20.6528 8.22034 20.7172C8.29327 20.7816 8.37867 20.8303 8.47125 20.8603C8.56382 20.8903 8.66157 20.9008 8.7584 20.8914C8.85524 20.8819 8.9491 20.8526 9.03412 20.8053C9.11914 20.758 9.19351 20.6937 9.25259 20.6164C9.31167 20.5391 9.3542 20.4504 9.37753 20.356H13.2761C13.3177 20.5244 13.4197 20.6717 13.5628 20.77C13.7058 20.8682 13.8799 20.9105 14.0521 20.8889C14.2243 20.8672 14.3825 20.7832 14.4968 20.6526C14.6111 20.522 14.6735 20.354 14.6721 20.1805C14.6717 20.091 14.6545 20.0024 14.6216 19.9191L18.2844 17.258L20.0888 18.8119C19.9736 19.0071 19.9261 19.2348 19.9539 19.4598C19.9817 19.6847 20.0831 19.8941 20.2423 20.0554C20.4015 20.2167 20.6096 20.3207 20.8341 20.3514C21.0587 20.3821 21.2871 20.3376 21.4837 20.2249C21.6803 20.1122 21.8341 19.9377 21.9212 19.7284C22.0083 19.5192 22.0237 19.287 21.965 19.0681C21.9063 18.8492 21.7769 18.6559 21.5969 18.5182C21.4169 18.3805 21.1964 18.3063 20.9697 18.307ZM18.4086 7.77823L19.5621 11.346C19.4076 11.4438 19.2968 11.5975 19.2527 11.775H18.6601C18.6333 11.6545 18.5754 11.543 18.4923 11.4516C18.4092 11.3603 18.3036 11.2921 18.1861 11.254L18.4086 7.77823ZM18.0774 7.53651L17.8406 11.2295C17.8241 11.2326 17.8076 11.2372 17.7911 11.2414L16.3239 8.45465C16.3977 8.38828 16.4568 8.30715 16.4973 8.21649C16.5378 8.12583 16.5588 8.02768 16.5589 7.92839C16.5581 7.88871 16.554 7.84917 16.5466 7.81016L16.7375 7.72771L17.7335 7.29407C17.8209 7.40793 17.9408 7.4925 18.0774 7.53651ZM14.0974 11.2491C13.9884 11.2265 13.8753 11.232 13.769 11.2653L11.8124 7.85892C11.8848 7.79096 11.9423 7.70863 11.9811 7.61719L15.1471 8.01189C15.1678 8.19313 15.258 8.35929 15.3987 8.47536L14.0974 11.2491ZM15.7141 8.62798C15.7585 8.63664 15.8036 8.64123 15.8488 8.64166C15.9061 8.64095 15.963 8.63317 16.0183 8.6185L17.4873 11.4081C17.3814 11.5061 17.308 11.6342 17.2768 11.775H14.6482C14.6132 11.6346 14.5358 11.5083 14.4265 11.4133L15.7141 8.62798ZM13.4687 11.4382C13.3747 11.5306 13.3081 11.6471 13.2764 11.775H9.37648C9.3453 11.6467 9.27868 11.5298 9.18422 11.4375L11.143 8.02804C11.2626 8.06359 11.39 8.06359 11.5096 8.02804L13.4687 11.4382ZM8.88319 11.2653C8.82117 11.2464 8.7568 11.2364 8.69198 11.2354C8.64603 11.2355 8.60021 11.2401 8.55516 11.2491L7.25492 8.47746C7.39592 8.36113 7.48655 8.19484 7.50788 8.01329L10.6676 7.60317C10.7051 7.69767 10.7619 7.78324 10.8346 7.85436L8.88319 11.2653ZM8.24325 11.4003C8.126 11.4966 8.04274 11.6279 8.00573 11.775H5.39617C5.36186 11.6377 5.28719 11.5138 5.18179 11.4193L6.64025 8.62026C6.69428 8.63399 6.74976 8.64118 6.8055 8.64166C6.85145 8.64126 6.89725 8.63656 6.94233 8.62762L8.24325 11.4003ZM5.39617 12.1241H8.00293C8.04003 12.2714 8.12341 12.4028 8.2408 12.4992L6.93881 15.275C6.89446 15.2661 6.84935 15.2614 6.8041 15.261C6.74798 15.2617 6.69214 15.2691 6.6378 15.2831L5.1797 12.4806C5.28595 12.3861 5.36137 12.262 5.39617 12.1241ZM8.55375 12.6504C8.59883 12.6592 8.64464 12.6638 8.69058 12.6641C8.75589 12.6632 8.82074 12.653 8.88319 12.6339L10.8321 16.0269C10.7589 16.0987 10.702 16.1854 10.6655 16.2813L7.50788 15.8873C7.48606 15.7063 7.39519 15.5408 7.25423 15.4252L8.55375 12.6504ZM9.18527 12.4613C9.27909 12.3688 9.3454 12.2521 9.37682 12.1241H13.275C13.3067 12.252 13.3732 12.3687 13.467 12.4613L11.5187 15.855C11.3932 15.8147 11.2583 15.8147 11.1328 15.855L9.18527 12.4613ZM13.769 12.6339C13.8315 12.6531 13.8963 12.6633 13.9616 12.6641C14.0074 12.6638 14.0529 12.6592 14.0978 12.6504L15.4001 15.4263C15.2598 15.5416 15.1695 15.7066 15.1478 15.8869L11.9864 16.2813C11.95 16.1854 11.8931 16.0986 11.8197 16.0269L13.769 12.6339ZM14.4104 12.4992C14.5276 12.4027 14.6108 12.2713 14.6479 12.1241H17.2876C17.3246 12.2559 17.3989 12.3743 17.5016 12.4648L16.0169 15.2817C15.962 15.2673 15.9056 15.2597 15.8488 15.2589C15.8029 15.2592 15.757 15.2641 15.712 15.2733L14.4104 12.4992ZM14.4153 4.26104L17.6357 6.59835C17.6018 6.68207 17.5843 6.77152 17.5841 6.86183C17.5847 6.9001 17.5886 6.93824 17.5957 6.97585L16.4067 7.49299C16.3295 7.38928 16.2247 7.30941 16.1043 7.26256C15.9838 7.21571 15.8526 7.20377 15.7257 7.22812L14.4732 4.43435L14.403 4.27331C14.4058 4.26805 14.4111 4.26525 14.4153 4.25964V4.26104ZM13.6975 4.37821C13.7813 4.41265 13.871 4.43042 13.9616 4.4305C14.0034 4.42987 14.0451 4.42564 14.0862 4.41786L14.2763 4.84202L15.4103 7.37195C15.3128 7.44865 15.2371 7.54953 15.1906 7.66456L12.0274 7.25373C12.0112 7.1231 11.959 6.99956 11.8766 6.89692L13.6975 4.37821ZM9.37682 3.89089H13.2754C13.3011 3.9925 13.3491 4.08715 13.4157 4.16806L11.5752 6.67658C11.4102 6.61202 11.2266 6.61352 11.0626 6.68079L9.23473 4.17017C9.3024 4.08836 9.35095 3.99246 9.37682 3.88949V3.89089ZM8.69093 4.4305C8.78144 4.43042 8.87106 4.41265 8.95476 4.37821L10.7746 6.89657C10.6924 6.99879 10.6403 7.12184 10.6241 7.25197L7.46298 7.66701C7.41708 7.55111 7.3413 7.44942 7.24335 7.37231L8.56533 4.41751C8.60678 4.42502 8.6488 4.42889 8.69093 4.42908V4.4305ZM8.23658 4.26104L8.25133 4.27366L6.92935 7.22812C6.8885 7.22043 6.84706 7.21632 6.8055 7.21584C6.69657 7.21584 6.58913 7.24119 6.49169 7.28991C6.39426 7.33862 6.30951 7.40936 6.24415 7.49651L5.05514 6.97796C5.06189 6.93995 5.06565 6.90148 5.06637 6.86288C5.06607 6.77264 5.04881 6.68326 5.01549 6.5994L8.23658 4.26104ZM4.91832 7.29583L6.10698 7.81437C6.10024 7.85239 6.09637 7.89085 6.09539 7.92945C6.09569 8.02956 6.11709 8.12848 6.1582 8.21977C6.1993 8.31105 6.25919 8.39264 6.33396 8.45921L4.87516 11.2582C4.86183 11.2551 4.8485 11.2519 4.83517 11.2495L4.5787 7.5351C4.7135 7.4908 4.83185 7.40693 4.91832 7.29442V7.29583ZM4.2489 16.1311L3.08692 12.5353C3.23772 12.4411 3.34784 12.294 3.39565 12.1227H4.02542C4.05455 12.2388 4.11258 12.3456 4.19411 12.4332C4.27563 12.5208 4.37801 12.5864 4.49169 12.6237L4.2489 16.1311ZM4.02542 11.775H3.40688C3.36648 11.5916 3.2551 11.4317 3.09709 11.3302L4.24855 7.76631L4.49134 11.2747C4.37748 11.3118 4.27487 11.3772 4.19309 11.4647C4.11131 11.5522 4.05302 11.6589 4.02366 11.775H4.02542ZM4.58045 16.3623L4.83691 12.6497C4.85025 12.6476 4.86323 12.6448 4.87656 12.6416L6.23643 15.2554L6.33502 15.4445C6.26037 15.511 6.20058 15.5925 6.15959 15.6836C6.1186 15.7748 6.09732 15.8736 6.09715 15.9736C6.09821 16.0109 6.10197 16.048 6.10838 16.0848L4.9155 16.5988C4.8292 16.4883 4.71195 16.4059 4.5787 16.3623H4.58045ZM8.23729 19.6388L5.01549 17.3117C5.0516 17.2247 5.07008 17.1315 5.06988 17.0373C5.06914 16.9991 5.06551 16.961 5.05901 16.9233L6.24625 16.4065C6.32311 16.5113 6.42813 16.5922 6.5491 16.6397C6.67008 16.6872 6.80205 16.6994 6.92969 16.6749L8.25273 19.6255L8.23729 19.6388ZM8.95651 19.5206C8.87274 19.4864 8.78315 19.4688 8.69269 19.4687C8.6509 19.4694 8.60925 19.4735 8.56813 19.4809L8.28324 18.8456L7.24511 16.53C7.34479 16.4518 7.42152 16.3482 7.46719 16.23L8.23342 16.3255L10.6272 16.6237C10.6432 16.7586 10.6981 16.886 10.7851 16.9903L10.4757 17.4183L8.95651 19.5206ZM13.2771 20.0079H9.37682C9.3507 19.9048 9.30166 19.8088 9.23333 19.7272L11.0623 17.1984C11.2309 17.2677 11.42 17.2677 11.5885 17.1984L13.4175 19.7272C13.3495 19.8088 13.3009 19.9048 13.2754 20.0079H13.2771ZM14.0879 19.4817C14.0468 19.4742 14.0052 19.4701 13.9634 19.4694C13.8728 19.4695 13.7831 19.4871 13.6992 19.5213L12.9502 18.486L11.8706 16.9924C11.9576 16.888 12.0127 16.7607 12.0292 16.6258L14.4584 16.3227L15.1899 16.2318C15.234 16.344 15.3057 16.4431 15.3983 16.5202L14.1325 19.3817L14.0879 19.4817ZM14.4184 19.6392L14.4033 19.6269L14.4479 19.5255L15.726 16.6753C15.7671 16.6832 15.8088 16.6875 15.8506 16.6879C15.9581 16.6875 16.0642 16.6624 16.1606 16.6147C16.2569 16.5669 16.3411 16.4978 16.4067 16.4125L17.9455 17.0763L14.4184 19.6392ZM16.5491 16.0883C16.5558 16.0506 16.5597 16.0125 16.5607 15.9743C16.5602 15.8749 16.539 15.7767 16.4982 15.6861C16.4575 15.5954 16.3982 15.5143 16.3242 15.448L17.1441 13.8913L17.8107 12.6262L17.8406 12.6328L18.1054 16.7668L16.5491 16.0883ZM18.1854 12.6076C18.2964 12.5713 18.3967 12.5081 18.4775 12.4238C18.5583 12.3395 18.617 12.2366 18.6485 12.1241H19.2527C19.2973 12.3013 19.408 12.4547 19.5621 12.5528L18.4086 16.1206L18.1854 12.6076Z" fill="#449EE2"/>
</svg>
