<?xml version="1.0" encoding="UTF-8" standalone="no"?><!DOCTYPE svg PUBLIC "-//W3C//DTD SVG 1.1//EN" "http://www.w3.org/Graphics/SVG/1.1/DTD/svg11.dtd"><svg width="100%" height="100%" viewBox="0 0 175 175" version="1.1" xmlns="http://www.w3.org/2000/svg" xmlns:xlink="http://www.w3.org/1999/xlink" xml:space="preserve" xmlns:serif="http://www.serif.com/" style="fill-rule:evenodd;clip-rule:evenodd;stroke-linecap:round;stroke-linejoin:round;stroke-miterlimit:1.5;"><g id="Layer1"><path d="M59.362,128.53l-19.797,-0.232l27.227,-44.823l-33.41,-44.42l27.823,0.186c0,0 18.462,21.269 19.082,22.507c0.295,0.589 16.104,-17.754 29.678,-31.697c14.924,-15.328 27.725,-26.419 27.725,-26.419c0,0 -37.135,41.228 -50.19,62.044c-10.616,16.928 -28.138,62.854 -28.138,62.854Z" style="fill:#31a983;stroke:#31a983;stroke-width:1px;"/><path d="M137.69,27.697c-19.299,-15.12 -37.488,-24.446 -70.922,-18.319c-16.123,2.955 -30.103,12.089 -41.552,24.032c-25.907,27.027 -27.295,75.553 -1.268,102.859c-23.394,-34.694 -13.176,-79.877 7.354,-99.474c17.384,-16.594 52.569,-41.302 106.388,-9.098" style="fill:#31a983;stroke:#31a983;stroke-width:1px;"/><path d="M55.534,170c2.182,-9.292 3.701,-19.002 6.155,-28.225c5.992,-22.518 13.371,-42.366 26.231,-61.94c4.374,-6.656 9.121,-13.064 13.92,-19.42c5.513,-7.302 11.046,-14.423 16.793,-21.542l20.648,0l-38.555,48.627l34.208,41.03l-30.935,0l-18.463,-22.482c0,0 -10.922,17.792 -15.346,27.222c-5,10.659 -14.656,36.73 -14.656,36.73Z" style="fill:#aaa;stroke:#aaa;stroke-width:1px;"/><path d="M38.074,148.735c39.039,32.729 84.961,18.337 104.474,-0.934c17.568,-17.35 43.553,-62.173 6.767,-108.928c28.859,48.473 6.789,85.713 -11.625,103.898c-18.667,18.436 -56.75,31.138 -99.616,5.964" style="fill:#aaa;stroke:#aaa;stroke-width:1px;"/></g></svg>