<svg width="24" height="24" viewBox="0 0 24 24" fill="none" xmlns="http://www.w3.org/2000/svg">
<path fill-rule="evenodd" clip-rule="evenodd" d="M13.3925 14.9653V9.91014H14.0572C16.2522 9.91014 16.7932 7.86208 16.7932 7.86208H11.0274C8.2914 7.86208 7.82767 9.91014 7.82767 9.91014H11.2284V17.5172C11.2284 17.5172 13.3925 16.8671 13.3925 14.9653Z" fill="#5AAFFF"/>
<path fill-rule="evenodd" clip-rule="evenodd" d="M19.7233 18.9045C21.6621 16.8895 22.4066 14.0901 21.7086 11.4137C21.3519 10.0294 20.6074 8.75276 19.5682 7.72221C19.4752 7.62992 19.3821 7.53763 19.2736 7.44534L19.1805 7.35306C19.1185 7.29153 19.0409 7.23 18.9789 7.18386L18.8548 7.09157C18.7928 7.04543 18.7307 6.99928 18.6687 6.95314L18.5601 6.87623C18.467 6.81471 18.405 6.76856 18.343 6.72242L18.2034 6.63013C18.1413 6.58398 18.0793 6.55322 18.0173 6.52246L17.8777 6.43017C17.8156 6.39941 17.7536 6.35326 17.6915 6.3225L17.552 6.24559C17.4899 6.21483 17.4279 6.18407 17.3503 6.15331L17.3038 6.13792C17.4744 6.27636 17.645 6.43017 17.8001 6.58399C20.778 9.53721 20.778 14.3516 17.8001 17.3048C14.0157 21.0579 7.87375 21.0579 4.08933 17.3048C3.94974 17.1664 3.82566 17.028 3.68607 16.8895L3.5775 16.7665C3.49995 16.6742 3.4224 16.5819 3.34485 16.4742C3.82566 17.4279 4.46156 18.2892 5.22155 19.0583C9.17659 22.9806 15.5977 22.9806 19.5527 19.0583C19.6303 19.0122 19.6768 18.966 19.7233 18.9045Z" fill="#5DC9BC"/>
<path fill-rule="evenodd" clip-rule="evenodd" d="M7.649 17.8621C7.47824 17.7235 7.30747 17.5695 7.15223 17.4156C4.17161 14.4595 4.17161 9.64043 7.15223 6.68433C10.9401 2.92763 17.0877 2.92763 20.8755 6.68433C21.1394 6.94607 21.3878 7.2232 21.6207 7.51574C21.1394 6.57656 20.503 5.69897 19.7423 4.94455C15.7836 1.01848 9.35666 1.01848 5.39801 4.94455C5.35144 4.99074 5.30487 5.05232 5.24277 5.09851C2.6192 7.83906 2.26214 11.9345 4.3579 15.0445C5.18067 16.2455 6.32946 17.2462 7.649 17.8621Z" fill="#5AAFFF"/>
</svg>
