<svg width="24" height="24" viewBox="0 0 24 24" fill="none" xmlns="http://www.w3.org/2000/svg">
<path d="M12 22C17.5417 22 22 17.5417 22 12C22 6.4583 17.5417 2 12 2C6.4583 2 2 6.4583 2 12C2 17.5417 6.4583 22 12 22Z" fill="#2775CA"/>
<path d="M14.75 13.5833C14.75 12.125 13.875 11.625 12.125 11.4167C10.875 11.25 10.625 10.9167 10.625 10.3333C10.625 9.74986 11.0417 9.37496 11.875 9.37496C12.625 9.37496 13.0417 9.62496 13.25 10.25C13.2917 10.375 13.4167 10.4583 13.5417 10.4583H14.2083C14.375 10.4583 14.5 10.3333 14.5 10.1667V10.125C14.3333 9.20826 13.5833 8.49996 12.625 8.41666V7.41665C12.625 7.24995 12.5 7.12495 12.2917 7.08325H11.6667C11.5 7.08325 11.375 7.20825 11.3333 7.41665V8.37496C10.0833 8.54166 9.29175 9.37496 9.29175 10.4167C9.29175 11.7917 10.125 12.3333 11.875 12.5417C13.0417 12.75 13.4167 13 13.4167 13.6667C13.4167 14.3334 12.8333 14.7917 12.0417 14.7917C10.9583 14.7917 10.5833 14.3333 10.4583 13.7083C10.4167 13.5417 10.2917 13.4583 10.1667 13.4583H9.45835C9.29175 13.4583 9.16675 13.5833 9.16675 13.75V13.7917C9.33335 14.8333 10 15.5833 11.375 15.7917V16.7917C11.375 16.9583 11.5 17.0833 11.7083 17.125H12.3333C12.5 17.125 12.625 17 12.6667 16.7917V15.7917C13.9167 15.5833 14.75 14.7083 14.75 13.5833Z" fill="white"/>
<path d="M9.87505 17.9584C6.62505 16.7918 4.95835 13.1668 6.16675 9.95838C6.79175 8.20838 8.16675 6.87508 9.87505 6.25008C10.0417 6.16678 10.125 6.04178 10.125 5.83338V5.25008C10.125 5.08338 10.0417 4.95838 9.87505 4.91678C9.83335 4.91678 9.75005 4.91678 9.70835 4.95838C5.75005 6.20838 3.58335 10.4168 4.83335 14.3751C5.58335 16.7084 7.37505 18.5001 9.70835 19.2501C9.87505 19.3334 10.0417 19.2501 10.0833 19.0834C10.125 19.0418 10.125 19.0001 10.125 18.9168V18.3334C10.125 18.2084 10 18.0418 9.87505 17.9584ZM14.2917 4.95838C14.125 4.87508 13.9583 4.95838 13.9167 5.12508C13.875 5.16678 13.875 5.20838 13.875 5.29178V5.87508C13.875 6.04178 14 6.20838 14.125 6.29178C17.375 7.45838 19.0417 11.0834 17.8333 14.2918C17.2083 16.0418 15.8333 17.3751 14.125 18.0001C13.9583 18.0834 13.875 18.2084 13.875 18.4168V19.0001C13.875 19.1668 13.9583 19.2918 14.125 19.3334C14.1667 19.3334 14.25 19.3334 14.2917 19.2918C18.25 18.0418 20.4167 13.8334 19.1667 9.87508C18.4167 7.50008 16.5833 5.70838 14.2917 4.95838Z" fill="white"/>
</svg>
