<svg width="24" height="24" viewBox="0 0 24 24" fill="none" xmlns="http://www.w3.org/2000/svg">
<path d="M12 24C18.6274 24 24 18.6274 24 12C24 5.37258 18.6274 0 12 0C5.37258 0 0 5.37258 0 12C0 18.6274 5.37258 24 12 24Z" fill="black"/>
<path d="M4.51709 7.77182C5.316 7.77182 6.04372 7.77973 6.76354 7.76391C7.03248 7.756 7.0483 7.94584 7.09576 8.11986C7.62573 9.89171 8.1557 11.6715 8.68567 13.4512C8.75686 13.6964 8.84387 13.9495 8.9467 14.2739C9.37384 13.2851 9.78516 12.3755 10.1728 11.4579C10.5129 10.6511 11.0982 10.1844 11.9762 10.1606C12.791 10.1369 13.4475 10.6273 13.8035 11.4816C14.1831 12.3913 14.5628 13.3009 14.9741 14.2818C15.1165 13.8309 15.2193 13.4512 15.3538 13.0794C15.3934 12.9687 15.5278 12.8263 15.6228 12.8263C16.3584 12.8026 17.094 12.8184 17.8771 12.8184C17.8297 13.0083 17.798 13.1585 17.7585 13.3088C17.363 14.6061 16.9675 15.9033 16.572 17.1927C16.3821 17.8017 16.1211 17.9916 15.4804 17.9995C15.1482 17.9995 14.8238 17.9995 14.4916 17.9995C13.8826 17.9916 13.6532 17.8413 13.4159 17.2638C12.9887 16.2276 12.5695 15.1914 12.1503 14.1552C12.1028 14.0366 12.0474 13.9179 11.9683 13.7281C11.5886 14.6614 11.2406 15.5316 10.8926 16.3937C10.766 16.7101 10.6315 17.0265 10.5129 17.3429C10.3468 17.8017 10.0146 17.9995 9.53995 17.9916C9.16027 17.9916 8.77268 17.9916 8.393 17.9916C7.83139 17.9837 7.56245 17.7859 7.39634 17.2322C6.50251 14.3055 5.61658 11.3867 4.72275 8.4679C4.65947 8.26224 4.59619 8.04867 4.51709 7.77182Z" fill="white"/>
<path d="M19.4829 7.7708C19.0874 9.0364 18.7235 10.2229 18.3359 11.4094C18.3122 11.4885 18.1777 11.5913 18.0907 11.5992C17.3471 11.6151 16.5957 11.6072 15.7968 11.6072C16.0499 10.7687 16.2793 9.97769 16.5245 9.1946C16.6432 8.80701 16.7539 8.41151 16.8884 8.03183C16.9279 7.929 17.0466 7.79453 17.1257 7.78662C17.885 7.76289 18.6444 7.7708 19.4829 7.7708Z" fill="white"/>
<path d="M23.5 12C23.5 18.3513 18.3513 23.5 12 23.5C5.64873 23.5 0.5 18.3513 0.5 12C0.5 5.64873 5.64873 0.5 12 0.5C18.3513 0.5 23.5 5.64873 23.5 12Z" stroke="white" stroke-opacity="0.3"/>
</svg>
