<svg width="24" height="24" viewBox="0 0 24 24" fill="none" xmlns="http://www.w3.org/2000/svg">
<path d="M19.8949 5.43568L17.2459 6.7852L4.45414 13.3001C4.41088 12.9702 4.38912 12.6379 4.38898 12.3052C4.39073 10.9777 4.73928 9.67374 5.40011 8.52242C6.06094 7.37109 7.01112 6.41236 8.15652 5.7412C9.30193 5.07004 10.6028 4.70974 11.9303 4.69598C13.2578 4.68223 14.5659 5.01549 15.725 5.66277L17.2412 4.89029L17.4674 4.77488C16.0784 3.76683 14.4378 3.16241 12.7267 3.02842C11.0157 2.89442 9.30092 3.23608 7.77193 4.01563C6.24294 4.79518 4.95928 5.98226 4.06281 7.44568C3.16634 8.90909 2.69199 10.5919 2.69216 12.308C2.69216 12.545 2.70116 12.7811 2.71916 13.0163C2.74436 13.3493 2.6705 13.6823 2.50686 13.9734C2.34323 14.2646 2.09713 14.5008 1.79954 14.6524L1 15.0601V16.9615L3.35395 15.7618L4.11626 15.3728L4.86741 14.9903L18.3526 8.11983L19.8679 7.34827L23 5.75212V3.85163L19.8949 5.43568Z" fill="black"/>
<path d="M23 7.65463L5.63344 16.4963L4.11812 17.2697L1 18.8584V20.758L4.09672 19.1804L6.74573 17.8309L19.5505 11.3067C19.5938 11.6388 19.6156 11.9733 19.6157 12.3081C19.6148 13.6371 19.2664 14.9428 18.6049 16.0956C17.9435 17.2483 16.992 18.208 15.8449 18.8793C14.6978 19.5507 13.3951 19.9104 12.066 19.9228C10.737 19.9351 9.42781 19.5996 8.26849 18.9496L8.17541 18.999L6.53165 19.8366C7.92031 20.8447 9.56064 21.4493 11.2714 21.5836C12.9822 21.7179 14.6968 21.3767 16.2258 20.5977C17.7548 19.8187 19.0386 18.6322 19.9355 17.1693C20.8323 15.7064 21.3073 14.024 21.3078 12.3081C21.3078 12.069 21.2985 11.8298 21.2808 11.5934C21.2557 11.2605 21.3295 10.9276 21.4929 10.6365C21.6564 10.3454 21.9022 10.109 22.1995 9.95719L23 9.54954V7.65463Z" fill="black"/>
</svg>
