<svg width="24" height="24" viewBox="0 0 24 24" fill="none" xmlns="http://www.w3.org/2000/svg">
<path d="M13.8432 22C12.5102 22 11.5387 21.6638 10.9286 20.97C10.3185 20.2761 10.0234 19.5501 10.0234 18.7489C10.0234 18.4664 10.0731 18.216 10.1892 18.0193C10.2887 17.8226 10.4346 17.6652 10.6169 17.5579C10.7993 17.4506 11.0281 17.3791 11.2933 17.3791C11.5586 17.3791 11.7874 17.4328 11.9698 17.5579C12.1521 17.6652 12.298 17.8226 12.3975 18.0193C12.497 18.216 12.5633 18.4628 12.5633 18.7489C12.5633 19.103 12.4804 19.3891 12.3312 19.6001C12.182 19.8147 11.9863 19.9721 11.7708 20.0436C11.9532 20.3083 12.2483 20.505 12.6429 20.6302C13.0374 20.7554 13.432 20.809 13.8299 20.809C14.3903 20.809 14.8843 20.6481 15.3286 20.3298C15.773 20.0114 16.1012 19.5322 16.3167 18.9099C16.5323 18.2876 16.6284 17.5794 16.6284 16.7783C16.6284 15.9092 16.5124 15.1795 16.2836 14.5751C16.0515 13.9528 15.7232 13.4914 15.2789 13.2089C14.8346 12.9084 14.3571 12.7654 13.8299 12.7654C13.4851 12.7654 13.0739 12.9263 12.5633 13.2268L11.6349 13.706V13.2089L15.8326 7.17167H10.0234V13.4413C10.0234 13.9564 10.1229 14.382 10.3351 14.7217C10.5506 15.0579 10.8789 15.2189 11.3066 15.2189C11.6514 15.2189 11.9664 15.0937 12.2781 14.8469C12.5898 14.5966 12.8551 14.2961 13.0839 13.9599C13.117 13.8884 13.1502 13.8348 13.1833 13.8169C13.2331 13.7811 13.2662 13.7632 13.316 13.7632C13.3989 13.7632 13.4818 13.799 13.5945 13.8884C13.694 14.0136 13.7437 14.1531 13.7437 14.314C13.7437 14.3856 13.7105 14.4928 13.694 14.6323C13.4619 15.2189 13.1336 15.6624 12.7059 15.9628C12.2781 16.2632 11.8172 16.4242 11.3066 16.4242C10.04 16.4242 9.18119 16.1595 8.68714 15.6266C8.20967 15.0937 7.9643 14.3641 7.9643 13.4592V7.17167H5V5.99857H7.98088V3.33405L7.30446 2.60443V2H9.28067L10.0201 2.40773V5.98069L17.7094 5.9628L18.4654 6.77825L13.7603 11.8784C14.0388 11.7532 14.3372 11.6817 14.6489 11.6459C15.1595 11.6459 15.7365 11.8247 16.3599 12.1788C17.0031 12.515 17.4972 12.9943 17.842 13.5987C18.1868 14.2031 18.4189 14.7718 18.5184 15.3226C18.6179 15.8734 18.6842 16.3526 18.6842 16.7961C18.6842 17.7725 18.4853 18.6774 18.1073 19.5143C17.7293 20.3476 17.1523 20.9878 16.3632 21.3956C15.5873 21.8033 14.7484 22 13.8432 22Z" fill="#407FEF"/>
</svg>
