<svg width="24" height="24" viewBox="0 0 24 24" fill="none" xmlns="http://www.w3.org/2000/svg">
<circle cx="12" cy="12" r="8" fill="#ECB84B"/>
<path d="M12.01 23C10.5235 23 9.08244 22.7087 7.72501 22.1356C6.41299 21.5816 5.23719 20.7888 4.22629 19.7787C3.21538 18.7686 2.42196 17.5913 1.86751 16.2828C1.29156 14.924 1 13.4841 1 11.9988C1 10.5135 1.29156 9.07359 1.86512 7.71725C2.41957 6.40627 3.21299 5.23141 4.2239 4.22132C5.2348 3.21122 6.41299 2.41843 7.72262 1.86443C9.08005 1.29133 10.5235 1 12.0076 1C13.4917 1 14.9376 1.28894 16.295 1.86204C17.607 2.41604 18.7828 3.20884 19.7937 4.21893C20.8046 5.22902 21.598 6.40627 22.1525 7.71486C22.726 9.0712 23.0176 10.5135 23.0176 11.9964C23.0176 13.4817 22.726 14.9216 22.1525 16.278C21.598 17.5889 20.8046 18.7638 19.7937 19.7739C18.7828 20.784 17.6046 21.5768 16.295 22.1308C14.9376 22.7087 13.4965 23 12.01 23ZM12.01 3.44285C9.72292 3.44285 7.57206 4.33355 5.95414 5.94779C4.33622 7.56442 3.4472 9.71356 3.4472 11.9988C3.4472 14.2841 4.33861 16.4332 5.95414 18.0498C7.57206 19.6641 9.72292 20.5548 12.01 20.5548C14.2971 20.5548 16.4479 19.6641 18.0659 18.0498C19.6814 16.4332 20.5728 14.2841 20.5728 11.9988C20.5728 9.71356 19.6814 7.56442 18.0659 5.94779C16.4479 4.33355 14.2971 3.44285 12.01 3.44285Z" fill="#221F20"/>
<path d="M11.348 14.7377H16.1181V17.1328H13.181C13.2288 17.8182 13.2551 18.4533 13.3029 19.1363H10.8318V17.1567H7.89468C7.89468 16.3735 7.79669 15.5926 7.94247 14.8595C8.01656 14.4679 8.45629 14.1264 8.72634 13.7849C9.65599 12.6841 10.5856 11.6096 11.5392 10.5087C11.9072 10.0932 12.2729 9.7016 12.6887 9.23834H8.11454V6.84325H10.8294V4.83978H13.2025V6.79549H16.1635C16.1635 7.60261 16.2615 8.38346 16.1157 9.11894C16.0417 9.51056 15.6019 9.85204 15.308 10.1935C14.3783 11.2943 13.4487 12.3689 12.4951 13.4697C12.1319 13.9067 11.7662 14.296 11.348 14.7377Z" fill="#221F20"/>
</svg>
