<svg width="24" height="24" viewBox="0 0 24 24" fill="none" xmlns="http://www.w3.org/2000/svg">
<path fill-rule="evenodd" clip-rule="evenodd" d="M9.76001 10.566L12.0004 15.5252L15.3277 13.6044H15.3337V9.76263L9.76001 10.566Z" fill="#CFD4DD"/>
<path fill-rule="evenodd" clip-rule="evenodd" d="M19.6332 6.8813L17.5559 6.10208L15.3336 5.92087V9.76261V17.8931L18.667 19.814L21.324 14.4017L19.6392 9.1948L19.6332 6.8813Z" fill="#9FA8BA"/>
<path fill-rule="evenodd" clip-rule="evenodd" d="M19.4396 5.92087L18.6666 7.84174V19.7837L22 17.8629V5.92087H19.4396Z" fill="#CFD4DD"/>
<path fill-rule="evenodd" clip-rule="evenodd" d="M18.667 4.00003L15.3336 5.9209L18.667 7.84177L22.0003 5.9209L18.667 4.00003Z" fill="#8690A5"/>
<path fill-rule="evenodd" clip-rule="evenodd" d="M12.0002 11.6835L8.66685 7.95047L2.00012 5.92087V17.8629L5.33349 19.7837L6.2876 13.1755L8.66685 13.6043L12.0002 15.5252V11.6835Z" fill="#9FA8BA"/>
<path fill-rule="evenodd" clip-rule="evenodd" d="M5.33349 4.00003L2.00012 5.9209L12.0002 11.6835L13.5099 10.8137L15.3336 9.76264L5.33349 4.00003Z" fill="#8690A5"/>
<path fill-rule="evenodd" clip-rule="evenodd" d="M5.33374 11.6835V19.7838L8.6671 17.8629V13.6044L5.33374 11.6835Z" fill="#CFD4DD"/>
</svg>
