<svg width="24" height="24" viewBox="0 0 24 24" fill="none" xmlns="http://www.w3.org/2000/svg">
<g clip-path="url(#clip0)">
<path d="M19 4.5V9H3V8.1V7.2C3 6.7 3.1 6.3 3.4 5.9C3.7 5.5 4 5.2 4.5 5.1H4.6C7.9 4.5 17.6 3 17.6 3C17.8 3 18 3 18.2 3.1C18.4 3.2 18.6 3.3 18.7 3.4C18.8 3.5 18.9 3.7 19 3.9C19 4.1 19 4.3 19 4.5Z" fill="#2B6DEF"/>
<path d="M20.5 7.5C20.2 7.2 19.8 7 19.4 7H4.8C4.3 7 3.8 6.6 3.8 6C3.8 5.5 4.1 5.1 4.6 5H4.5C4 5.2 3.7 5.5 3.4 5.9C3.1 6.3 3 6.7 3 7.2V19.3C3 19.7 3.2 20.2 3.5 20.5C3.8 20.8 4.3 21 4.7 21H19.3C19.8 21 20.2 20.8 20.5 20.5C20.8 20.2 21 19.7 21 19.3V8.6C21 8.2 20.8 7.8 20.5 7.5ZM19.2 14.3C19.1 14.5 19 14.7 18.8 14.9C18.6 15.1 18.5 15.2 18.3 15.3C18.1 15.4 17.9 15.4 17.7 15.4C17.2 15.4 16.8 15.2 16.5 14.9C16.2 14.6 16 14.2 16 13.7C16 13.2 16.2 12.8 16.5 12.5C16.8 12.2 17.2 12 17.7 12C17.9 12 18.1 12 18.4 12.1C18.6 12.2 18.8 12.3 18.9 12.5C19.1 12.6 19.2 12.8 19.3 13C19.4 13.2 19.4 13.4 19.4 13.7C19.3 13.9 19.3 14.1 19.2 14.3Z" fill="#AAC5F9"/>
</g>
<defs>
<clipPath id="clip0">
<rect width="24" height="24" fill="white"/>
</clipPath>
</defs>
</svg>
