<svg width="24" height="24" viewBox="0 0 24 24" fill="none" xmlns="http://www.w3.org/2000/svg">
<path d="M4 11H10C10.2652 11 10.5196 10.8946 10.7071 10.7071C10.8946 10.5196 11 10.2652 11 10V4C11 3.73478 10.8946 3.48043 10.7071 3.29289C10.5196 3.10536 10.2652 3 10 3H4C3.73478 3 3.48043 3.10536 3.29289 3.29289C3.10536 3.48043 3 3.73478 3 4V10C3 10.2652 3.10536 10.5196 3.29289 10.7071C3.48043 10.8946 3.73478 11 4 11ZM4 21H10C10.2652 21 10.5196 20.8946 10.7071 20.7071C10.8946 20.5196 11 20.2652 11 20V14C11 13.7348 10.8946 13.4804 10.7071 13.2929C10.5196 13.1054 10.2652 13 10 13H4C3.73478 13 3.48043 13.1054 3.29289 13.2929C3.10536 13.4804 3 13.7348 3 14V20C3 20.2652 3.10536 20.5196 3.29289 20.7071C3.48043 20.8946 3.73478 21 4 21ZM14 21H20C20.2652 21 20.5196 20.8946 20.7071 20.7071C20.8946 20.5196 21 20.2652 21 20V14C21 13.7348 20.8946 13.4804 20.7071 13.2929C20.5196 13.1054 20.2652 13 20 13H14C13.7348 13 13.4804 13.1054 13.2929 13.2929C13.1054 13.4804 13 13.7348 13 14V20C13 20.2652 13.1054 20.5196 13.2929 20.7071C13.4804 20.8946 13.7348 21 14 21Z" fill="#2B6DEF"/>
<path d="M17.7068 2.2932L21.2928 5.8792C21.3857 5.97199 21.4595 6.08219 21.5098 6.20351C21.5601 6.32482 21.586 6.45487 21.586 6.5862C21.586 6.71753 21.5601 6.84758 21.5098 6.96889C21.4595 7.09021 21.3857 7.20041 21.2928 7.2932L17.7068 10.8792C17.614 10.9721 17.5038 11.0459 17.3825 11.0962C17.2612 11.1465 17.1311 11.1724 16.9998 11.1724C16.8684 11.1724 16.7384 11.1465 16.6171 11.0962C16.4958 11.0459 16.3856 10.9721 16.2928 10.8792L12.7068 7.2932C12.6138 7.20041 12.5401 7.09021 12.4898 6.96889C12.4395 6.84758 12.4136 6.71753 12.4136 6.5862C12.4136 6.45487 12.4395 6.32482 12.4898 6.20351C12.5401 6.08219 12.6138 5.97199 12.7068 5.8792L16.2928 2.2932C16.3856 2.20026 16.4958 2.12652 16.6171 2.07621C16.7384 2.0259 16.8684 2 16.9998 2C17.1311 2 17.2612 2.0259 17.3825 2.07621C17.5038 2.12652 17.614 2.20026 17.7068 2.2932Z" fill="#AAC5F9"/>
</svg>
