<svg width="24" height="24" viewBox="0 0 24 24" fill="none" xmlns="http://www.w3.org/2000/svg">
<g clip-path="url(#clip0)">
<path d="M20.8133 14H20.7137C20.2157 13.9 19.8174 13.4 19.8174 12.9C19.8174 12.6 19.917 12.3 19.8174 12C19.8174 7.6 16.2323 4.1 11.8506 4.1C9.16181 4 6.77176 5.3 5.27799 7.5C4.97923 8 4.38172 8.1 3.8838 7.8C3.38587 7.5 3.28629 6.9 3.58504 6.4C5.47716 3.7 8.5643 2 11.8506 2C17.4274 2 21.8091 6.5 21.9087 11.9C21.9087 12.3 21.9087 12.7 21.8091 13.1C21.7095 13.6 21.3112 14 20.8133 14Z" fill="#CFD4DD"/>
<path d="M11.9502 22C9.1618 22 6.67217 20.9 4.78006 19C2.98753 17.1 1.89209 14.7 1.89209 12.1C1.89209 11.7 1.89209 11.3 1.99167 11C1.99167 10.4 2.4896 10 3.08711 10.1C3.58504 10.1 3.98338 10.6 3.98338 11.2C3.98338 11.5 3.98338 11.8 3.98338 12.1C3.98338 14.2 4.78006 16.2 6.27383 17.6C7.76761 19.1 9.75931 20 11.9502 20C14.5394 20 16.8298 18.8 18.3236 16.8C18.6224 16.4 19.3195 16.3 19.7178 16.6C20.1162 16.9 20.2157 17.6 19.917 18C18.0249 20.5 15.1369 22 11.9502 22Z" fill="#CFD4DD"/>
<path d="M7.86719 8H3.88379C3.38586 8 2.88794 7.6 2.88794 7V3C3.98338 3 4.87964 3.9 4.87964 5V6H5.87549C6.97093 6 7.86719 6.9 7.86719 8Z" fill="#9FA8BA"/>
<path d="M15.834 16H19.8174C20.3153 16 20.8132 16.4 20.8132 17V21C19.7178 21 18.8215 20.1 18.8215 19V18H17.8257C16.7303 18 15.834 17.1 15.834 16Z" fill="#9FA8BA"/>
<path d="M9.85896 16.4L6.17432 12.7L7.56851 11.3L9.85896 13.6L15.137 8.3L16.5312 9.7L9.85896 16.4Z" fill="#9FA8BA"/>
</g>
<defs>
<clipPath id="clip0">
<rect width="24" height="24" fill="white"/>
</clipPath>
</defs>
</svg>
