<svg width="24" height="24" viewBox="0 0 24 24" fill="none" xmlns="http://www.w3.org/2000/svg">
<path d="M4 13H10C10.55 13 11 12.55 11 12V4C11 3.45 10.55 3 10 3H4C3.45 3 3 3.45 3 4V12C3 12.55 3.45 13 4 13Z" fill="#B7BFCC"/>
<path d="M20 21H14C13.45 21 13 20.55 13 20V12C13 11.45 13.45 11 14 11H20C20.55 11 21 11.45 21 12V20C21 20.55 20.55 21 20 21Z" fill="#B7BFCC"/>
<path d="M13 8V4C13 3.45 13.45 3 14 3H20C20.55 3 21 3.45 21 4V8C21 8.55 20.55 9 20 9H14C13.45 9 13 8.55 13 8Z" fill="#8690A5"/>
<path d="M10 21H4C3.45 21 3 20.55 3 20V16C3 15.45 3.45 15 4 15H10C10.55 15 11 15.45 11 16V20C11 20.55 10.55 21 10 21Z" fill="#8690A5"/>
</svg>
