<svg width="24" height="24" viewBox="0 0 24 24" fill="none" xmlns="http://www.w3.org/2000/svg">
<path d="M22 12C22 10.3 21.3 8.8 20.2 7.8C19.2 6.7 17.7 6 16 6C14.3 6 12.8 6.7 11.8 7.8C10.7 8.8 10 10.3 10 12C10 13.7 10.7 15.2 11.8 16.2C12.9 17.3 14.4 18 16 18C17.7 18 19.2 17.3 20.2 16.2C20.8 15.6 21.2 15 21.5 14.3C21.9 13.6 22 12.8 22 12Z" fill="#8690A4"/>
<path d="M14.1 12C14.1 10.3 13.4 8.79999 12.3 7.69999C11.2 6.59999 9.70002 5.89999 8.00002 5.89999C6.30002 5.89999 4.80002 6.59999 3.70002 7.69999C2.60002 8.79999 1.90002 10.3 1.90002 12C1.90002 13.7 2.60002 15.2 3.70002 16.3C4.80002 17.4 6.30002 18.1 8.00002 18.1C9.70002 18.1 11.2 17.4 12.3 16.3C12.9 15.7 13.3 15.1 13.6 14.3C14 13.6 14.1 12.8 14.1 12Z" fill="#B7BECB"/>
</svg>
